<svg width="76" height="76" viewBox="0 0 76 76" fill="none" xmlns="http://www.w3.org/2000/svg">
<path d="M74.1436 14.6452L65.0099 10.9896L61.3559 1.85442L56.5739 6.63482C50.9554 3.28991 44.5384 1.52288 37.9995 1.52002C17.8854 1.52002 1.51953 17.8859 1.51953 38C1.51953 58.1142 17.8854 74.48 37.9995 74.48C58.1137 74.48 74.4795 58.1142 74.4795 38C74.4795 31.4367 72.7011 25.0481 69.3647 19.4256L74.1436 14.6452ZM62.6691 13.3304L68.7339 15.7563L64.9917 19.4971L58.9299 17.0696L56.504 11.0063L60.2447 7.2641L62.6691 13.3304ZM71.4395 38C71.4395 56.4391 56.4386 71.44 37.9995 71.44C19.5604 71.44 4.55953 56.4391 4.55953 38C4.55953 19.5609 19.5604 4.56002 37.9995 4.56002C43.7573 4.56002 49.3767 6.03594 54.3654 8.84338L52.9351 10.2737L55.9751 17.8752L54.0614 19.7889C49.7735 15.9995 44.1586 13.68 37.9995 13.68C24.5901 13.68 13.6795 24.5906 13.6795 38C13.6795 51.4095 24.5901 62.32 37.9995 62.32C51.409 62.32 62.3195 51.4095 62.3195 38C62.3195 31.841 60 26.2261 56.2122 21.9367L58.1259 20.023L65.7274 23.063L67.1577 21.6327C69.9683 26.6296 71.4431 32.2668 71.4395 38ZM47.1195 38C47.1195 43.0297 43.0292 47.12 37.9995 47.12C32.9699 47.12 28.8795 43.0297 28.8795 38C28.8795 32.9703 32.9699 28.88 37.9995 28.88C39.9664 28.88 41.7843 29.5123 43.2755 30.5748L38.7778 35.0725C38.5243 35.0018 38.2627 34.964 37.9995 34.96C37.3983 34.96 36.8105 35.1383 36.3106 35.4724C35.8107 35.8064 35.421 36.2812 35.1909 36.8367C34.9608 37.3921 34.9006 38.0034 35.0179 38.5931C35.1352 39.1828 35.4248 39.7245 35.8499 40.1496C36.2751 40.5748 36.8168 40.8643 37.4065 40.9816C37.9962 41.0989 38.6074 41.0387 39.1629 40.8086C39.7184 40.5785 40.1932 40.1889 40.5272 39.689C40.8612 39.189 41.0395 38.6013 41.0395 38C41.0395 37.7295 40.9924 37.4726 40.9271 37.2218L45.4247 32.7241C46.5268 34.2626 47.1194 36.1075 47.1195 38ZM45.4445 28.4058C43.3188 26.7435 40.698 25.8404 37.9995 25.84C31.2948 25.84 25.8395 31.2953 25.8395 38C25.8395 44.7047 31.2948 50.16 37.9995 50.16C44.7043 50.16 50.1595 44.7047 50.1595 38C50.1592 35.3016 49.256 32.6808 47.5938 30.5551L54.0644 24.0844C57.4268 27.9406 59.2794 32.8838 59.2795 38C59.2795 49.7344 49.7339 59.28 37.9995 59.28C26.2651 59.28 16.7195 49.7344 16.7195 38C16.7195 26.2656 26.2651 16.72 37.9995 16.72C43.3195 16.72 48.179 18.696 51.9136 21.9367L45.4445 28.4058Z" fill="#14918F"/>
</svg>
