<svg width="72" height="72" viewBox="0 0 72 72" fill="none" xmlns="http://www.w3.org/2000/svg">
<path d="M48.254 21.0027C54.678 21.0027 60.4972 23.4997 64.7094 27.5391C68.9258 31.5827 71.5352 37.16 71.5352 43.3205C71.5352 49.7272 68.6882 55.6501 63.9404 59.806L63.8237 70.1182C63.8108 71.3192 62.329 72.032 61.3051 71.1507L53.7881 65.0032C45.8132 66.8651 37.5228 64.5971 31.7987 59.1062C27.9797 55.447 25.4827 50.5264 25.042 45.0615C22.7437 45.1824 20.4454 44.9794 18.2119 44.4567L10.6949 50.6042C9.67102 51.4855 8.1849 50.7727 8.17626 49.5717L8.0553 39.2639C3.3118 35.1036 0.464844 29.1807 0.464844 22.7783C0.464844 16.6178 3.0742 11.0362 7.29063 6.99256C16.3586 -1.69952 31.0297 -1.72544 40.1365 6.93208C43.9857 10.5912 46.5044 15.5334 46.9493 21.0373C47.3814 21.0114 47.8134 21.0027 48.254 21.0027ZM22.0222 29.2412C22.0222 28.4117 22.6919 27.7421 23.5213 27.7421C24.3508 27.7421 25.0204 28.4117 25.0204 29.2412V29.9238C25.0204 30.7532 24.3508 31.4272 23.5213 31.4272C22.6919 31.4272 22.0222 30.7532 22.0222 29.9238V29.2412ZM20.7046 16.5141C20.359 17.2658 19.4691 17.5941 18.7174 17.2485C17.9657 16.9029 17.6373 16.013 17.9829 15.2613C19.5295 11.9218 22.1346 10.669 24.6057 10.7295C28.1784 10.8245 31.5265 13.8054 30.8569 17.4559C30.481 19.5123 28.7832 21.681 25.0204 23.3658V25.7289C25.0204 26.5584 24.3508 27.228 23.5213 27.228C22.6919 27.228 22.0222 26.5584 22.0222 25.7289V22.3679C22.0222 21.7717 22.3851 21.2058 22.977 20.9725C26.2776 19.6851 27.6816 18.2119 27.9149 16.9159C28.0575 16.1383 27.7291 15.3909 27.1502 14.8163C26.4893 14.1683 25.5345 13.7449 24.5366 13.719C23.1498 13.6844 21.655 14.4577 20.7046 16.5141ZM38.7325 44.9535C38.1925 44.3314 38.2573 43.3809 38.8794 42.8409C39.5058 42.2966 40.4519 42.3614 40.9962 42.9835L45.2299 47.8479L55.3304 36.9742C55.892 36.3694 56.8381 36.3348 57.4429 36.8964C58.0521 37.4624 58.0823 38.4085 57.5207 39.0133L46.3532 51.0405C46.3013 51.1053 46.2408 51.1658 46.176 51.222C45.5539 51.7663 44.6078 51.6972 44.0635 51.0751L38.7325 44.9535ZM25.0031 42.1843C25.5561 31.6345 33.6909 23.2103 43.9771 21.3786C43.6185 16.54 41.4109 12.1853 38.0283 8.96686C30.1009 1.43256 17.2917 1.46281 9.39885 9.03166C5.73107 12.5439 3.46301 17.4041 3.46301 22.7783C3.46301 28.5716 6.11124 33.8896 10.5178 37.5185C10.8807 37.8166 11.0578 38.2443 11.0405 38.6677L11.1269 46.4871L16.7992 41.8473C17.2096 41.4931 17.7194 41.3548 18.2421 41.4974C20.4238 42.0849 22.7264 42.3139 25.0031 42.1843ZM27.9754 43.4501C27.9754 43.476 27.9754 43.5019 27.9754 43.5235C28.0315 48.8157 30.2866 53.598 33.9069 57.0671C37.5747 60.588 42.6465 62.761 48.254 62.761C50.1549 62.761 51.9477 62.5277 53.7535 62.0396V62.0439C54.2806 61.9013 54.7904 62.0396 55.1965 62.3938L60.8688 67.0336L60.9595 59.2142C60.9422 58.7908 61.1193 58.3588 61.4822 58.0607C65.8888 54.4318 68.5327 49.1181 68.5327 43.3205C68.5327 37.9506 66.2646 33.0904 62.6011 29.5738C54.6824 21.9834 41.8257 21.9834 33.9069 29.5738C30.2046 33.125 27.9408 38.0283 27.9754 43.4501Z" fill="#14918F"/>
</svg>
