<svg width="63" height="73" viewBox="0 0 63 73" fill="none" xmlns="http://www.w3.org/2000/svg">
<path d="M38.6623 31.0634C38.6623 25.1834 33.9513 20.3994 28.1603 20.3994C28.0513 20.3994 27.9423 20.4053 27.8323 20.4203C23.8023 20.5483 20.5413 23.9003 20.5413 27.9443C20.5413 32.1003 23.9193 35.4814 28.0713 35.4814C28.8993 35.4814 29.5713 34.8094 29.5713 33.9814C29.5713 33.1524 28.8993 32.4814 28.0713 32.4814C25.5733 32.4814 23.5413 30.4463 23.5413 27.9443C23.5413 25.4913 25.5382 23.4594 27.9922 23.4174C28.0582 23.4154 28.1253 23.4104 28.1913 23.3994C32.3133 23.4174 35.6623 26.8484 35.6623 31.0634C35.6623 35.0934 33.8122 39.8113 28.6252 40.9653C25.3122 41.6943 22.1433 40.9544 19.6323 38.9384C16.6473 36.5424 14.8633 32.6124 14.8633 28.4274C14.8633 20.7894 21.0813 14.5764 28.7223 14.5764C36.3663 14.5764 42.5843 20.7894 42.5843 28.4274C42.5843 29.2564 43.2563 29.9274 44.0843 29.9274C44.9123 29.9274 45.5843 29.2564 45.5843 28.4274C45.5843 19.1354 38.0203 11.5764 28.7223 11.5764C19.4263 11.5764 11.8633 19.1354 11.8633 28.4274C11.8633 33.5134 14.0653 38.3174 17.7543 41.2784C20.1683 43.2174 23.0712 44.2433 26.1512 44.2433C27.1722 44.2433 28.2223 44.1264 29.2733 43.8954C36.1953 42.3554 38.6623 36.2574 38.6623 31.0634Z" fill="#008F8E"/>
<path d="M62.4989 42.1884L57.1749 31.4133C57.2589 30.5453 57.2989 29.6014 57.2989 28.4814C57.2499 13.5654 45.5289 1.08438 30.6149 0.0673822C14.8499 -1.00762 1.1339 10.9083 0.0589013 26.6313C-0.489099 34.8013 2.82189 43.8394 8.52289 49.8444V71.0424C8.52289 71.8704 9.19489 72.5424 10.0229 72.5424C10.8509 72.5424 11.5229 71.8704 11.5229 71.0424V49.2354C11.5229 48.8394 11.3659 48.4583 11.0859 48.1763C5.78088 42.8463 2.55288 34.2683 3.05188 26.8323C4.01188 12.7603 16.2909 2.09539 30.4099 3.05939C43.7619 3.96939 54.2539 15.1404 54.2979 28.4854C54.2979 29.6744 54.2499 30.6354 54.1469 31.5084C54.1129 31.7974 54.1629 32.0883 54.2919 32.3503L59.8089 43.5143C60.1609 44.2283 59.8699 45.0944 59.1659 45.4404C59.0549 45.4954 58.6719 45.5813 58.3419 45.5903L58.0419 45.6003C56.7349 45.6413 55.8989 45.6683 54.8949 45.6683C54.0669 45.6683 53.3949 46.3403 53.3949 47.1683V50.1243C53.3949 58.9593 51.5669 63.1644 41.1299 63.1644L36.2389 63.3304C35.4299 63.3574 34.7899 64.0203 34.7899 64.8293V71.0424C34.7899 71.8704 35.4619 72.5424 36.2899 72.5424C37.1179 72.5424 37.7899 71.8704 37.7899 71.0424V66.2803L41.1809 66.1653C53.8079 66.1653 56.3949 59.7534 56.3949 50.1254V48.6494C56.9099 48.6374 57.4629 48.6204 58.1379 48.5984L58.4319 48.5884C58.9809 48.5724 59.8469 48.4453 60.4879 48.1343C62.6799 47.0533 63.5819 44.3864 62.4989 42.1884Z" fill="#008F8E"/>
</svg>
