<svg width="84" height="84" viewBox="0 0 84 84" fill="none" xmlns="http://www.w3.org/2000/svg">
<g clip-path="url(#clip0_1060_2107)">
<path d="M63.6562 32.1563C65.733 32.1563 67.763 31.5404 69.4897 30.3867C71.2165 29.2329 72.5623 27.5931 73.357 25.6744C74.1517 23.7558 74.3596 21.6446 73.9545 19.6078C73.5494 17.571 72.5493 15.7001 71.0809 14.2316C69.6124 12.7632 67.7415 11.7632 65.7047 11.358C63.6679 10.9529 61.5567 11.1608 59.6381 11.9555C57.7195 12.7502 56.0796 14.0961 54.9258 15.8228C53.7721 17.5495 53.1562 19.5796 53.1562 21.6563C53.1594 24.4401 54.2666 27.109 56.2351 29.0774C58.2035 31.0459 60.8724 32.1531 63.6562 32.1563ZM63.6562 13.7813C65.2138 13.7813 66.7363 14.2431 68.0314 15.1084C69.3264 15.9737 70.3358 17.2037 70.9318 18.6426C71.5278 20.0816 71.6838 21.665 71.3799 23.1926C71.0761 24.7202 70.3261 26.1234 69.2247 27.2247C68.1234 28.3261 66.7202 29.0761 65.1926 29.3799C63.665 29.6838 62.0816 29.5278 60.6426 28.9318C59.2037 28.3358 57.9737 27.3264 57.1084 26.0314C56.2431 24.7363 55.7812 23.2138 55.7812 21.6563C55.7837 19.5684 56.6142 17.5668 58.0905 16.0905C59.5668 14.6142 61.5684 13.7837 63.6562 13.7813ZM32.7338 54.4688H34.3265C33.2823 53.7518 32.3428 52.8933 31.5348 51.9179C29.0039 52.2054 26.6666 53.4121 24.9666 55.3089C23.2666 57.2058 22.3221 59.6608 22.3125 62.2079V71.5313C22.3125 71.8794 22.4508 72.2132 22.6969 72.4593C22.9431 72.7055 23.2769 72.8438 23.625 72.8438H60.375C60.7231 72.8438 61.0569 72.7055 61.3031 72.4593C61.5492 72.2132 61.6875 71.8794 61.6875 71.5313V62.2073C61.6777 59.6602 60.7332 57.2054 59.0332 55.3087C57.3332 53.412 54.996 52.2054 52.4652 51.9179C51.6572 52.8933 50.7177 53.7518 49.6735 54.4688H51.2656C53.325 54.4633 55.3025 55.275 56.7642 56.7258C58.2259 58.1765 59.0524 60.1479 59.0625 62.2073V70.2188H55.7812V64.9688C55.7812 64.6207 55.643 64.2868 55.3968 64.0407C55.1507 63.7945 54.8168 63.6563 54.4688 63.6563C54.1207 63.6563 53.7868 63.7945 53.5407 64.0407C53.2945 64.2868 53.1562 64.6207 53.1562 64.9688V70.2188H30.8438V65.0777C30.8438 64.7296 30.7055 64.3958 30.4593 64.1496C30.2132 63.9035 29.8793 63.7652 29.5312 63.7652C29.1832 63.7652 28.8493 63.9035 28.6032 64.1496C28.357 64.3958 28.2188 64.7296 28.2188 65.0777V70.2188H24.9375V62.2073C24.9476 60.148 25.774 58.1768 27.2356 56.726C28.6971 55.2753 30.6744 54.4635 32.7338 54.4688Z" fill="#14918F"/>
<path d="M31.0505 43.2823C31.0505 45.4479 31.6926 47.5649 32.8958 49.3655C34.0989 51.1662 35.809 52.5696 37.8098 53.3984C39.8106 54.2271 42.0121 54.4439 44.1361 54.0215C46.2601 53.599 48.2112 52.5561 49.7425 51.0248C51.2738 49.4935 52.3167 47.5425 52.7391 45.4185C53.1616 43.2945 52.9448 41.0929 52.1161 39.0921C51.2873 37.0913 49.8839 35.3813 48.0832 34.1781C46.2826 32.975 44.1656 32.3328 42 32.3328C39.097 32.3361 36.3139 33.4908 34.2612 35.5435C32.2084 37.5962 31.0538 40.3793 31.0505 43.2823ZM42 34.9578C43.6464 34.9578 45.2559 35.446 46.6249 36.3607C47.9938 37.2754 49.0608 38.5755 49.6909 40.0967C50.3209 41.6178 50.4858 43.2915 50.1646 44.9064C49.8434 46.5212 49.0505 48.0044 47.8863 49.1687C46.7221 50.3329 45.2388 51.1257 43.624 51.4469C42.0092 51.7681 40.3354 51.6032 38.8143 50.9732C37.2932 50.3431 35.9931 49.2761 35.0784 47.9072C34.1637 46.5382 33.6755 44.9288 33.6755 43.2823C33.6781 41.0753 34.556 38.9594 36.1165 37.3989C37.6771 35.8383 39.793 34.9604 42 34.9578ZM20.3438 32.1563C22.4205 32.1563 24.4505 31.5404 26.1772 30.3867C27.904 29.2329 29.2498 27.5931 30.0445 25.6744C30.8392 23.7558 31.0471 21.6446 30.642 19.6078C30.2369 17.571 29.2368 15.7001 27.7684 14.2316C26.2999 12.7632 24.429 11.7632 22.3922 11.358C20.3554 10.9529 18.2442 11.1608 16.3256 11.9555C14.4069 12.7502 12.7671 14.0961 11.6133 15.8228C10.4596 17.5495 9.84375 19.5796 9.84375 21.6563C9.84688 24.4401 10.9541 27.109 12.9226 29.0774C14.891 31.0459 17.5599 32.1531 20.3438 32.1563ZM20.3438 13.7813C21.9013 13.7813 23.4238 14.2431 24.7189 15.1084C26.0139 15.9737 27.0233 17.2037 27.6193 18.6426C28.2153 20.0816 28.3713 21.665 28.0674 23.1926C27.7636 24.7202 27.0136 26.1234 25.9122 27.2247C24.8109 28.3261 23.4077 29.0761 21.8801 29.3799C20.3525 29.6838 18.7691 29.5278 17.3301 28.9318C15.8911 28.3358 14.6612 27.3264 13.7959 26.0314C12.9306 24.7363 12.4688 23.2138 12.4688 21.6563C12.4712 19.5684 13.3016 17.5668 14.778 16.0905C16.2543 14.6142 18.2559 13.7837 20.3438 13.7813ZM28.1853 32.1563H30.1875C31.2787 32.1563 32.358 32.3836 33.3565 32.8237C34.1224 32.1944 34.9546 31.6507 35.8385 31.2021C34.3262 30.2316 32.5896 29.6666 30.7958 29.5614C30.051 30.5439 29.1723 31.4174 28.1853 32.1563ZM53.8125 32.1563H55.8147C54.8278 31.4176 53.9491 30.5444 53.2042 29.5621C51.4104 29.6671 49.6739 30.2318 48.1615 31.2021C49.0454 31.6507 49.8776 32.1944 50.6435 32.8237C51.642 32.3836 52.7213 32.1563 53.8125 32.1563ZM3.9375 72.8438H19.9172C19.7661 72.4226 19.6884 71.9787 19.6875 71.5313V70.2188H9.1875V61.3292C9.1875 60.9811 9.04922 60.6473 8.80308 60.4011C8.55694 60.155 8.2231 60.0167 7.875 60.0167C7.5269 60.0167 7.19306 60.155 6.94692 60.4011C6.70078 60.6473 6.5625 60.9811 6.5625 61.3292V70.2188H3.9375C3.5913 70.22 3.25874 70.0839 3.01271 69.8403C2.76668 69.5968 2.62726 69.2656 2.625 68.9194V39.9853C2.63369 37.9036 3.46762 35.9104 4.94391 34.4427C6.42019 32.975 8.4183 32.1528 10.5 32.1563H12.5022C11.5153 31.4176 10.6366 30.5444 9.89166 29.5621C7.22511 29.7118 4.71633 30.874 2.87787 32.8112C1.03941 34.7485 0.0100194 37.3146 0 39.9853L0 68.9187C0.0027807 69.961 0.418913 70.9596 1.15709 71.6955C1.89527 72.4313 2.89521 72.8443 3.9375 72.8438ZM71.4978 32.1563H73.5C75.5818 32.1528 77.58 32.9751 79.0563 34.4429C80.5326 35.9107 81.3665 37.9042 81.375 39.986V68.9194C81.3727 69.2656 81.2333 69.5968 80.9873 69.8403C80.7413 70.0839 80.4087 70.22 80.0625 70.2188H77.4375V61.3292C77.4375 60.9811 77.2992 60.6473 77.0531 60.4011C76.8069 60.155 76.4731 60.0167 76.125 60.0167C75.7769 60.0167 75.4431 60.155 75.1969 60.4011C74.9508 60.6473 74.8125 60.9811 74.8125 61.3292V70.2188H64.3125V71.5313C64.3116 71.9787 64.2339 72.4226 64.0828 72.8438H80.0625C81.1047 72.8443 82.1045 72.4314 82.8427 71.6957C83.5808 70.96 83.997 69.9616 84 68.9194V39.9853C83.9902 37.3145 82.9608 34.7482 81.1224 32.8108C79.2839 30.8734 76.775 29.7111 74.1083 29.5614C73.3635 30.5439 72.4848 31.4174 71.4978 32.1563Z" fill="#14918F"/>
</g>
<defs>
<clipPath id="clip0_1060_2107">
<rect width="84" height="84" fill="white"/>
</clipPath>
</defs>
</svg>
