<svg width="103" height="103" viewBox="0 0 103 103" fill="none" xmlns="http://www.w3.org/2000/svg">
<path d="M58.8094 39.655L62.4401 34.8462C62.6176 34.61 62.7268 34.3296 62.7557 34.0355C62.7847 33.7415 62.7323 33.4452 62.6043 33.1789L59.4692 26.6609C59.3385 26.3878 59.1331 26.1572 58.8767 25.996C58.6204 25.8348 58.3236 25.7495 58.0208 25.75H44.9816C44.6788 25.7495 44.382 25.8348 44.1257 25.996C43.8694 26.1572 43.6639 26.3878 43.5332 26.6609L40.3949 33.1789C40.2665 33.4449 40.2135 33.741 40.2419 34.0351C40.2703 34.3291 40.3789 34.6097 40.5559 34.8462L44.1866 39.655C38.8286 41.1846 34.1217 44.4326 30.7904 48.8992C27.4591 53.3657 25.688 58.8033 25.7496 64.375C25.7496 71.2043 28.4625 77.7539 33.2916 82.583C38.1207 87.4121 44.6703 90.125 51.4996 90.125C58.3289 90.125 64.8785 87.4121 69.7076 82.583C74.5367 77.7539 77.2496 71.2043 77.2496 64.375C77.311 58.8029 75.5394 53.365 72.2075 48.8984C68.8756 44.4317 64.168 41.184 58.8094 39.655ZM51.4996 48.2812C54.6826 48.2812 57.7942 49.2251 60.4408 50.9935C63.0874 52.7619 65.1502 55.2754 66.3683 58.2162C67.5864 61.1569 67.9051 64.3929 67.2841 67.5147C66.6631 70.6366 65.1304 73.5042 62.8796 75.755C60.6288 78.0058 57.7612 79.5385 54.6393 80.1595C51.5175 80.7805 48.2815 80.4618 45.3408 79.2437C42.4 78.0256 39.8865 75.9628 38.1181 73.3162C36.3497 70.6696 35.4059 67.558 35.4059 64.375C35.411 60.1082 37.1082 56.0177 40.1252 53.0006C43.1423 49.9836 47.2328 48.2864 51.4996 48.2812ZM45.0009 35.3902H57.9983L51.4996 44.0003L45.0009 35.3902ZM45.9923 28.9688H57.0069L58.5487 32.1714H44.4505L45.9923 28.9688ZM51.4996 86.9062C45.526 86.8994 39.7991 84.5234 35.5751 80.2995C31.3512 76.0755 28.9752 70.3486 28.9684 64.375C28.9127 59.2898 30.6019 54.3392 33.7543 50.3487C36.9067 46.3581 41.3317 43.5688 46.2917 42.4457L48.4643 45.3264C43.6662 46.09 39.3322 48.634 36.3265 52.4511C33.3208 56.2682 31.8642 61.078 32.2472 65.9213C32.6302 70.7646 34.8246 75.2857 38.3929 78.583C41.9612 81.8802 46.6411 83.7114 51.4996 83.7114C56.3581 83.7114 61.038 81.8802 64.6063 78.583C68.1746 75.2857 70.369 70.7646 70.752 65.9213C71.135 61.078 69.6784 56.2682 66.6727 52.4511C63.667 48.634 59.333 46.09 54.5349 45.3264L56.7075 42.4424C61.668 43.5656 66.0935 46.3555 69.2459 50.3467C72.3984 54.3379 74.0872 59.2893 74.0308 64.375C74.024 70.3486 71.648 76.0755 67.4241 80.2995C63.2001 84.5234 57.4732 86.8994 51.4996 86.9062ZM51.6605 19.3125C52.0874 19.3125 52.4967 19.1429 52.7985 18.8411C53.1004 18.5393 53.2699 18.13 53.2699 17.7031V14.4844C53.2699 14.0575 53.1004 13.6482 52.7985 13.3464C52.4967 13.0446 52.0874 12.875 51.6605 12.875C51.2337 12.875 50.8244 13.0446 50.5225 13.3464C50.2207 13.6482 50.0512 14.0575 50.0512 14.4844V17.7031C50.0512 18.13 50.2207 18.5393 50.5225 18.8411C50.8244 19.1429 51.2337 19.3125 51.6605 19.3125ZM59.6784 22.5312C59.89 22.532 60.0996 22.4908 60.2951 22.4102C60.4907 22.3295 60.6684 22.211 60.8179 22.0613L63.0935 19.7857C63.3867 19.4821 63.5489 19.0756 63.5452 18.6536C63.5416 18.2316 63.3723 17.828 63.0739 17.5296C62.7755 17.2312 62.3719 17.062 61.9499 17.0583C61.5279 17.0546 61.1214 17.2168 60.8179 17.51L58.5422 19.7857C58.3181 20.0105 58.1654 20.2967 58.1035 20.6081C58.0416 20.9195 58.0732 21.2423 58.1943 21.5358C58.3154 21.8293 58.5207 22.0804 58.7842 22.2576C59.0477 22.4347 59.3609 22.5299 59.6784 22.5312ZM41.5054 22.0613C41.8089 22.3545 42.2154 22.5167 42.6374 22.513C43.0594 22.5094 43.463 22.3401 43.7614 22.0417C44.0598 21.7433 44.2291 21.3397 44.2327 20.9177C44.2364 20.4957 44.0742 20.0892 43.781 19.7857L41.5054 17.51C41.2019 17.2168 40.7953 17.0546 40.3733 17.0583C39.9514 17.062 39.5477 17.2312 39.2493 17.5296C38.9509 17.828 38.7817 18.2316 38.778 18.6536C38.7743 19.0756 38.9366 19.4821 39.2297 19.7857L41.5054 22.0613Z" fill="#14918F"/>
</svg>
