<svg width="81" height="81" viewBox="0 0 81 81" fill="none" xmlns="http://www.w3.org/2000/svg">
<path d="M41.9686 78.0764H6.79688C6.29338 78.0764 5.8105 77.8764 5.45448 77.5203C5.09845 77.1643 4.89844 76.6814 4.89844 76.1779V68.3437C4.89844 67.8402 5.09845 67.3573 5.45448 67.0013C5.8105 66.6453 6.29338 66.4453 6.79688 66.4453H27.8442C28.3477 66.4453 28.8306 66.6453 29.1866 67.0013C29.5426 67.3573 29.7427 67.8402 29.7427 68.3437C29.7427 68.8472 29.5426 69.3301 29.1866 69.6861C28.8306 70.0421 28.3477 70.2422 27.8442 70.2422H8.69531V74.3301H40.0702V70.1915H37.3617C36.8582 70.1915 36.3753 69.9915 36.0193 69.6355C35.6633 69.2795 35.4633 68.7966 35.4633 68.2931C35.4633 67.7896 35.6633 67.3067 36.0193 66.9507C36.3753 66.5947 36.8582 66.3947 37.3617 66.3947H41.9686C42.4721 66.3947 42.955 66.5947 43.311 66.9507C43.667 67.3067 43.867 67.7896 43.867 68.2931V76.1779C43.867 76.6814 43.667 77.1643 43.311 77.5203C42.955 77.8764 42.4721 78.0764 41.9686 78.0764Z" fill="#14918F"/>
<path d="M37.3603 70.1916C36.8611 70.1984 36.3793 70.0083 36.0192 69.6625C35.6592 69.3166 35.4498 68.8428 35.4366 68.3438V62.3067H13.3008V68.3438C13.3008 68.8473 13.1008 69.3301 12.7447 69.6862C12.3887 70.0422 11.9058 70.2422 11.4023 70.2422C10.8988 70.2422 10.416 70.0422 10.0599 69.6862C9.70392 69.3301 9.50391 68.8473 9.50391 68.3438V60.4083C9.5039 59.907 9.70217 59.426 10.0555 59.0704C10.4088 58.7147 10.8884 58.5132 11.3897 58.5099H37.3603C37.8638 58.5099 38.3467 58.7099 38.7027 59.0659C39.0587 59.4219 39.2588 59.9048 39.2588 60.4083V68.3438C39.2456 68.8384 39.0397 69.3084 38.6851 69.6536C38.3305 69.9987 37.8552 70.1917 37.3603 70.1916ZM28.83 47.018C28.4548 47.0177 28.088 46.9061 27.7762 46.6975C27.4643 46.4889 27.2212 46.1925 27.0776 45.8458C26.9341 45.4991 26.8965 45.1177 26.9696 44.7496C27.0427 44.3816 27.2233 44.0435 27.4884 43.778L48.0042 23.2495C48.1804 23.0725 48.3897 22.932 48.6202 22.8358C48.8507 22.7397 49.0979 22.69 49.3476 22.6894C49.5974 22.6888 49.8448 22.7374 50.0757 22.8324C50.3067 22.9275 50.5167 23.067 50.6937 23.2432C50.8707 23.4194 51.0113 23.6287 51.1074 23.8592C51.2035 24.0897 51.2533 24.3369 51.2538 24.5866C51.2544 24.8364 51.2058 25.0838 51.1108 25.3147C51.0158 25.5457 50.8762 25.7557 50.7 25.9327L30.1716 46.4611C29.8136 46.8138 29.3325 47.0135 28.83 47.018ZM15.7941 33.982C15.5443 33.9854 15.2965 33.9377 15.0658 33.842C14.8352 33.7462 14.6265 33.6044 14.4525 33.4252C14.2749 33.2498 14.134 33.0409 14.0378 32.8106C13.9415 32.5803 13.892 32.3332 13.892 32.0836C13.892 31.834 13.9415 31.5869 14.0378 31.3566C14.134 31.1263 14.2749 30.9174 14.4525 30.742L34.9809 10.2136C35.1547 10.0271 35.3643 9.87748 35.5972 9.77372C35.8301 9.66996 36.0815 9.61417 36.3364 9.60967C36.5913 9.60517 36.8445 9.65206 37.0809 9.74754C37.3172 9.84303 37.532 9.98514 37.7123 10.1654C37.8925 10.3457 38.0346 10.5604 38.1301 10.7968C38.2256 11.0332 38.2725 11.2864 38.268 11.5413C38.2635 11.7962 38.2077 12.0476 38.1039 12.2805C38.0002 12.5133 37.8506 12.7229 37.6641 12.8967L17.1356 33.4252C16.9608 33.6032 16.7519 33.7443 16.5214 33.8399C16.291 33.9356 16.0436 33.9839 15.7941 33.982Z" fill="#14918F"/>
<path d="M50.8785 28.0083C50.6287 28.0116 50.3809 27.964 50.1502 27.8682C49.9196 27.7725 49.7109 27.6306 49.5369 27.4514L48.0055 25.9326C47.6497 25.5752 47.4505 25.091 47.4517 24.5866C47.4528 24.0822 47.6543 23.599 48.0118 23.2432C48.3693 22.8874 48.8535 22.6882 49.3579 22.6894C49.8622 22.6905 50.3455 22.892 50.7013 23.2495L50.8785 23.4267L53.4097 20.8955L40.0194 7.50514L37.4882 10.0364L45.2085 17.7567C45.5609 18.1143 45.7585 18.5962 45.7585 19.0983C45.7585 19.6003 45.5609 20.0823 45.2085 20.4398C45.0331 20.6174 44.8242 20.7584 44.5939 20.8546C44.3636 20.9508 44.1165 21.0003 43.8669 21.0003C43.6173 21.0003 43.3702 20.9508 43.1399 20.8546C42.9096 20.7584 42.7007 20.6174 42.5253 20.4398L33.4635 11.3906C33.2859 11.2152 33.1449 11.0063 33.0487 10.776C32.9525 10.5457 32.903 10.2986 32.903 10.0491C32.903 9.79947 32.9525 9.55237 33.0487 9.32208C33.1449 9.09179 33.2859 8.88289 33.4635 8.70749L38.6652 3.49311C39.0309 3.15146 39.5126 2.96143 40.0131 2.96143C40.5135 2.96143 40.9953 3.15146 41.361 3.49311L57.4344 19.5666C57.7882 19.9238 57.9881 20.4053 57.9913 20.9081C57.9908 21.4114 57.7905 21.894 57.4344 22.2497L52.22 27.4641C52.0437 27.6392 51.8343 27.7776 51.604 27.871C51.3736 27.9644 51.127 28.0111 50.8785 28.0083ZM25.1357 53.7511C24.8836 53.7466 24.6351 53.6917 24.4046 53.5895C24.1742 53.4873 23.9666 53.34 23.7941 53.1562L7.72065 37.1208C7.5431 36.9454 7.40213 36.7365 7.30591 36.5062C7.2097 36.2759 7.16016 36.0288 7.16016 35.7792C7.16016 35.5296 7.2097 35.2825 7.30591 35.0522C7.40213 34.8219 7.5431 34.613 7.72065 34.4376L12.935 29.2233C13.1104 29.0457 13.3193 28.9047 13.5496 28.8085C13.7799 28.7123 14.027 28.6628 14.2766 28.6628C14.5262 28.6628 14.7733 28.7123 15.0036 28.8085C15.2339 28.9047 15.4428 29.0457 15.6182 29.2233L17.1369 30.742C17.3234 30.9158 17.473 31.1254 17.5768 31.3583C17.6805 31.5912 17.7363 31.8425 17.7408 32.0974C17.7453 32.3524 17.6984 32.6056 17.603 32.8419C17.5075 33.0783 17.3654 33.2931 17.1851 33.4733C17.0048 33.6536 16.7901 33.7957 16.5537 33.8912C16.3173 33.9867 16.0641 34.0336 15.8092 34.0291C15.5543 34.0246 15.3029 33.9688 15.07 33.865C14.8372 33.7613 14.6276 33.6117 14.4538 33.4251L14.2766 33.248L11.7453 35.7792L25.1357 49.1695L27.6669 46.6383L20.8452 39.8292C20.4927 39.4716 20.2952 38.9897 20.2952 38.4876C20.2952 37.9856 20.4927 37.5037 20.8452 37.1461C21.0206 36.9685 21.2295 36.8276 21.4598 36.7313C21.6901 36.6351 21.9372 36.5856 22.1867 36.5856C22.4363 36.5856 22.6834 36.6351 22.9137 36.7313C23.144 36.8276 23.3529 36.9685 23.5283 37.1461L31.641 45.2967C31.9965 45.6527 32.1962 46.1352 32.1962 46.6383C32.1962 47.1414 31.9965 47.6239 31.641 47.9798L26.4772 53.1562C26.3038 53.3389 26.096 53.4855 25.8658 53.5876C25.6356 53.6896 25.3874 53.7452 25.1357 53.7511ZM70.7488 71.7483C70.0434 71.7517 69.3445 71.6147 68.6926 71.3452C68.0407 71.0758 67.449 70.6793 66.9519 70.1789L35.3113 38.6395C35.1309 38.4657 34.9875 38.2574 34.8897 38.0268C34.7918 37.7963 34.7415 37.5484 34.7417 37.298C34.7422 36.7946 34.9425 36.3121 35.2986 35.9564L40.1966 31.0711C40.372 30.8935 40.5809 30.7526 40.8112 30.6563C41.0415 30.5601 41.2886 30.5106 41.5382 30.5106C41.7877 30.5106 42.0348 30.5601 42.2651 30.6563C42.4954 30.7526 42.7043 30.8935 42.8797 31.0711L74.5203 62.5978C75.0194 63.0962 75.4152 63.6881 75.6853 64.3396C75.9554 64.9911 76.0944 65.6894 76.0944 66.3947C76.0944 67.0999 75.9554 67.7983 75.6853 68.4498C75.4152 69.1013 75.0194 69.6932 74.5203 70.1916C74.0252 70.6866 73.4371 71.079 72.7899 71.3462C72.1426 71.6133 71.449 71.75 70.7488 71.7483ZM39.336 37.298L69.6097 67.4958C69.9078 67.7761 70.3016 67.9322 70.7108 67.9322C71.12 67.9322 71.5138 67.7761 71.8119 67.4958C72.1026 67.2029 72.2663 66.8073 72.2675 66.3947C72.2676 66.1902 72.2274 65.9877 72.1492 65.7988C72.0711 65.6099 71.9564 65.4382 71.8119 65.2936L41.4369 35.0958L39.336 37.298Z" fill="#14918F"/>
</svg>
