<svg width="88" height="88" viewBox="0 0 88 88" fill="none" xmlns="http://www.w3.org/2000/svg">
<g clip-path="url(#clip0_1044_2556)">
<path fill-rule="evenodd" clip-rule="evenodd" d="M61.8868 44.9075V47.2395C61.8868 48.7575 61.0893 50.1545 59.7913 50.919L58.375 51.7495L59.7692 54.12L61.1883 53.2867C62.2396 52.6653 63.1107 51.7804 63.7155 50.7194C64.3202 49.6584 64.6378 48.458 64.6368 47.2367V44.9075H61.8868ZM70.1093 44.9075V48.1937C70.1093 50.0857 71.1103 51.843 72.7355 52.8027L79.605 56.8535C79.9818 57.0735 80.617 57.486 80.7655 57.6152C81.805 58.5227 82.487 59.9967 82.5063 61.6027V68.684H72.8758V71.434H85.2563V61.5697C85.2288 59.2212 84.258 57.013 82.575 55.5417C82.0415 55.0742 81.4145 54.725 81.0075 54.4857L74.1325 50.435C73.7435 50.2046 73.4214 49.8766 73.198 49.4835C72.9747 49.0904 72.8579 48.6458 72.8593 48.1937V44.9075H70.1093ZM64.6587 68.6867V71.4367H70.1258V68.6867H64.6587Z" fill="#A3D9DA"/>
<path fill-rule="evenodd" clip-rule="evenodd" d="M77 66.0002V70.1524H79.75V66.0002H77Z" fill="#A3D9DA"/>
<path d="M67.5317 20.9605C61.0747 20.9605 55.8496 26.2324 55.8496 32.7141V52.1951H58.5996V32.7141C58.5996 27.7009 62.5597 23.7105 67.5317 23.7105C69.0791 23.7103 70.5999 24.1119 71.9454 24.8764C73.3255 25.6641 74.4718 26.8045 75.2666 28.1806C76.0615 29.5567 76.4764 31.1193 76.4692 32.7084V54.1723H79.2192V32.7084C79.2239 30.4891 78.5997 28.3138 77.4189 26.4347C76.2382 24.5555 74.5492 23.0495 72.5477 22.0908H72.5421C70.9765 21.3472 69.2649 20.9593 67.5317 20.9605Z" fill="#A3D9DA"/>
<path d="M70.2959 29.2767C69.9635 29.2785 69.6431 29.4006 69.3939 29.6204C68.8219 29.6479 68.2471 29.2354 67.8044 29.6204C67.5844 29.8129 66.5393 30.1069 65.2633 30.1344C63.9901 30.1619 62.5656 30.0384 61.4023 30.0384C61.0591 30.0383 60.7282 30.1667 60.4748 30.3982C60.2214 30.6298 60.0637 30.9476 60.0328 31.2895L59.9778 31.8753C59.9749 31.9183 59.974 31.9614 59.9751 32.0045V39.0749C59.9751 41.3491 60.7451 43.6205 62.0431 45.4135C63.3356 47.2065 65.2496 48.5925 67.5321 48.5925C69.8119 48.5925 71.7286 47.2065 73.0266 45.4135C74.3559 43.5658 75.0786 41.351 75.0946 39.0749V34.3037L75.0836 32.2466C75.0818 31.9451 74.9809 31.6525 74.7965 31.414C74.6122 31.1755 74.3546 31.0044 74.0634 30.9266C72.8809 30.6159 71.8853 30.2279 71.2033 29.6312C70.9173 29.3782 70.5296 29.7302 70.1693 29.6312L70.2959 29.2874V29.2767ZM69.4764 31.7239C70.3509 32.4664 71.3545 32.7691 72.3363 33.0908L72.3446 34.3007V39.0692C72.3446 40.6917 71.7396 42.4957 70.7963 43.7964C69.8558 45.0972 68.6789 45.8371 67.5321 45.8371C66.3854 45.8371 65.2111 45.0944 64.2706 43.7964C63.2944 42.4106 62.7561 40.764 62.7251 39.0692V32.8213C63.5556 32.857 64.3421 32.9091 65.3294 32.8844C66.7704 32.8514 68.2581 32.7111 69.4764 31.7239ZM75.7656 52.0659C75.4019 52.0717 75.0553 52.2213 74.8017 52.4821C74.5481 52.743 74.4082 53.0936 74.4126 53.4573C74.4126 55.9681 73.0596 58.2808 70.8871 59.5045C70.04 59.9826 69.1004 60.2742 68.1315 60.3595C67.1625 60.4449 66.1865 60.3223 65.2689 59.9997C65.0965 59.9309 64.912 59.8976 64.7265 59.902C64.5411 59.9064 64.3584 59.9483 64.1895 60.0252C64.0207 60.1021 63.8691 60.2124 63.744 60.3495C63.6189 60.4865 63.5227 60.6473 63.4614 60.8224C63.4001 60.9976 63.3749 61.1831 63.3873 61.3683C63.3997 61.5534 63.4494 61.7343 63.5335 61.8997C63.6176 62.0651 63.7343 62.2116 63.8766 62.3307C64.0188 62.4498 64.1837 62.5392 64.3613 62.5929C66.9353 63.4976 69.8091 63.2692 72.2428 61.8997C73.737 61.0542 74.9799 59.827 75.8443 58.3437C76.7087 56.8603 77.1636 55.1742 77.1626 53.4573C77.1648 53.2735 77.1302 53.0911 77.0607 52.9209C76.9912 52.7507 76.8883 52.5961 76.7581 52.4664C76.6278 52.3366 76.4729 52.2344 76.3024 52.1656C76.132 52.0968 75.9494 52.0629 75.7656 52.0659Z" fill="#A3D9DA"/>
<path fill-rule="evenodd" clip-rule="evenodd" d="M12.3755 44.902V47.2395C12.3755 48.7575 11.578 50.1545 10.28 50.919L4.89824 54.0925C4.21074 54.4967 3.10524 55.0962 2.29399 55.946C1.05428 57.2674 0.273206 58.9529 0.0664913 60.753C-0.0215087 61.4542 0.00049132 62.282 0.00049132 62.788V71.4367H12.3755V68.6867H2.75049V62.788C2.75049 62.2627 2.75324 61.4075 2.79449 61.083C2.94849 59.818 3.49299 58.6712 4.27949 57.8462C4.54899 57.5657 5.63524 56.8507 6.29524 56.4602L8.84174 54.9615C9.29274 57.695 10.5907 60.2277 12.9942 61.7072C14.1452 62.4163 15.4329 62.8742 16.7732 63.0509C18.1134 63.2277 19.4758 63.1193 20.7712 62.733L19.982 60.0985C18.1367 60.6485 16.121 60.4037 14.438 59.367C12.4222 58.124 11.27 55.913 11.237 53.5452L11.677 53.2812C12.7284 52.6598 13.5994 51.7749 14.2042 50.7139C14.809 49.6529 15.1265 48.4525 15.1255 47.2312V44.902H12.3755ZM20.6035 44.9075V48.1937C20.6035 50.0857 21.6045 51.843 23.2297 52.8027L25.449 54.109L26.846 51.7385L24.6267 50.435C24.2377 50.2046 23.9156 49.8767 23.6923 49.4836C23.469 49.0904 23.3522 48.6458 23.3535 48.1937V44.9075H20.6035ZM15.1255 68.6867V71.4367H20.7987V68.6867H15.1255Z" fill="#A3D9DA"/>
<path fill-rule="evenodd" clip-rule="evenodd" d="M5.5 65.9065V70.059H8.25V65.9065H5.5Z" fill="#A3D9DA"/>
<path d="M18.0254 20.9605C11.5684 20.9605 6.33789 26.2324 6.33789 32.7141V54.1723H9.08789V32.7141C9.08789 27.7009 13.0534 23.7105 18.0254 23.7105C19.1941 23.7105 20.2997 23.936 21.3172 24.3403H21.3227C21.7084 24.4893 22.0817 24.6685 22.4392 24.8764C23.8194 25.6641 24.9655 26.8045 25.7604 28.1806C26.5552 29.5567 26.9702 31.1193 26.9629 32.7084V52.1951H29.7129V32.7084C29.7176 30.4891 29.0935 28.3138 27.9127 26.4347C26.732 24.5555 25.043 23.0495 23.0414 22.0908H23.0359C21.4699 21.3491 19.7582 20.966 18.0254 20.9689V20.9605Z" fill="#A3D9DA"/>
<path d="M20.7892 29.2767C20.4568 29.2785 20.1364 29.4006 19.8871 29.6204C19.3151 29.6479 18.7404 29.2327 18.2976 29.6204C18.0776 29.8129 17.0327 30.1069 15.7567 30.1344C14.4834 30.1619 13.0589 30.0384 11.8956 30.0384C11.5524 30.0383 11.2215 30.1667 10.9681 30.3982C10.7147 30.6298 10.5571 30.9476 10.5262 31.2895L10.4712 31.8753C10.4664 31.9182 10.4636 31.9613 10.4629 32.0045V34.298C10.4629 34.3942 10.4684 34.4657 10.4684 34.3419C10.4684 34.3062 10.4629 34.2539 10.4629 34.3859V39.0749C10.4629 41.3491 11.2384 43.6205 12.5364 45.4135C13.8289 47.2065 15.7429 48.5925 18.0254 48.5925C20.3051 48.5925 22.2219 47.2065 23.5199 45.4135C24.8493 43.5658 25.5718 41.351 25.5879 39.0749V34.3859C25.5879 34.3144 25.5824 34.3255 25.5824 34.353C25.5824 34.3805 25.5879 34.4218 25.5879 34.3091L25.5769 32.2519C25.575 31.9505 25.4742 31.6582 25.2899 31.4197C25.1055 31.1812 24.8479 31.0097 24.5566 30.932C23.3741 30.6212 22.3787 30.2336 21.6967 29.6369C21.6949 29.6369 21.693 29.6369 21.6912 29.6369C21.4052 29.3866 21.0202 29.7359 20.6599 29.6369L20.7892 29.2931V29.2767ZM19.9696 31.7239C20.8441 32.4664 21.8479 32.7691 22.8297 33.0908L22.8379 34.3007C22.8379 34.2457 22.8324 34.2596 22.8324 34.3366C22.8324 34.4878 22.8379 34.4191 22.8379 34.3806V39.0692C22.8379 40.6917 22.2329 42.4957 21.2897 43.7964C20.3492 45.0972 19.1721 45.8371 18.0254 45.8371C16.8786 45.8371 15.7044 45.0944 14.7639 43.7964C13.7861 42.4111 13.2459 40.7645 13.2129 39.0692V34.3806C13.2129 34.4988 13.2184 34.4354 13.2184 34.3419C13.2184 34.1907 13.2129 34.2567 13.2129 34.298V32.8213C14.0434 32.857 14.8327 32.9091 15.8227 32.8844C17.2637 32.8514 18.7514 32.7111 19.9696 31.7239Z" fill="#A3D9DA"/>
<path fill-rule="evenodd" clip-rule="evenodd" d="M27.5 63.2471V70.2789H30.25V63.2471H27.5ZM55 63.2471V69.5172H57.75V63.2471H55Z" fill="#14918F"/>
<path d="M49.1174 61.0335C49.1177 61.2034 49.0839 61.3718 49.0177 61.5289C48.9515 61.6861 48.8544 61.8289 48.7318 61.9492C48.6091 62.0695 48.4635 62.1649 48.3032 62.2301C48.1428 62.2952 47.971 62.3287 47.7974 62.3287C47.6238 62.3291 47.4519 62.2959 47.2914 62.2311C47.1309 62.1663 46.9851 62.0712 46.8622 61.9511C46.7393 61.8311 46.6419 61.6885 46.5754 61.5315C46.5089 61.3745 46.4746 61.2062 46.4746 61.0362C46.4739 60.866 46.5075 60.6974 46.5735 60.5399C46.6395 60.3825 46.7366 60.2393 46.8593 60.1187C46.9819 59.9981 47.1277 59.9024 47.2882 59.8371C47.4487 59.7718 47.6208 59.7382 47.7946 59.7382C47.9684 59.7379 48.1406 59.7711 48.3013 59.8361C48.4619 59.9011 48.6079 59.9965 48.7308 60.1168C48.8537 60.2372 48.9511 60.3801 49.0174 60.5374C49.0838 60.6947 49.1177 60.8633 49.1174 61.0335ZM49.0899 66.2117C49.0902 66.3781 49.0571 66.5429 48.9923 66.6967C48.9275 66.8505 48.8324 66.9902 48.7123 67.108C48.5922 67.2258 48.4496 67.3192 48.2926 67.3829C48.1356 67.4467 47.9673 67.4795 47.7974 67.4795C47.6274 67.4798 47.459 67.4474 47.3019 67.384C47.1448 67.3205 47.002 67.2274 46.8817 67.1099C46.7613 66.9924 46.6659 66.8528 46.6008 66.6992C46.5356 66.5455 46.5021 66.3808 46.5021 66.2145C46.5014 66.0479 46.5343 65.8828 46.5989 65.7287C46.6635 65.5746 46.7586 65.4345 46.8787 65.3164C46.9988 65.1984 47.1415 65.1047 47.2987 65.0408C47.4559 64.9769 47.6244 64.944 47.7946 64.944C47.9648 64.9436 48.1334 64.9762 48.2907 65.0398C48.4481 65.1033 48.591 65.1967 48.7113 65.3145C48.8317 65.4323 48.9271 65.5722 48.992 65.7262C49.057 65.8801 49.0902 66.0451 49.0899 66.2117Z" fill="#14918F"/>
<path fill-rule="evenodd" clip-rule="evenodd" d="M41.2617 56.1412V71.0792H44.0117V56.1412H41.2617Z" fill="black"/>
<path fill-rule="evenodd" clip-rule="evenodd" d="M41.2383 56.1412V71.0517H43.9883V56.1412H41.2383Z" fill="#14918F"/>
<path fill-rule="evenodd" clip-rule="evenodd" d="M48.5259 46.6894C47.2417 48.6694 46.6752 50.7596 44.3047 52.7396H44.3102L41.6895 55.121L43.543 57.156L45.3854 55.4785L49.5654 57.4145H49.5737C51.3502 58.2037 53.4622 56.6856 53.212 54.7414L53.1954 54.6121L53.1515 54.4886C53.1515 54.4886 52.5712 52.7147 52.0129 50.8997C51.7352 49.9922 51.463 49.0766 51.2787 48.3864C51.2029 48.1159 51.134 47.8436 51.0724 47.5696L51.045 47.4182C51.045 47.4182 51.2375 47.3631 50.9157 48.0231L48.5259 46.6757V46.6894ZM49.2107 51.1253C49.2739 51.3343 49.3207 51.5074 49.3867 51.7164C49.8597 53.2509 50.1979 54.2851 50.3492 54.7444L47.3352 53.3499C47.9952 52.5964 48.7872 51.832 49.2107 51.1253Z" fill="#14918F"/>
<path fill-rule="evenodd" clip-rule="evenodd" d="M35.7727 42.6279L32.459 54.6534L32.4425 54.7551C32.206 56.6581 34.2657 58.2259 36.023 57.4091H36.034L39.9664 55.4977L41.6907 57.1422L43.5882 55.1539L40.9922 52.6789C39.3642 50.9464 37.7885 48.8594 37.1835 46.9949L35.7727 42.6332V42.6279ZM36.4162 50.6412C36.9937 51.5625 37.4804 52.4919 38.1762 53.3086L35.2943 54.7112L36.4162 50.6412Z" fill="#14918F"/>
<path fill-rule="evenodd" clip-rule="evenodd" d="M35.9975 40.8925C35.8169 40.8954 35.6387 40.9335 35.473 41.0053C35.3072 41.0771 35.1573 41.1807 35.0316 41.3105C34.906 41.4402 34.8072 41.5937 34.7407 41.7616C34.6743 41.9296 34.6416 42.1088 34.6445 42.2893V46.7279L23.9552 52.7035C22.5344 53.4914 21.3493 54.6439 20.5222 56.0424C19.6951 57.4408 19.256 59.0348 19.25 60.6595V71.497H65.9835V60.4503C65.9778 58.8891 65.556 57.3576 64.7613 56.0138C63.9666 54.67 62.8279 53.5624 61.4625 52.8053L59.8868 51.9254L50.5918 46.7279V42.721C50.5918 42.3564 50.4469 42.0067 50.189 41.7489C49.9311 41.491 49.5814 41.346 49.2168 41.346C48.8521 41.346 48.5024 41.491 48.2445 41.7489C47.9866 42.0067 47.8418 42.3564 47.8418 42.721V48.3392L58.5448 54.326L60.1177 55.2061C61.0579 55.7226 61.8427 56.4814 62.3906 57.4036C62.9385 58.3258 63.2295 59.3777 63.2335 60.4503V68.747H22V60.6595C22 58.3687 23.2458 56.2539 25.3 55.1044L37.3945 48.3392V42.2893C37.3975 42.1051 37.3633 41.9221 37.2942 41.7512C37.225 41.5804 37.1223 41.4253 36.992 41.295C36.8617 41.1647 36.7064 41.0617 36.5356 40.9926C36.3648 40.9234 36.1818 40.8895 35.9975 40.8925Z" fill="#14918F"/>
<path d="M46.6321 16.9483H45.3533L45.2626 18.227C45.2489 18.447 45.1608 18.5955 44.8391 18.8127C44.5146 19.0327 43.9838 19.2032 43.5218 19.2307H38.5911C35.0931 19.2307 32.1836 21.9998 32.1836 25.4511V29.7604C32.1836 29.9501 32.189 29.9971 32.189 29.8101C32.189 29.8376 32.1836 29.8375 32.1836 29.8705V35.6867C32.1836 41.2857 36.8915 45.7847 42.6198 45.7847C48.348 45.7847 53.0561 41.2857 53.0561 35.6867V29.8705C53.0561 29.843 53.0505 29.843 53.0505 29.8265L53.0561 29.7715V23.3641L53.0396 23.2731C52.8086 21.5901 52.2641 20.0336 51.1916 18.8456C50.1191 17.6576 48.5048 16.9481 46.6321 16.9564V16.9483ZM47.1161 19.8826C47.9686 19.9871 48.689 20.1711 49.151 20.6799C49.7148 21.3041 50.1218 22.3134 50.3061 23.6142V29.7439L50.3005 29.8101C50.3005 29.8458 50.3033 29.8429 50.3061 29.8732V35.6786C50.3061 39.7459 46.9263 43.0266 42.6198 43.0266C38.3133 43.0266 34.9336 39.7459 34.9336 35.6786V29.8483C34.9336 29.8208 34.939 29.8209 34.939 29.8017C34.939 29.4799 34.9336 29.5926 34.9336 29.7466V25.4377C34.9336 23.5209 36.5148 21.9696 38.5911 21.9696H43.6951C44.6502 21.9191 45.5747 21.6155 46.3736 21.0898C46.7476 20.8368 46.8328 20.2648 47.1161 19.8688V19.8826Z" fill="#14918F"/>
<path fill-rule="evenodd" clip-rule="evenodd" d="M38.3079 26.6969C37.9972 26.6847 37.6917 26.7783 37.4409 26.9621C37.1902 27.1459 37.0092 27.4091 36.9274 27.709C36.9989 27.445 36.8477 27.8301 36.5617 28.1629C35.8732 28.9454 35.0834 29.6323 34.2132 30.2059C33.8584 30.4259 33.5146 30.4537 33.8281 30.4537C33.4635 30.4537 33.1137 30.5983 32.8559 30.8562C32.598 31.114 32.4531 31.464 32.4531 31.8287C32.4531 32.1933 32.598 32.543 32.8559 32.8008C33.1137 33.0587 33.4635 33.2037 33.8281 33.2037C34.6889 33.2037 35.1344 32.8737 35.6707 32.5437C36.2069 32.2082 36.7431 31.7928 37.2546 31.3446C37.7634 30.8991 38.2392 30.4261 38.6352 29.9696C39.3832 30.6021 40.0486 31.4627 40.9011 31.6937C42.3449 32.0842 43.7776 32.0374 45.0894 31.9824C46.4039 31.9302 47.6001 31.8727 48.4636 32.0267C49.3271 32.1835 49.7919 32.4171 50.2154 33.1348C50.3047 33.2951 50.4251 33.4358 50.5696 33.5488C50.7141 33.6618 50.8798 33.7448 51.0568 33.7928C51.2339 33.8408 51.4187 33.8529 51.6005 33.8284C51.7823 33.8039 51.9573 33.743 52.1153 33.6498C52.2733 33.5566 52.4111 33.4328 52.5205 33.2856C52.6298 33.1383 52.7086 32.9706 52.7522 32.7924C52.7958 32.6143 52.8033 32.4291 52.7742 32.2479C52.7452 32.0668 52.6803 31.8933 52.5831 31.7377C51.7361 30.3022 50.3061 29.5708 48.9531 29.3261C47.5974 29.0813 46.2472 29.1886 44.9767 29.2408C43.7117 29.2931 42.5291 29.2902 41.6161 29.0427C40.7004 28.7952 40.0376 28.3966 39.4354 27.3764C39.3189 27.1784 39.1547 27.0128 38.9578 26.8946C38.7608 26.7765 38.5374 26.7096 38.3079 26.6999V26.6969Z" fill="#14918F"/>
</g>
<defs>
<clipPath id="clip0_1044_2556">
<rect width="88" height="88" fill="white"/>
</clipPath>
</defs>
</svg>
