<svg width="69" height="70" viewBox="0 0 69 70" fill="none" xmlns="http://www.w3.org/2000/svg">
<path d="M63 67V12H47V67H42V33H26V67H21V51H5V67H0V70H69V67H63ZM50 15H60V67H50V15ZM29 36H39V67H29V36ZM8 54H18V67H8V54Z" fill="#14918F"/>
<path d="M1.9995 43.334C2.3835 43.334 2.7675 43.188 3.0605 42.895L40.9995 4.95697V11C40.9995 11.828 41.6715 12.5 42.4995 12.5C43.3275 12.5 43.9995 11.828 43.9995 11V1.5C43.9995 0.672 43.3275 0 42.4995 0H32.9995C32.1715 0 31.4995 0.672 31.4995 1.5C31.4995 2.328 32.1715 3 32.9995 3H38.7145L0.9395 40.773C0.3535 41.358 0.3535 42.308 0.9395 42.894C1.2315 43.188 1.6155 43.334 1.9995 43.334Z" fill="#14918F"/>
</svg>
