<svg width="75" height="75" viewBox="0 0 75 75" fill="none" xmlns="http://www.w3.org/2000/svg">
<g clip-path="url(#clip0_800_1644)">
<path d="M64.0137 2.40234C60.7471 3.70605 57.9346 4.92187 57.7588 5.09765C57.3779 5.44921 57.3193 6.09374 57.627 6.51855C57.7588 6.70898 59.8535 7.61718 63.4863 9.08202L69.1406 11.3379V23.2471V35.1562H68.3057H67.4707L56.8799 45.7324L46.2891 56.3086L43.9014 53.9355C41.7627 51.8262 41.4404 51.5625 41.001 51.5625C40.5615 51.5625 39.9463 52.1338 33.4424 58.623L26.3672 65.6836L21.9287 61.2598C17.8418 57.1875 17.4463 56.8359 16.9775 56.8359C16.5234 56.8359 15.9082 57.4072 8.24707 65.083L0 73.3154V74.165V75H1.17188C2.28516 75 2.34375 74.9854 2.34375 74.6631C2.34375 74.4287 4.33594 72.3486 9.66797 67.0166L16.9922 59.6924L21.4307 64.1309C25.5029 68.1885 25.9131 68.5547 26.3672 68.5547C26.8359 68.5547 27.3926 68.0273 33.9404 61.4941L41.0156 54.4336L43.418 56.8066C45.5566 58.916 45.8643 59.1797 46.3037 59.1797C46.7578 59.1797 47.5928 58.374 57.6416 48.3398L68.4814 37.5H71.748H75V36.3281V35.1562H73.2422H71.4844V18.0908C71.4844 3.39843 71.4551 0.952141 71.2646 0.600578C71.0742 0.20507 70.6641 -0.0146561 70.166 0.0146408C70.0488 0.0146408 67.2803 1.09863 64.0137 2.40234ZM69.1406 5.87402C69.1406 8.17382 69.0967 8.8037 68.9648 8.74511C63.7354 6.66503 61.9629 5.93261 61.9629 5.85937C61.9629 5.78613 68.7451 2.97363 69.0381 2.94433C69.0967 2.92968 69.1406 4.24804 69.1406 5.87402Z" fill="#14918F"/>
<path d="M25.7812 12.9932C23.1006 13.4473 20.9033 15.4102 20.1123 18.0762C19.79 19.1602 19.834 20.9766 20.2002 22.0459C20.376 22.5293 20.5225 22.9834 20.5518 23.042C20.5664 23.1152 20.1855 23.3057 19.7021 23.4961C16.2012 24.7852 12.7295 27.4951 10.3271 30.835C9.19922 32.3877 6.9873 36.709 5.05371 41.0889C2.97363 45.8057 2.00684 47.5928 0.65918 49.2188C0.292969 49.6582 0 50.1416 0 50.2734C0 50.6982 0.307617 51.2256 0.65918 51.416C1.11328 51.665 1.58203 51.5186 2.28516 50.9619C4.51172 49.1602 7.51465 49.1748 13.5205 50.9619C14.5752 51.2842 15.9082 51.6211 16.4648 51.7236C17.8711 51.958 20.3613 51.8262 21.4307 51.4453L22.2656 51.1523V55.0635V58.9893L22.6465 59.3848L23.042 59.7656H26.3525C28.7256 59.751 29.7363 59.707 29.8975 59.5752C30.4395 59.1504 30.4688 58.8867 30.4688 52.9834V47.2119L30.8057 46.9043C30.9814 46.7432 31.9482 46.1865 32.9443 45.6885C34.4385 44.9268 34.8486 44.6484 35.3174 44.0625C35.625 43.667 35.9619 43.0811 36.0498 42.7588L36.2256 42.1875H37.4561H38.6719V45.9082V49.6143L39.0527 50.0098L39.4482 50.3906H42.7588C45.8936 50.3906 46.0986 50.376 46.4062 50.0977C46.582 49.9365 46.7578 49.6436 46.8018 49.4678C46.8604 49.2773 46.875 46.7578 46.8457 43.8574C46.8018 38.833 46.7871 38.5693 46.4795 37.8076C45.8057 36.167 44.6777 35.0244 43.1104 34.3945C42.3047 34.0869 42.0264 34.0576 38.1299 34.0137L33.9844 33.9697V32.2266V30.498L37.5439 30.4395C40.8252 30.3955 41.1475 30.3662 41.9385 30.0439C43.5059 29.4287 44.6338 28.2861 45.3076 26.6455C45.6152 25.8838 45.6299 25.6494 45.6738 19.9951C45.7031 16.7871 45.6885 13.9893 45.6299 13.8135C45.5859 13.6377 45.4102 13.3447 45.2344 13.1836C44.9414 12.9053 44.7217 12.8906 42.1729 12.8906H39.4482L39.0527 13.2715L38.6719 13.667V18.5449V23.4375H35.8301H32.9883L33.3691 22.5146C33.8672 21.2988 33.9844 19.3213 33.6182 18.0762C32.6514 14.6777 29.165 12.4219 25.7812 12.9932ZM28.9746 15.7764C32.3438 17.4902 32.3145 22.3828 28.916 24.0967C28.1836 24.4775 27.8906 24.5361 26.8799 24.5361C25.4883 24.5361 24.6826 24.2285 23.7012 23.3203C21.0791 20.9033 22.0898 16.5674 25.5322 15.4395C26.4697 15.1318 27.9932 15.2783 28.9746 15.7764ZM43.3594 20.2441C43.3594 25.2246 43.3594 25.2686 43.0078 26.001C42.5977 26.8799 42.041 27.4219 41.1621 27.8174C40.5469 28.0957 40.21 28.125 36.46 28.125H32.417L32.0215 28.5059L31.6406 28.9014V32.2266V35.5518L32.0215 35.9473L32.417 36.3281H37.0459C41.6016 36.3281 41.6895 36.3428 42.4072 36.6797C43.2861 37.0898 43.8281 37.6465 44.2236 38.5254C44.502 39.1406 44.5312 39.4775 44.5312 43.6084V48.0469H42.7734H41.0156V44.4434C41.0156 40.7959 40.9717 40.4297 40.4443 40.0342C40.2686 39.9023 38.7744 39.8584 34.5557 39.8438H28.9014L28.5059 40.2246L28.125 40.6201V49.0137V57.4219H26.3672H24.6094V43.7256V30.0146L24.2432 29.6631C24.0234 29.4287 23.7305 29.2969 23.4229 29.2969C23.0127 29.2969 22.6611 29.5752 20.6836 31.5234C18.3105 33.8818 17.959 34.3799 18.1934 35.0098C18.2666 35.2148 19.0869 36.1377 20.0098 37.0605L21.6797 38.7451L20.7568 39.668L19.834 40.5762L17.7686 38.4961C16.2744 36.9727 15.6592 36.2402 15.5273 35.8301C15.249 34.9805 15.4102 33.5742 15.8643 32.8711C16.0693 32.5635 17.7246 30.8203 19.5264 29.0186L22.8369 25.7373L23.7744 26.1914C24.3311 26.4697 25.1953 26.7334 25.8398 26.8359L26.9531 27.0264V30.498V33.9844H28.125H29.2969V30.2637V26.5283L30.0439 26.1621L30.791 25.7812H35.4932C38.9648 25.7666 40.2686 25.7227 40.4443 25.5908C40.9863 25.1807 41.0156 24.873 41.0156 20.0098V15.2344H42.1875H43.3594V20.2441ZM16.3477 28.8574C14.4434 30.791 13.9746 31.3623 13.5791 32.1826C13.1543 33.0908 13.1104 33.2959 13.1104 34.6436C13.1104 35.9912 13.1543 36.1816 13.5938 37.1191C13.9893 37.9688 14.4434 38.5107 16.5234 40.6201C17.8711 41.9824 19.1602 43.1836 19.4092 43.2861C20.0098 43.5498 20.4199 43.3594 21.4307 42.3633L22.2656 41.543V45.0732V48.6035L21.5332 48.9111C19.6729 49.7168 17.5049 49.6875 14.6484 48.8379C10.4443 47.6074 8.90625 47.3145 6.50391 47.2852C5.5957 47.2852 4.83398 47.2559 4.83398 47.2266C4.83398 47.1826 5.02441 46.7871 5.25879 46.3184C5.49316 45.8643 6.28418 44.0918 7.03125 42.4072C8.80371 38.3789 10.7959 34.292 11.5723 33.1055C13.0957 30.7764 14.9414 28.8867 17.1826 27.3779C17.9004 26.9092 18.5156 26.5137 18.5596 26.5137C18.6182 26.5137 17.6221 27.5684 16.3477 28.8574ZM22.2656 34.6729V35.9473L21.6064 35.3027L20.9473 34.6582L21.5625 34.0283C21.8994 33.6768 22.1924 33.3984 22.2217 33.3984C22.251 33.3984 22.2656 33.9697 22.2656 34.6729ZM33.6914 42.3047C33.6914 42.5537 32.9883 43.0518 31.8311 43.6377C31.1572 43.9746 30.5859 44.2383 30.542 44.2383C30.498 44.2383 30.4688 43.7695 30.4688 43.2129V42.1875H32.0801C32.9736 42.1875 33.6914 42.2461 33.6914 42.3047Z" fill="#14918F"/>
</g>
<defs>
<clipPath id="clip0_800_1644">
<rect width="75" height="75" fill="white"/>
</clipPath>
</defs>
</svg>
