<svg width="47" height="79" viewBox="0 0 47 79" fill="none" xmlns="http://www.w3.org/2000/svg">
<path d="M29.3566 26.064H22.2286V23.688H24.6166C27.2636 23.688 28.9046 23.178 30.1746 21.906C31.2356 20.874 31.8176 19.57 31.8176 17.902C31.8176 15.785 30.9966 14.265 29.5916 13.313C28.4016 12.493 26.9466 11.808 24.6956 11.808H19.8525V21.312H17.4766V23.688H19.8525V26.064H17.4766V28.44H19.8525V32.004H22.2286V28.44H29.3566V26.064ZM22.2296 14.184H24.5916C26.1536 14.184 27.0786 14.606 27.8986 15.135C28.8266 15.744 29.2496 16.574 29.2496 17.87C29.2496 18.955 28.9596 19.757 28.1906 20.525C27.3696 21.293 26.2325 21.312 24.2205 21.312H22.2296V14.184Z" fill="#14918F"/>
<path d="M46.5099 44.177C46.5039 43.772 46.3339 43.386 46.0389 43.108C45.7439 42.83 45.3779 42.688 44.9429 42.701C44.5289 42.719 34.7139 43.223 28.5639 49.747C27.0129 51.393 25.8589 53.248 24.9999 55.11V42.165C36.2719 41.75 45.3209 32.475 45.3209 21.102C45.3209 9.46699 35.8549 0 24.2189 0C12.5829 0 3.11692 9.46599 3.11692 21.102C3.11692 31.988 11.4029 40.972 21.9989 42.085V55.499C21.1219 53.507 19.9279 51.507 18.2689 49.747C12.1179 43.224 2.30393 42.719 1.88993 42.701C1.46793 42.688 1.08992 42.83 0.79392 43.108C0.49892 43.386 0.328911 43.772 0.322911 44.177C0.316911 44.592 0.243895 54.417 6.3939 60.941C11.6399 66.503 19.5289 67.685 21.9979 67.925V77.335C21.9979 78.164 22.6699 78.835 23.4979 78.835C24.3259 78.835 24.9979 78.164 24.9979 77.335V67.908C27.6389 67.632 35.3029 66.384 40.4369 60.941C46.5889 54.418 46.5159 44.592 46.5099 44.177ZM8.57792 58.883C4.65792 54.725 3.66191 48.75 3.40891 45.88C6.25891 46.301 12.1659 47.647 16.0859 51.804C20.0049 55.961 20.9999 61.936 21.2519 64.805C18.4019 64.385 12.4979 63.039 8.57792 58.883ZM6.11789 21.103C6.11789 11.122 14.2379 3.00098 24.2199 3.00098C34.2019 3.00098 42.3219 11.121 42.3219 21.103C42.3219 31.085 34.2019 39.205 24.2199 39.205C14.2379 39.205 6.11789 31.084 6.11789 21.103ZM25.5789 64.807C25.8259 61.943 26.8129 55.979 30.7479 51.805C34.6679 47.647 40.5739 46.302 43.4249 45.881C43.1719 48.751 42.1759 54.726 38.2569 58.883C34.3349 63.041 28.4269 64.386 25.5789 64.807Z" fill="#14918F"/>
</svg>
