<svg width="84" height="84" viewBox="0 0 84 84" fill="none" xmlns="http://www.w3.org/2000/svg">
<path d="M11.8116 45.7538C13.1054 45.7604 14.3516 45.2666 15.2897 44.3756L15.6966 43.9819V70.875C15.6966 72.9636 16.5263 74.9666 18.0032 76.4435C19.48 77.9203 21.483 78.75 23.5716 78.75H60.3741C62.4627 78.75 64.4657 77.9203 65.9426 76.4435C67.4194 74.9666 68.2491 72.9636 68.2491 70.875V43.9819L68.656 44.3756C69.609 45.2793 70.8763 45.7764 72.1895 45.7617C73.5026 45.747 74.7585 45.2216 75.691 44.2969C76.1642 43.8245 76.5383 43.2625 76.7916 42.6438C77.0449 42.025 77.1722 41.362 77.1661 40.6934C77.16 40.0249 77.0206 39.3642 76.756 38.7502C76.4915 38.1362 76.1071 37.5812 75.6254 37.1175L42.9179 5.61752C42.6731 5.38095 42.3461 5.24872 42.0057 5.24872C41.6653 5.24872 41.3382 5.38095 41.0935 5.61752L8.386 37.1175C7.67165 37.8098 7.17875 38.6984 6.96969 39.671C6.76063 40.6435 6.84482 41.6562 7.21159 42.5809C7.57837 43.5055 8.21124 44.3006 9.0301 44.8654C9.84895 45.4302 10.817 45.7394 11.8116 45.7538ZM36.7491 76.125V59.0625H47.2491V76.125H36.7491ZM65.6241 70.875C65.6241 72.2674 65.071 73.6028 64.0864 74.5873C63.1019 75.5719 61.7665 76.125 60.3741 76.125H49.8741V57.75C49.8741 57.4019 49.7358 57.0681 49.4897 56.8219C49.2436 56.5758 48.9097 56.4375 48.5616 56.4375H35.4366C35.0885 56.4375 34.7547 56.5758 34.5085 56.8219C34.2624 57.0681 34.1241 57.4019 34.1241 57.75V76.125H23.6241C22.2317 76.125 20.8964 75.5719 19.9118 74.5873C18.9272 73.6028 18.3741 72.2674 18.3741 70.875V41.475L41.9991 18.8738L65.6241 41.475V70.875ZM10.1973 39.0075L41.9991 8.38689L73.801 39.0075C74.0304 39.2313 74.2127 39.4987 74.3372 39.794C74.4616 40.0892 74.5257 40.4064 74.5257 40.7269C74.5257 41.0473 74.4616 41.3645 74.3372 41.6598C74.2127 41.9551 74.0304 42.2225 73.801 42.4463C73.3505 42.8825 72.7481 43.1264 72.121 43.1264C71.4939 43.1264 70.8915 42.8825 70.441 42.4463L42.8785 16.0781C42.6344 15.8455 42.3101 15.7156 41.9729 15.7156C41.6356 15.7156 41.3113 15.8455 41.0673 16.0781L13.5048 42.4463C13.0543 42.8825 12.4518 43.1264 11.8248 43.1264C11.1977 43.1264 10.5952 42.8825 10.1448 42.4463C9.91736 42.2227 9.73676 41.9561 9.61348 41.6621C9.4902 41.368 9.4267 41.0523 9.4267 40.7335C9.4267 40.4146 9.4902 40.0989 9.61348 39.8048C9.73676 39.5108 9.91736 39.2442 10.1448 39.0206L10.1973 39.0075Z" fill="#14918F" stroke="#14918F"/>
</svg>
