<svg width="120" height="120" viewBox="0 0 120 120" fill="none" xmlns="http://www.w3.org/2000/svg">
<path d="M83.5679 36.4739C83.5189 36.4229 83.4829 36.362 83.4329 36.312C83.3799 36.259 83.3169 36.221 83.2629 36.17C76.1929 29.178 66.9949 25.3259 57.3389 25.3259C51.3509 25.3259 45.3499 26.858 39.9849 29.756C39.5679 29.981 39.2819 30.3899 39.2139 30.8589C39.1459 31.3279 39.3029 31.8009 39.6379 32.1359L63.2699 55.7669L38.3559 80.6809C36.5989 82.4379 33.8939 82.4889 32.1979 80.7929C31.3379 79.9319 30.8439 78.8139 30.8089 77.6469C30.7739 76.4899 31.2039 75.4049 32.0189 74.5899C32.6049 74.0039 32.6049 73.0539 32.0189 72.4679C31.4329 71.8819 30.4839 71.8829 29.8979 72.4679C28.4929 73.8729 27.7509 75.7439 27.8099 77.7359C27.8679 79.6719 28.6719 81.5099 30.0769 82.9139C31.4999 84.3359 33.3309 85.045 35.1759 85.045C37.0719 85.045 38.9839 84.2949 40.4779 82.8009L65.3919 57.8869L87.6099 80.1049C87.8929 80.389 88.2759 80.5439 88.6709 80.5439C88.7429 80.5439 88.8159 80.539 88.8879 80.528C89.3569 80.459 89.7659 80.1739 89.9909 79.7569C97.6909 65.5029 95.1049 48.1369 83.5679 36.4739ZM73.7129 61.9689L57.7769 46.032C67.9659 38.286 77.6529 35.0769 81.1879 38.3359C81.2249 38.3729 81.2639 38.4069 81.3009 38.4439C81.3449 38.4879 81.3819 38.5349 81.4259 38.5789C84.6539 42.1299 81.4449 51.7979 73.7129 61.9689ZM57.3399 28.3269C64.0469 28.3269 70.5179 30.356 76.0879 34.131C70.6299 34.547 63.4019 37.9159 55.6369 43.8929L43.2279 31.4849C47.6749 29.4139 52.5139 28.3269 57.3399 28.3269ZM88.2629 76.5179L75.8539 64.1089C81.8089 56.3719 85.1769 49.1689 85.6139 43.7179C92.1459 53.4569 93.2579 65.7889 88.2629 76.5179Z" fill="#14918F"/>
</svg>
