<svg width="75" height="75" viewBox="0 0 75 75" fill="none" xmlns="http://www.w3.org/2000/svg">
<g clip-path="url(#clip0_1060_2063)">
<path d="M29.9868 37.5C29.9868 38.986 30.4275 40.4386 31.253 41.6741C32.0786 42.9096 33.252 43.8726 34.6248 44.4413C35.9977 45.0099 37.5083 45.1587 38.9658 44.8688C40.4232 44.5789 41.7619 43.8634 42.8126 42.8126C43.8634 41.7619 44.5789 40.4232 44.8688 38.9658C45.1587 37.5083 45.0099 35.9977 44.4413 34.6248C43.8726 33.252 42.9096 32.0786 41.6741 31.253C40.4386 30.4275 38.986 29.9868 37.5 29.9868C35.5081 29.9891 33.5984 30.7815 32.19 32.1899C30.7815 33.5984 29.9891 35.5081 29.9868 37.5ZM42.8159 37.5C42.8159 38.5514 42.5042 39.5792 41.92 40.4534C41.3359 41.3276 40.5057 42.0089 39.5343 42.4113C38.563 42.8136 37.4941 42.9189 36.4629 42.7138C35.4317 42.5087 34.4845 42.0024 33.7411 41.2589C32.9976 40.5155 32.4913 39.5683 32.2862 38.5371C32.0811 37.5059 32.1864 36.437 32.5887 35.4657C32.9911 34.4943 33.6724 33.6641 34.5466 33.08C35.4208 32.4959 36.4486 32.1841 37.5 32.1841C38.9094 32.1856 40.2606 32.7462 41.2572 33.7428C42.2538 34.7394 42.8144 36.0906 42.8159 37.5ZM5.63966 69.6533H12.085C12.3763 69.6533 12.6558 69.5376 12.8618 69.3315C13.0679 69.1255 13.1836 68.8461 13.1836 68.5547V62.1094C13.1836 61.818 13.0679 61.5386 12.8618 61.3325C12.6558 61.1265 12.3763 61.0107 12.085 61.0107H5.63966C5.34828 61.0107 5.06884 61.1265 4.86281 61.3325C4.65677 61.5386 4.54102 61.818 4.54102 62.1094V68.5547C4.54102 68.8461 4.65677 69.1255 4.86281 69.3315C5.06884 69.5376 5.34828 69.6533 5.63966 69.6533ZM6.73829 63.208H10.9863V67.4561H6.73829V63.208ZM62.6221 69.6533H69.0674C69.3588 69.6533 69.6382 69.5376 69.8442 69.3315C70.0503 69.1255 70.166 68.8461 70.166 68.5547V62.1094C70.166 61.818 70.0503 61.5386 69.8442 61.3325C69.6382 61.1265 69.3588 61.0107 69.0674 61.0107H62.6221C62.3307 61.0107 62.0513 61.1265 61.8452 61.3325C61.6392 61.5386 61.5234 61.818 61.5234 62.1094V68.5547C61.5234 68.8461 61.6392 69.1255 61.8452 69.3315C62.0513 69.5376 62.3307 69.6533 62.6221 69.6533ZM63.7207 63.208H67.9688V67.4561H63.7207V63.208ZM75 44.3701C75.0007 44.3628 75.0007 44.3554 75 44.3481C74.9964 44.3088 74.9905 44.2696 74.9824 44.231L70.5879 23.7231C70.5359 23.4755 70.3998 23.2534 70.2028 23.0946C70.0058 22.9357 69.7599 22.8499 69.5068 22.8516H45.5039C45.4771 22.8501 45.4502 22.8501 45.4233 22.8516L44.4624 22.2656V14.6118C44.4646 14.5738 44.4646 14.5356 44.4624 14.4976C44.4624 14.4976 44.4624 14.4888 44.4624 14.4844C44.4624 14.4507 44.4536 14.417 44.4463 14.3848V14.3687C44.4463 14.3379 44.4316 14.3057 44.4214 14.2749C44.4194 14.2679 44.4169 14.2611 44.4141 14.2544C44.4038 14.2266 44.3936 14.1987 44.3818 14.1724L44.3687 14.1431L44.3335 14.0742L44.313 14.0405L44.2749 13.9819C44.2665 13.9691 44.2572 13.9569 44.2471 13.9453C44.2354 13.9277 44.2207 13.9116 44.2075 13.8955C44.1943 13.8794 44.1856 13.8721 44.1753 13.8604C44.165 13.8486 44.146 13.8296 44.1299 13.8149C44.1244 13.8087 44.1185 13.8029 44.1123 13.7974L38.5986 8.82422V7.4707H44.5313C44.8226 7.4707 45.1021 7.35495 45.3081 7.14892C45.5141 6.94289 45.6299 6.66345 45.6299 6.37207V1.09863C45.6299 0.807257 45.5141 0.527816 45.3081 0.321782C45.1021 0.115748 44.8226 0 44.5313 0L37.5 0C37.2086 0 36.9292 0.115748 36.7232 0.321782C36.5171 0.527816 36.4014 0.807257 36.4014 1.09863V8.82422L30.8994 13.7974L30.8818 13.8149L30.8364 13.8604C30.8262 13.8721 30.8145 13.8823 30.8042 13.8955C30.794 13.9087 30.7764 13.9277 30.7647 13.9453C30.7546 13.9569 30.7453 13.9691 30.7368 13.9819L30.6987 14.0405L30.6782 14.0742L30.6431 14.1431L30.6299 14.1724C30.6182 14.1987 30.6079 14.2266 30.5977 14.2544C30.5874 14.2822 30.5977 14.269 30.5977 14.2749C30.5874 14.3057 30.5801 14.3379 30.5728 14.3687V14.3848C30.5728 14.417 30.561 14.4507 30.5566 14.4844C30.5566 14.4844 30.5566 14.4932 30.5566 14.4976C30.5544 14.5356 30.5544 14.5738 30.5566 14.6118V22.2744L29.5898 22.8516H5.49317C5.24177 22.8514 4.99794 22.9376 4.80248 23.0957C4.60703 23.2539 4.4718 23.4743 4.41944 23.7202L0.0249111 44.228C0.0249111 44.25 0.0249111 44.2734 0.0146572 44.2969C0.00440332 44.3203 0.0146572 44.3262 0.0146572 44.3394C0.0139268 44.3506 0.0139268 44.3618 0.0146572 44.3731C0.0131995 44.3999 0.0131995 44.4268 0.0146572 44.4536H8.78987e-06V73.897C-0.00056979 74.0416 0.0274202 74.185 0.0823726 74.3187C0.137325 74.4526 0.218158 74.5742 0.320233 74.6767C0.422308 74.7791 0.543616 74.8605 0.677195 74.916C0.810775 74.9714 0.953996 75 1.09864 75H73.9014C74.1927 75 74.4722 74.8843 74.6782 74.6782C74.8843 74.4722 75 74.1927 75 73.9014V44.458C75 44.4287 75 44.3994 75 44.3701ZM38.5986 2.19727H43.4326V5.27344H38.5986V2.19727ZM68.6191 25.0488L72.542 43.3594H59.0332V39.5757L62.4126 41.6382C62.5785 41.7401 62.7686 41.796 62.9633 41.8002C63.1579 41.8044 63.3502 41.7567 63.5204 41.662C63.6905 41.5673 63.8324 41.429 63.9315 41.2614C64.0305 41.0937 64.0832 40.9027 64.084 40.708L64.125 34.8955V34.8882C64.1248 34.6998 64.0763 34.5147 63.9839 34.3505C63.8916 34.1863 63.7586 34.0486 63.5977 33.9507L49.0166 25.0488H68.6191ZM37.5 10.793L40.5103 13.5132H34.4897L37.5 10.793ZM32.7349 15.7104H42.2651V20.9282L40.3755 19.7754L38.0772 18.3721C37.9048 18.2664 37.7066 18.2105 37.5044 18.2105C37.3022 18.2105 37.104 18.2664 36.9316 18.3721L32.7349 20.9341V15.7104ZM37.5 20.5957L61.9277 35.502L61.9043 38.751L38.0772 24.208C37.9048 24.1031 37.7069 24.0476 37.5051 24.0476C37.3034 24.0476 37.1055 24.1031 36.9331 24.208L13.1045 38.751L13.0825 35.502L37.5 20.5957ZM15.9668 72.8027H2.19727V45.5566H15.9668V72.8027ZM15.9668 43.3594H2.45802L6.38087 25.0488H25.9922L11.398 33.9565C11.2151 34.0682 11.0688 34.2308 10.977 34.4244C10.8851 34.618 10.8517 34.8341 10.8809 35.0464L10.9204 40.708C10.922 40.9982 11.0384 41.276 11.2444 41.4806C11.4503 41.6851 11.7288 41.7997 12.0191 41.7993C12.2212 41.7999 12.4196 41.7441 12.5918 41.6382L15.9609 39.5874L15.9668 43.3594ZM20.8008 72.8027H18.1641V38.2397L20.8008 36.6284V72.8027ZM42.9199 72.8027H32.0801V55.916C32.0801 54.4786 32.6511 53.1 33.6675 52.0835C34.684 51.0671 36.0626 50.4961 37.5 50.4961C38.9375 50.4961 40.316 51.0671 41.3325 52.0835C42.3489 53.1 42.9199 54.4786 42.9199 55.916V72.8027ZM52.002 72.8027H45.1172V55.916C45.1172 53.8958 44.3147 51.9584 42.8862 50.5299C41.4577 49.1013 39.5202 48.2988 37.5 48.2988C35.4798 48.2988 33.5423 49.1013 32.1138 50.5299C30.6853 51.9584 29.8828 53.8958 29.8828 55.916V72.8027H22.9981V35.2896L37.5 26.4331L52.002 35.2837V72.8027ZM56.8359 72.8027H54.1992V36.6211L56.8359 38.2324V72.8027ZM72.8027 72.8027H59.0332V45.5566H72.8027V72.8027ZM5.63966 57.7881H12.085C12.3763 57.7881 12.6558 57.6723 12.8618 57.4663C13.0679 57.2603 13.1836 56.9808 13.1836 56.6895V50.2441C13.1836 49.9528 13.0679 49.6733 12.8618 49.4673C12.6558 49.2613 12.3763 49.1455 12.085 49.1455H5.63966C5.34828 49.1455 5.06884 49.2613 4.86281 49.4673C4.65677 49.6733 4.54102 49.9528 4.54102 50.2441V56.6895C4.54102 56.9808 4.65677 57.2603 4.86281 57.4663C5.06884 57.6723 5.34828 57.7881 5.63966 57.7881ZM6.73829 51.3428H10.9863V55.5908H6.73829V51.3428ZM36.4453 35.7217C36.317 35.6557 36.177 35.6156 36.0332 35.6038C35.8894 35.5919 35.7447 35.6085 35.6073 35.6526C35.3298 35.7416 35.0991 35.9372 34.9658 36.1963C34.8326 36.4554 34.8077 36.7569 34.8967 37.0343C34.9857 37.3118 35.1813 37.5425 35.4404 37.6758L36.9902 38.4727L37.0137 38.4829C37.0444 38.4976 37.0767 38.5137 37.1089 38.5254C37.1411 38.5371 37.1763 38.5474 37.21 38.5562L37.2334 38.5635C37.3178 38.5838 37.4044 38.5941 37.4912 38.5942H37.5059C37.5527 38.5942 37.5996 38.5942 37.6524 38.584L37.7183 38.5693C37.7461 38.5693 37.7754 38.5591 37.8032 38.5518L37.8691 38.5283L37.9497 38.4961L38.0083 38.4668C38.0374 38.4521 38.0658 38.436 38.0933 38.4185L38.1152 38.4053L40.4502 36.8262C40.5742 36.7474 40.6811 36.6445 40.7647 36.5237C40.8482 36.4028 40.9067 36.2664 40.9366 36.1226C40.9665 35.9788 40.9673 35.8304 40.9388 35.6862C40.9104 35.5421 40.8533 35.4051 40.771 35.2834C40.6887 35.1617 40.5828 35.0578 40.4596 34.9777C40.3364 34.8977 40.1984 34.8431 40.0538 34.8173C39.9092 34.7916 39.7608 34.795 39.6176 34.8276C39.4743 34.8601 39.339 34.9211 39.2197 35.0068L37.4238 36.2212L36.4453 35.7217ZM62.6221 57.7881H69.0674C69.3588 57.7881 69.6382 57.6723 69.8442 57.4663C70.0503 57.2603 70.166 56.9808 70.166 56.6895V50.2441C70.166 49.9528 70.0503 49.6733 69.8442 49.4673C69.6382 49.2613 69.3588 49.1455 69.0674 49.1455H62.6221C62.3307 49.1455 62.0513 49.2613 61.8452 49.4673C61.6392 49.6733 61.5234 49.9528 61.5234 50.2441V56.6895C61.5234 56.9808 61.6392 57.2603 61.8452 57.4663C62.0513 57.6723 62.3307 57.7881 62.6221 57.7881ZM63.7207 51.3428H67.9688V55.5908H63.7207V51.3428Z" fill="#14918F"/>
</g>
<defs>
<clipPath id="clip0_1060_2063">
<rect width="75" height="75" fill="white"/>
</clipPath>
</defs>
</svg>
