<svg width="100" height="100" viewBox="0 0 100 100" fill="none" xmlns="http://www.w3.org/2000/svg">
<path d="M72.9688 70.3125V33.125C72.9688 27.9688 68.75 23.75 63.5938 23.75H60.3125C60 23.5938 59.6875 23.4375 59.375 23.4375H57.8125V12.5H60.9375C61.875 12.5 62.5 11.875 62.5 10.9375C62.5 10 61.875 9.375 60.9375 9.375H39.0625C38.125 9.375 37.5 10 37.5 10.9375C37.5 11.875 38.125 12.5 39.0625 12.5H42.1875V23.4375H40.625C40.3125 23.4375 40 23.5938 39.6875 23.75H36.4062C31.25 23.75 27.0312 27.9688 27.0312 33.125V70.3125C27.0312 74.6875 28.9063 78.4375 32.0313 81.0938C31.0938 82.1875 30.625 83.5938 30.625 85C30.625 88.2812 33.2813 91.0938 36.7188 91.0938C40 91.0938 42.8125 88.4375 42.8125 85V84.5312H57.5V85C57.5 88.2812 60.1563 91.0938 63.5938 91.0938C67.0313 91.0938 69.6875 88.4375 69.6875 85C69.6875 83.5938 69.2188 82.1875 68.2813 81.0938C70.9375 78.4375 72.9688 74.5312 72.9688 70.3125ZM45.3125 12.5H54.6875V23.4375H45.3125V12.5ZM42.1875 26.875H57.8125V31.25H42.1875V26.875ZM36.7188 87.9688C35.1563 87.9688 33.75 86.7188 33.75 85C33.75 84.2188 34.0625 83.4375 34.6875 82.8125C36.25 83.5938 37.8125 84.0625 39.5312 84.375V85C39.6875 86.5625 38.2813 87.9688 36.7188 87.9688ZM63.2812 87.9688C61.7188 87.9688 60.3125 86.7188 60.3125 85V84.375C62.0312 84.2188 63.75 83.5938 65.1563 82.8125C65.7813 83.4375 66.0938 84.0625 66.0938 85C66.25 86.5625 65 87.9688 63.2812 87.9688ZM58.75 81.25H41.25C35.1562 81.25 30.1562 76.25 30.1562 70.1563V33.125C30.1562 29.6875 32.9688 26.875 36.4062 26.875H39.0625V32.8125C39.0625 33.75 39.6875 34.375 40.625 34.375H59.375C60.3125 34.375 60.9375 33.75 60.9375 32.8125V26.875H63.5938C67.0313 26.875 69.8438 29.6875 69.8438 33.125V70.3125C69.8438 76.4062 64.8438 81.25 58.75 81.25Z" fill="#14918F" stroke="#14918F"/>
<path d="M40.625 46.875C39.6875 46.875 39.0625 47.5 39.0625 48.4375V70.3125C39.0625 71.25 39.6875 71.875 40.625 71.875C41.5625 71.875 42.1875 71.25 42.1875 70.3125V48.4375C42.1875 47.5 41.5625 46.875 40.625 46.875ZM50 46.875C49.0625 46.875 48.4375 47.5 48.4375 48.4375V70.3125C48.4375 71.25 49.0625 71.875 50 71.875C50.9375 71.875 51.5625 71.25 51.5625 70.3125V48.4375C51.5625 47.5 50.9375 46.875 50 46.875ZM60.9375 46.875C60 46.875 59.375 47.5 59.375 48.4375V70.3125C59.375 71.25 60 71.875 60.9375 71.875C61.875 71.875 62.5 71.25 62.5 70.3125V48.4375C62.5 47.5 61.875 46.875 60.9375 46.875Z" fill="#14918F" stroke="#14918F"/>
</svg>
