<svg width="68" height="71" viewBox="0 0 68 71" fill="none" xmlns="http://www.w3.org/2000/svg">
<path d="M44.114 51.5049C42.924 50.6849 41.469 49.9999 39.218 49.9999H34.375V59.5039H32V61.8799H34.376V64.256H32V66.6319H34.376V70.196H36.752V66.6319H43.88V64.256H36.752V61.8799H39.14C41.787 61.8799 43.428 61.3699 44.698 60.0979C45.759 59.0659 46.341 57.7619 46.341 56.0939C46.34 53.9769 45.519 52.4569 44.114 51.5049ZM42.713 58.7169C41.892 59.4849 40.755 59.5039 38.743 59.5039H36.752V52.3759H39.114C40.676 52.3759 41.601 52.7979 42.421 53.3269C43.349 53.9359 43.772 54.766 43.772 56.062C43.771 57.147 43.481 57.9489 42.713 58.7169Z" fill="#008F8E"/>
<path d="M56.5679 11.4739C56.5189 11.4229 56.4829 11.362 56.4329 11.312C56.3799 11.259 56.3169 11.221 56.2629 11.17C49.1929 4.17795 39.9949 0.325928 30.3389 0.325928C24.3509 0.325928 18.3499 1.85795 12.9849 4.75595C12.5679 4.98095 12.2819 5.38995 12.2139 5.85895C12.1459 6.32795 12.3029 6.80093 12.6379 7.13593L36.2699 30.7669L11.3559 55.6809C9.5989 57.4379 6.89391 57.4889 5.19791 55.7929C4.33791 54.9319 3.8439 53.8139 3.8089 52.6469C3.7739 51.4899 4.20392 50.4049 5.01892 49.5899C5.60492 49.0039 5.60492 48.0539 5.01892 47.4679C4.43292 46.8819 3.48392 46.8829 2.89792 47.4679C1.49292 48.8729 0.750907 50.7439 0.809907 52.7359C0.867907 54.6719 1.67191 56.5099 3.07691 57.9139C4.49991 59.3359 6.3309 60.045 8.1759 60.045C10.0719 60.045 11.9839 59.2949 13.4779 57.8009L38.3919 32.8869L60.6099 55.1049C60.8929 55.389 61.2759 55.5439 61.6709 55.5439C61.7429 55.5439 61.8159 55.539 61.8879 55.528C62.3569 55.459 62.7659 55.1739 62.9909 54.7569C70.6909 40.5029 68.1049 23.1369 56.5679 11.4739ZM46.7129 36.9689L30.7769 21.032C40.9659 13.286 50.6529 10.0769 54.1879 13.3359C54.2249 13.3729 54.2639 13.4069 54.3009 13.4439C54.3449 13.4879 54.3819 13.5349 54.4259 13.5789C57.6539 17.1299 54.4449 26.7979 46.7129 36.9689ZM30.3399 3.32693C37.0469 3.32693 43.5179 5.35595 49.0879 9.13095C43.6299 9.54695 36.4019 12.9159 28.6369 18.8929L16.2279 6.48492C20.6749 4.41392 25.5139 3.32693 30.3399 3.32693ZM61.2629 51.5179L48.8539 39.1089C54.8089 31.3719 58.1769 24.1689 58.6139 18.7179C65.1459 28.4569 66.2579 40.7889 61.2629 51.5179Z" fill="#008F8E"/>
</svg>
