<svg width="91" height="91" viewBox="0 0 91 91" fill="none" xmlns="http://www.w3.org/2000/svg">
<path d="M14.4612 54.0312C14.2348 54.0312 14.0116 53.9776 13.8099 53.8747L2.97241 48.2925C2.63827 48.1205 2.38579 47.8233 2.27016 47.4657C2.15453 47.1082 2.18514 46.7194 2.35531 46.3843L15.0868 21.237C15.1713 21.07 15.288 20.9214 15.43 20.7996C15.5721 20.6778 15.7369 20.5853 15.9148 20.5273C16.0928 20.4693 16.2804 20.447 16.467 20.4617C16.6535 20.4763 16.8354 20.5277 17.002 20.6128L27.3121 25.8738C27.6431 26.0422 27.895 26.3335 28.0141 26.6853C28.1331 27.0371 28.1098 27.4215 27.9491 27.7563L15.7437 53.2193C15.6612 53.3905 15.5454 53.5436 15.4031 53.6695C15.2607 53.7955 15.0947 53.8919 14.9147 53.9529C14.7686 54.0028 14.6155 54.0292 14.4612 54.0312ZM5.53036 46.4099L13.8114 50.6755L24.7854 27.7833L16.9793 23.8021L5.53036 46.4099Z" fill="#14918F"/>
<path d="M29.1913 34.2444C28.9467 34.2443 28.7063 34.1811 28.4932 34.061L24.3612 31.7333C24.1985 31.6418 24.0554 31.519 23.9401 31.3721C23.8248 31.2252 23.7396 31.0571 23.6893 30.8772C23.639 30.6974 23.6246 30.5094 23.6469 30.324C23.6693 30.1387 23.7279 29.9595 23.8195 29.7968C23.9111 29.634 24.0338 29.4909 24.1807 29.3756C24.3276 29.2603 24.4958 29.1751 24.6756 29.1248C24.8554 29.0745 25.0434 29.0601 25.2288 29.0824C25.4142 29.1048 25.5934 29.1634 25.7561 29.255L29.1686 31.176C30.5009 30.3683 33.3845 28.6294 35.2301 27.5872C38.243 25.8809 40.3644 26.1155 42.8001 28.4232C43.0668 28.6841 43.2202 29.0394 43.2273 29.4124C43.2344 29.7854 43.0946 30.1463 42.8381 30.4172C42.5816 30.6881 42.2289 30.8473 41.856 30.8605C41.4832 30.8737 41.1201 30.7398 40.845 30.4878C39.3322 29.0545 38.5444 28.9806 36.6292 30.0612C34.2575 31.4021 29.9791 34.0098 29.935 34.0425C29.7104 34.1769 29.4531 34.2468 29.1913 34.2444Z" fill="#14918F"/>
<path d="M66.5965 58.9836C65.5604 59.0102 64.5383 58.7403 63.6504 58.2058C62.3423 57.3328 56.5865 51.6879 55.4462 50.5661C55.1948 50.2985 55.0566 49.944 55.0607 49.5769C55.0647 49.2097 55.2106 48.8584 55.4678 48.5964C55.7251 48.3344 56.0737 48.182 56.4407 48.1712C56.8077 48.1604 57.1646 48.292 57.4368 48.5385C59.9962 51.0651 64.3869 55.281 65.2244 55.8398C65.7642 56.0892 66.3612 56.1886 66.9527 56.1276C67.5441 56.0665 68.1083 55.8473 68.5857 55.4929C68.8093 55.299 68.9876 55.0584 69.108 54.788C69.2284 54.5177 69.288 54.2242 69.2826 53.9283C69.2772 53.6324 69.2068 53.3413 69.0766 53.0756C68.9464 52.8098 68.7594 52.5759 68.5288 52.3903C67.0757 50.7552 61.0384 44.9468 59.7132 43.6728C55.0892 41.9779 50.6051 39.9231 46.3021 37.5275L44.8063 38.5057C44.4704 40.0647 43.5745 41.4463 42.2881 42.3889C41.8366 42.7445 41.3125 42.9966 40.7528 43.1274C40.193 43.2581 39.6114 43.2642 39.0491 43.1453C38.3667 43.0603 37.7096 42.8337 37.1198 42.4802C36.53 42.1266 36.0204 41.6539 35.6238 41.0921C34.8677 39.4766 34.7828 37.6272 35.3878 35.9492C36.6006 31.0949 38.5685 29.8451 41.2914 28.1161L41.89 27.7336C44.8902 25.807 47.4652 24.7804 50.2919 26.0529C52.0493 26.8449 58.2871 29.2607 60.0587 29.946L65.9965 27.9995C66.3522 27.8913 66.7361 27.9268 67.066 28.0982C67.3958 28.2697 67.6454 28.5636 67.7613 28.9168C67.8771 29.2701 67.85 29.6547 67.6857 29.9882C67.5214 30.3217 67.233 30.5776 66.8823 30.7011L60.4625 32.8054C60.1517 32.9068 59.8155 32.8988 59.5099 32.7827C59.1729 32.6519 51.2417 29.6005 49.1302 28.6479C47.8633 28.0791 46.5253 28.1374 43.4313 30.1252L42.8199 30.5162C40.3359 32.0931 39.0889 32.8865 38.1505 36.6388C37.6699 38.5612 37.8917 39.3404 38.0666 39.6247C38.2912 40.0001 38.8117 40.1523 39.6406 40.3598C39.8185 40.3898 40.0009 40.3799 40.1745 40.3307C40.3482 40.2815 40.5087 40.1943 40.6444 40.0755C41.0455 39.7733 41.3804 39.3923 41.6287 38.9558C41.8769 38.5193 42.0331 38.0366 42.0877 37.5374C42.1062 37.3231 42.1732 37.1157 42.2835 36.931C42.3939 36.7463 42.5447 36.589 42.7247 36.471L45.4618 34.6809C45.6775 34.5406 45.9273 34.4614 46.1844 34.4519C46.4416 34.4424 46.6965 34.5029 46.922 34.6269C47.0187 34.6795 56.605 39.9219 60.8038 41.0253C61.0372 41.0876 61.2513 41.2074 61.4266 41.3736C61.7337 41.668 68.9625 48.5897 70.6602 50.5049C71.1306 50.9603 71.5037 51.5064 71.7567 52.1103C72.0097 52.7141 72.1374 53.3631 72.1321 54.0178C72.1268 54.6725 71.9885 55.3192 71.7257 55.9189C71.463 56.5186 71.0811 57.0586 70.6034 57.5062C69.5093 58.4988 68.073 59.0283 66.5965 58.9836Z" fill="#14918F"/>
<path d="M69.5966 52.8681C69.2708 52.8679 68.955 52.7558 68.7019 52.5505C68.4489 52.3453 68.274 52.0593 68.2066 51.7406C68.1391 51.4218 68.1832 51.0896 68.3314 50.7994C68.4796 50.5093 68.723 50.2788 69.0208 50.1466L74.0087 47.937C74.1802 47.8561 74.3661 47.8102 74.5555 47.8022C74.7449 47.7941 74.9341 47.8241 75.1118 47.8902C75.2895 47.9563 75.4521 48.0573 75.5902 48.1872C75.7283 48.3172 75.839 48.4734 75.9158 48.6468C75.9926 48.8201 76.034 49.0071 76.0375 49.1966C76.041 49.3862 76.0065 49.5746 75.9361 49.7506C75.8658 49.9267 75.7609 50.0869 75.6277 50.2218C75.4944 50.3567 75.3356 50.4636 75.1604 50.5362L70.1711 52.7515C69.9898 52.8299 69.7941 52.8696 69.5966 52.8681Z" fill="#14918F"/>
<path d="M76.12 54.0312C75.8367 54.0311 75.5598 53.9463 75.3249 53.7877C75.0901 53.6291 74.908 53.4039 74.802 53.1411L64.0697 26.5151C63.9979 26.3375 63.9628 26.1473 63.9664 25.9558C63.97 25.7643 64.0122 25.5755 64.0906 25.4008C64.1689 25.226 64.2818 25.0689 64.4223 24.9389C64.5629 24.8088 64.7283 24.7085 64.9086 24.6439L76.3774 20.5403C76.7244 20.4162 77.1059 20.4317 77.4417 20.5834C77.7775 20.7351 78.0413 21.0113 78.1775 21.3537L88.6994 47.7636C88.7682 47.9382 88.8018 48.1247 88.7982 48.3123C88.7946 48.5 88.7539 48.685 88.6784 48.8569C88.603 49.0287 88.4942 49.1839 88.3584 49.3135C88.2227 49.4431 88.0626 49.5446 87.8875 49.612L76.6291 53.9317C76.4669 53.9958 76.2944 54.0295 76.12 54.0312ZM67.2561 26.8222L76.912 50.7765L85.5201 47.4778L76.0433 23.6798L67.2561 26.8222ZM60.1922 63.2961C59.0201 63.3313 57.8754 62.9374 56.9731 62.1885C55.0692 60.4965 50.1751 55.6052 49.9675 55.3976C49.7085 55.1294 49.5652 54.7703 49.5684 54.3975C49.5717 54.0247 49.7212 53.668 49.9848 53.4044C50.2484 53.1408 50.6051 52.9912 50.9779 52.988C51.3507 52.9848 51.7099 53.1281 51.978 53.3871C52.0278 53.4368 57.0214 58.4276 58.8613 60.0699C59.2427 60.3022 59.6745 60.4391 60.1201 60.4688C60.5657 60.4985 61.0119 60.4202 61.4207 60.2405C62.0884 60.0128 62.6807 59.606 63.133 59.0647C63.5853 58.5234 63.8803 57.8682 63.9858 57.1707C64.0175 56.9867 64.0852 56.8107 64.1849 56.6529C64.2847 56.495 64.4145 56.3583 64.5671 56.2507C64.7197 56.143 64.8919 56.0664 65.0741 56.0253C65.2563 55.9842 65.4447 55.9794 65.6287 56.0112C65.8128 56.0429 65.9887 56.1106 66.1466 56.2103C66.3044 56.3101 66.4411 56.4399 66.5488 56.5925C66.6565 56.7451 66.733 56.9173 66.7741 57.0995C66.8152 57.2816 66.82 57.4701 66.7883 57.6541C66.595 58.8486 66.0818 59.9685 65.3032 60.8948C64.5246 61.8211 63.5097 62.5192 62.3662 62.9151C61.668 63.1629 60.9331 63.2917 60.1922 63.2961Z" fill="#14918F"/>
<path d="M53.5748 66.7427C52.4051 66.7926 51.2621 66.3846 50.3884 65.6052L45.3379 60.5547L47.3498 58.5428L52.4003 63.5933C52.7129 63.7688 53.0588 63.8767 53.4156 63.91C53.7725 63.9433 54.1324 63.9013 54.472 63.7867C55.1243 63.6265 55.7215 63.2941 56.2013 62.8241C56.681 62.3541 57.0257 61.7638 57.1992 61.115C57.2518 60.934 57.3398 60.7652 57.4582 60.6186C57.5766 60.4719 57.7229 60.3502 57.8887 60.2607C58.0546 60.1711 58.2365 60.1153 58.4241 60.0967C58.6117 60.0781 58.801 60.0969 58.9812 60.1522C59.1615 60.2074 59.3289 60.2979 59.4738 60.4184C59.6187 60.5389 59.7382 60.6871 59.8253 60.8542C59.9125 61.0213 59.9655 61.2041 59.9814 61.3919C59.9973 61.5797 59.9757 61.7688 59.9178 61.9482C59.5222 63.3261 58.6902 64.5385 57.5466 65.4031C56.4031 66.2676 55.0084 66.7377 53.5748 66.7427Z" fill="#14918F"/>
<path d="M48.1537 70.5406C46.9913 70.5653 45.8546 70.1971 44.9275 69.4955C43.6466 68.47 42.3598 67.4519 41.0671 66.4413C40.9168 66.3275 40.7908 66.1849 40.6961 66.0219C40.6015 65.8589 40.5402 65.6787 40.5158 65.4918C40.4915 65.3049 40.5045 65.115 40.5542 64.9332C40.6039 64.7514 40.6892 64.5813 40.8052 64.4327C40.9212 64.2842 41.0656 64.1602 41.23 64.068C41.3944 63.9758 41.5755 63.9171 41.7627 63.8955C41.9499 63.8739 42.1396 63.8897 42.3207 63.942C42.5017 63.9944 42.6706 64.0822 42.8174 64.2004C42.8174 64.2004 44.5933 65.5867 46.7048 67.2759C47.1547 67.5437 47.6663 67.6901 48.1897 67.7008C48.7131 67.7115 49.2303 67.5862 49.6907 67.3371C50.1024 67.1601 50.4508 66.8625 50.6899 66.4835C50.929 66.1045 51.0476 65.662 51.0302 65.2142C51.0187 64.8373 51.1574 64.4713 51.4158 64.1966C51.6741 63.922 52.031 63.7612 52.408 63.7497C52.7838 63.743 53.1473 63.8836 53.4209 64.1412C53.6945 64.3989 53.8566 64.7534 53.8725 65.1289C53.906 66.1193 53.6479 67.0978 53.1302 67.9428C52.6125 68.7878 51.8581 69.4622 50.9605 69.8822C50.0878 70.3142 49.1274 70.5395 48.1537 70.5406Z" fill="#14918F"/>
<path d="M37.4978 69.8822C37.0357 69.8806 36.5783 69.7888 36.1513 69.6121C34.9919 69.0431 34.0361 68.1306 33.4142 66.9987C32.4051 67.1945 31.3594 67.0373 30.4524 66.5536C29.6916 66.0549 29.0376 65.4099 28.5284 64.6561C28.0192 63.9024 27.665 63.0548 27.4864 62.1629C27.4114 61.7997 27.4813 61.4216 27.6812 61.1093C28.8372 59.3063 30.5804 56.5038 30.8406 55.9194C31.0747 55.4532 31.4068 55.0431 31.8142 54.7172C32.2216 54.3912 32.6946 54.1572 33.2009 54.0312C33.8895 53.8507 34.6098 53.8265 35.309 53.9603C36.0082 54.0942 36.6686 54.3826 37.2419 54.8047C37.8772 55.2252 38.3874 55.8093 38.7187 56.4955C39.05 57.1816 39.1902 57.9444 39.1244 58.7034C39.8007 58.7326 40.4629 58.9064 41.0663 59.2133C41.6697 59.5201 42.2003 59.9528 42.6222 60.4822C43.0321 61.1226 43.2936 61.8466 43.3879 62.601C43.4821 63.3555 43.4066 64.1215 43.1668 64.8431C42.421 66.9246 40.8899 68.6314 38.9012 69.5978C38.4571 69.7856 37.9799 69.8823 37.4978 69.8822ZM35.8086 65.4446C36.2551 66.1996 37.0527 67.283 37.7992 66.9716C39.0386 66.3261 39.9927 65.2417 40.4752 63.9303C40.5701 63.64 40.6065 63.3338 40.582 63.0294C40.5576 62.7251 40.473 62.4286 40.333 62.1572C40.1167 61.9453 39.8599 61.7792 39.578 61.6688C39.2961 61.5584 38.9948 61.5059 38.6922 61.5145L35.8086 65.4446ZM30.4183 62.1031C30.6445 62.8932 31.1349 63.5818 31.8075 64.054C32.0174 64.1617 32.2473 64.2252 32.4828 64.2407C32.7183 64.2561 32.9545 64.223 33.1767 64.1435L36.2124 58.9395C36.3331 58.6179 36.3408 58.2648 36.2344 57.9382C36.1279 57.6116 35.9136 57.3309 35.6266 57.1422C35.4083 56.9701 35.1563 56.8456 34.8869 56.7768C34.6175 56.708 34.3367 56.6964 34.0625 56.7427C33.8205 56.7826 33.5996 56.9046 33.4369 57.0882C33.0615 57.92 31.2558 60.7865 30.4183 62.1031Z" fill="#14918F"/>
<path d="M26.6311 64.3241C26.2942 64.3251 25.9589 64.2772 25.6358 64.1819C23.2001 63.4497 22.246 60.2959 22.1451 59.939C22.0941 59.758 22.0795 59.5686 22.1022 59.3819C22.1249 59.1952 22.1844 59.0149 22.2773 58.8513C23.4858 56.752 24.8226 54.7291 26.2799 52.7941C27.0115 51.8424 28.0715 51.1975 29.253 50.9853C30.4346 50.7731 31.6528 51.0089 32.6698 51.6467C34.012 52.578 34.996 54.6042 33.3494 57.2517C33.2509 57.4104 33.1221 57.5482 32.9704 57.6571C32.8187 57.7661 32.647 57.8441 32.4651 57.8866C32.2832 57.9292 32.0947 57.9356 31.9104 57.9053C31.7261 57.875 31.5495 57.8088 31.3908 57.7103C31.2321 57.6118 31.0943 57.483 30.9854 57.3312C30.8764 57.1795 30.7985 57.0078 30.7559 56.8259C30.7133 56.644 30.707 56.4556 30.7372 56.2712C30.7675 56.0869 30.8337 55.9103 30.9322 55.7516C31.2977 55.1616 31.6147 54.3781 31.0474 53.9842C30.6328 53.7578 30.1505 53.688 29.6887 53.7877C29.2269 53.8874 28.8164 54.15 28.5321 54.5274C27.283 56.1871 26.1272 57.915 25.0699 59.703C25.3812 60.4467 25.9116 61.2984 26.4533 61.459C26.9325 61.6012 27.5908 61.1093 27.9477 60.805C28.2332 60.5583 28.6049 60.4352 28.9812 60.4627C29.3574 60.4902 29.7074 60.666 29.954 60.9514C30.2006 61.2369 30.3237 61.6086 30.2963 61.9849C30.2688 62.3611 30.093 62.7111 29.8075 62.9577C28.9526 63.7881 27.8218 64.2745 26.6311 64.3241Z" fill="#14918F"/>
<path d="M23.5097 60.97C23.3535 60.9698 23.1983 60.9438 23.0505 60.8932C22.8102 60.8121 17.1426 58.8315 17.1426 54.3924C17.1424 54.2433 17.1655 54.095 17.2108 53.953C17.7253 52.5371 18.4299 51.1978 19.3053 49.9717C19.9567 49.1933 20.8564 48.6632 21.8529 48.4705C22.8495 48.2778 23.882 48.4344 24.7766 48.9139C25.6188 49.2871 26.2904 49.9624 26.6589 50.8066C27.0275 51.6508 27.0661 52.6025 26.7673 53.4738C25.8373 56.4683 24.8833 59.8907 24.8733 59.9263C24.7898 60.2253 24.6108 60.4887 24.3635 60.6764C24.1163 60.864 23.8144 60.9656 23.504 60.9657L23.5097 60.97ZM19.9977 54.6127C20.1399 55.9436 21.502 56.956 22.594 57.5631C22.9652 56.2664 23.5154 54.3796 24.0557 52.6349C24.1053 52.5241 24.1307 52.404 24.1301 52.2825C24.1296 52.1611 24.1031 52.0412 24.0525 51.9309C24.0019 51.8205 23.9283 51.7222 23.8367 51.6425C23.745 51.5629 23.6375 51.5037 23.5211 51.469C23.2273 51.3033 22.8911 51.2283 22.5547 51.2536C22.2184 51.2789 21.8971 51.4034 21.6314 51.6112C20.9722 52.5449 20.4239 53.5522 19.9977 54.6127Z" fill="#14918F"/>
<path d="M19.7325 53.3615C19.4463 53.3611 19.1668 53.2744 18.9306 53.1126L15.201 50.5533C14.8897 50.3402 14.6758 50.0122 14.6064 49.6414C14.5369 49.2706 14.6176 48.8875 14.8306 48.5762C15.0437 48.2649 15.3717 48.0509 15.7425 47.9815C16.1133 47.912 16.4965 47.9927 16.8078 48.2058L20.5373 50.7651C20.7885 50.9366 20.9782 51.184 21.0784 51.4712C21.1786 51.7584 21.184 52.0701 21.094 52.3606C21.0039 52.6511 20.8231 52.9051 20.5781 53.0852C20.333 53.2654 20.0367 53.3622 19.7325 53.3615Z" fill="#14918F"/>
</svg>
