<svg width="76" height="76" viewBox="0 0 76 76" fill="none" xmlns="http://www.w3.org/2000/svg">
<path d="M44.3083 44.308C52.7443 35.872 52.7443 22.04 44.3083 13.604C35.8723 5.16801 22.0403 5.09201 13.6043 13.604C5.16834 22.116 5.16834 35.872 13.6043 44.308C17.8603 48.564 23.4083 50.692 28.9563 50.692C34.5043 50.692 40.0523 48.564 44.3083 44.308ZM14.6683 43.244C6.84034 35.34 6.84034 22.572 14.6683 14.668C18.6203 10.716 23.7883 8.74001 28.9563 8.74001C34.1243 8.74001 39.2923 10.716 43.2443 14.668C51.1483 22.572 51.1483 35.34 43.2443 43.244C35.3403 51.072 22.5723 51.072 14.6683 43.244Z" fill="#14918F" stroke="#14918F"/>
<path d="M71.4395 59.356L59.5075 49.248C59.8875 48.716 60.1155 48.108 60.1155 47.5C60.1155 46.74 59.8115 46.056 59.2795 45.524C58.7475 44.992 58.0635 44.688 57.3035 44.688C56.5435 44.688 55.8595 44.992 55.3275 45.524L54.3395 46.512L51.9075 44.08C59.0515 33.212 57.6075 18.848 48.4115 9.576C37.6955 -1.14 20.2915 -1.14 9.57553 9.576C4.40753 14.744 1.51953 21.66 1.51953 28.956C1.51953 36.252 4.40753 43.168 9.57553 48.336C14.8955 53.656 21.8875 56.392 29.0315 56.392C34.1995 56.392 39.4435 54.872 44.0035 51.908L46.4355 54.34L45.4475 55.328C44.9155 55.86 44.6115 56.544 44.6115 57.304C44.6115 58.064 44.9155 58.748 45.4475 59.28C45.9795 59.812 46.6635 60.116 47.4235 60.116C48.1075 60.116 48.7915 59.888 49.2475 59.432L59.3555 71.44C60.8755 73.264 63.1555 74.404 65.5875 74.48H65.9675C68.2475 74.48 70.4515 73.568 72.0475 71.972C73.7195 70.3 74.6315 67.944 74.5555 65.512C74.4035 63.156 73.2635 60.876 71.4395 59.356ZM10.6395 47.272C5.77553 42.408 3.03953 35.872 3.03953 28.956C3.03953 22.04 5.77553 15.504 10.6395 10.64C15.6555 5.548 22.3435 3.04 28.9555 3.04C35.5675 3.04 42.2555 5.548 47.2715 10.64C56.1635 19.532 57.3795 33.44 50.2355 43.7C49.3235 44.992 48.3355 46.208 47.2715 47.272C46.1315 48.412 44.9155 49.4 43.6235 50.312C33.3635 57.38 19.4555 56.088 10.6395 47.272ZM45.2195 51.072L45.2955 50.996L46.6635 49.856C46.7395 49.78 46.8155 49.704 46.9675 49.628C47.4235 49.248 47.8795 48.792 48.3355 48.336C48.7915 47.88 49.1715 47.5 49.5515 47.044C49.6275 46.968 49.7035 46.892 49.7795 46.74C50.1595 46.284 50.5395 45.828 50.8435 45.372L50.9195 45.296L53.1235 47.5L47.3475 53.276L45.2195 51.072ZM47.4235 58.672C47.0435 58.672 46.7395 58.52 46.5115 58.292C46.2835 58.064 46.1315 57.684 46.1315 57.38C46.1315 57 46.2835 56.696 46.5115 56.468L48.0315 54.948L54.8715 48.108L56.3915 46.588C56.6195 46.36 56.9995 46.208 57.3035 46.208C57.6835 46.208 57.9875 46.36 58.2155 46.588C58.4435 46.816 58.5955 47.196 58.5955 47.5C58.5955 47.88 58.4435 48.184 58.2155 48.412L48.3355 58.292C48.1075 58.52 47.8035 58.672 47.4235 58.672ZM70.9075 70.908C69.4635 72.352 67.6395 73.036 65.6635 72.96C63.6875 72.884 61.8635 71.972 60.5715 70.452L50.3875 58.444L58.4435 50.388L70.4515 60.496C71.9715 61.788 72.8835 63.612 72.9595 65.588C73.0355 67.564 72.2755 69.464 70.9075 70.908Z" fill="#14918F" stroke="#14918F"/>
</svg>
