<svg width="70" height="70" viewBox="0 0 70 70" fill="none" xmlns="http://www.w3.org/2000/svg">
<g clip-path="url(#clip0_800_1619)">
<path d="M24.9376 0.300774C24.254 0.833977 15.8048 8.21679 15.4903 8.57226C15.0802 9.00976 15.0938 9.59765 15.504 10.0762C15.8184 10.4453 15.8868 10.459 17.2813 10.5L18.7306 10.5547V39.8535C18.7306 55.9727 18.7716 69.2617 18.8126 69.3848C19.045 69.9727 19.3458 70 25.7716 70H31.8829L32.2794 69.6035L32.6759 69.207V46.5254V23.8574L34.4532 25.6348L36.2306 27.4121V30.8848V34.3711L39.2794 37.4336C40.9473 39.1152 42.5059 40.5781 42.752 40.6875C43.0802 40.8242 43.8868 40.8789 45.8966 40.8789H48.5899L50.3126 42.5879C51.8438 44.1055 52.1036 44.2969 52.5138 44.2969C52.9376 44.2969 53.5665 43.709 61.4825 35.7793L70.0001 27.2754V23.9258V20.5762L62.5216 13.084C58.3927 8.95507 54.7833 5.4414 54.4825 5.26366C54.1817 5.08593 53.5665 4.86718 53.1016 4.78515C50.6134 4.30663 48.1934 6.07031 47.8927 8.59961L47.8106 9.26953L47.004 9.41992C45.9102 9.61132 45.0899 10.0488 44.379 10.8008C43.7501 11.4844 43.2032 12.7012 43.2032 13.4531C43.2032 13.9453 42.9981 14.0684 42.2462 14.082C41.7403 14.082 40.5782 14.6699 39.963 15.2305C39.6622 15.5039 39.2657 16.0098 39.088 16.3652C38.9102 16.7344 38.7462 17.0488 38.7188 17.0898C38.7052 17.1172 37.3243 15.791 35.6837 14.1504C33.5372 12.0039 32.6759 11.0605 32.6759 10.8418C32.6759 10.541 32.7169 10.5273 33.9063 10.5273C35.711 10.5273 36.2032 10.1992 36.0665 9.07812C36.0391 8.75 35.2052 7.9707 31.377 4.60741C28.8204 2.36523 26.5509 0.410149 26.3184 0.259758C25.7852 -0.0820389 25.4161 -0.068367 24.9376 0.300774ZM28.9024 5.5371L31.8692 8.13476L31.3634 8.21679C30.8028 8.3125 30.3653 8.77734 30.3516 9.26953C30.3516 9.54296 30.3106 9.55664 29.9825 9.47461C29.7638 9.40625 29.2169 9.3789 28.752 9.39257C25.6895 9.46093 23.6388 12.8242 24.9239 15.6269C25.211 16.2695 25.7852 16.9258 27.8223 18.9902L30.3516 21.5605V44.6113V67.6758H25.7032H21.0548L21.0274 38.2812L20.9864 8.90039L20.6993 8.59961C20.5352 8.44921 20.1934 8.27148 19.9474 8.21679L19.4962 8.12109L22.5587 5.4414C24.336 3.8828 25.6895 2.78905 25.7716 2.84374C25.8673 2.89843 27.2618 4.10155 28.9024 5.5371ZM52.9102 7.10937C53.2794 7.21875 55.002 8.85937 60.5255 14.3828L67.6759 21.5332V23.9258V26.3184L60.088 33.9062L52.5138 41.4805L51.0235 40.0176L49.5333 38.5547H46.6075H43.6817L41.1251 35.998L38.5548 33.4277V31.582V29.75L39.2794 30.4609L40.004 31.1719L40.8106 30.3516L41.6173 29.5312L34.3575 22.2441C27.9317 15.8047 27.0704 14.9023 26.9337 14.3828C26.5098 12.7832 27.9591 11.334 29.5723 11.7715C30.0782 11.8945 30.9942 12.7559 37.42 19.1816L44.7071 26.4414L45.5274 25.6348L46.3477 24.8144L43.7638 22.2168C42.3419 20.7949 41.1114 19.4824 41.0294 19.3184C40.5919 18.457 41.0294 17.1719 41.9317 16.6387C42.4376 16.3516 43.422 16.2969 43.9141 16.543C44.0782 16.6387 45.377 17.8555 46.7989 19.25L49.3556 21.793L50.1759 20.9863L50.9962 20.1797L48.3438 17.5C45.4864 14.6289 45.377 14.4648 45.5958 13.3027C45.7188 12.6602 46.4024 11.9629 47.1134 11.7715C48.1934 11.4844 48.4806 11.6621 51.379 14.5332L54.004 17.1445L54.8243 16.3379L55.6446 15.5176L53.129 12.9883C51.7481 11.5937 50.5177 10.2676 50.3946 10.0215C49.9571 9.14648 50.2169 8.08007 51.0098 7.47851C51.6798 6.98632 52.1446 6.89062 52.9102 7.10937Z" fill="#14918F"/>
<path d="M14.041 14.041C13.9863 14.082 13.9453 16.9805 13.9453 20.4668V26.7969H15.1074H16.2695V20.3711V13.9453H15.2031C14.6152 13.9453 14.082 13.9863 14.041 14.041Z" fill="#14918F"/>
<path d="M8.20312 25.0879V31.4453H9.36523H10.5273V25.0879V18.7305H9.36523H8.20312V25.0879Z" fill="#14918F"/>
<path d="M14.041 29.2168C13.9863 29.2578 13.9453 29.791 13.9453 30.3789V31.4453H15.1074H16.2695V30.2832V29.1211H15.2031C14.6152 29.1211 14.082 29.1621 14.041 29.2168Z" fill="#14918F"/>
<path d="M8.20312 35V36.2441L9.33789 36.2031L10.459 36.1621V35V33.8379L9.33789 33.7969L8.20312 33.7559V35Z" fill="#14918F"/>
<path d="M0.861328 46.7168C0.683594 46.7441 0.423828 46.9355 0.273438 47.127C0 47.4688 0 47.6465 0 58.3379V69.207L0.396484 69.6035L0.792969 70H6.9043C13.3301 70 13.6309 69.9727 13.8633 69.3848C13.9043 69.2617 13.9453 64.2578 13.9453 58.2559V47.3457L13.5898 47.0176L13.2344 46.6895L7.20508 46.6758C3.88281 46.6621 1.02539 46.6758 0.861328 46.7168ZM11.6211 58.3105V67.6758H6.97266H2.32422V58.3105V48.9453H6.97266H11.6211V58.3105Z" fill="#14918F"/>
<path d="M38.0352 46.8262C37.7891 46.9355 37.5293 47.1816 37.4609 47.373C37.3789 47.6055 37.3242 51.6934 37.3242 58.4609V69.207L37.7207 69.6035L38.1172 70H44.2285C50.6543 70 50.9551 69.9727 51.1875 69.3848C51.2285 69.2617 51.2695 64.2578 51.2695 58.2559V47.3457L50.9141 47.0176L50.5586 46.6895L44.5293 46.6621C39.5391 46.6348 38.4043 46.6621 38.0352 46.8262ZM48.9453 58.3105V67.6758H44.2969H39.6484V58.3105V48.9453H44.2969H48.9453V58.3105Z" fill="#14918F"/>
<path d="M56.875 46.7168C56.7656 46.7578 56.5332 46.9219 56.3691 47.0723L56.0547 47.3457V58.2559C56.0547 64.2578 56.0957 69.2617 56.1367 69.3848C56.3691 69.9727 56.6699 70 63.0957 70H69.207L69.6035 69.6035L70 69.207V58.3242V47.4551L69.6719 47.0723L69.3438 46.6895L63.2051 46.6621C59.8418 46.6484 56.9844 46.6758 56.875 46.7168ZM67.6758 58.3105V67.6758H63.0273H58.3789V58.3105V48.9453H63.0273H67.6758V58.3105Z" fill="#14918F"/>
</g>
<defs>
<clipPath id="clip0_800_1619">
<rect width="70" height="70" fill="white"/>
</clipPath>
</defs>
</svg>
