<svg width="86" height="86" viewBox="0 0 86 86" fill="none" xmlns="http://www.w3.org/2000/svg">
<path d="M71.2188 64.5C71.2105 60.4026 69.7871 56.4338 67.1894 53.2651C64.5916 50.0964 60.9791 47.9223 56.9629 47.1105L53.1225 46.3419L51.0625 44.9686V41.9358C53.2193 40.5232 54.9723 38.5748 56.1499 36.2812H57.7812C58.918 36.2837 60.0261 35.9249 60.9456 35.2567C61.8651 34.5884 62.5486 33.6453 62.8972 32.5634C63.2459 31.4815 63.2418 30.3167 62.8855 29.2373C62.5292 28.1579 61.8391 27.2196 60.9149 26.5579C61.1379 25.6307 61.318 24.6887 61.4524 23.7441C61.6815 23.5 61.8101 23.1785 61.8125 22.8438V17.7254L69.0526 14.6764C69.2966 14.574 69.505 14.4017 69.6514 14.1813C69.7979 13.9609 69.8761 13.7022 69.8761 13.4375C69.8761 13.1728 69.7979 12.9141 69.6514 12.6937C69.505 12.4733 69.2966 12.301 69.0526 12.1986L43.5214 1.44856C43.3563 1.37908 43.1791 1.34329 43 1.34329C42.8209 1.34329 42.6437 1.37908 42.4786 1.44856L16.9474 12.1986C16.7034 12.301 16.495 12.4733 16.3486 12.6937C16.2021 12.9141 16.1239 13.1728 16.1239 13.4375C16.1239 13.7022 16.2021 13.9609 16.3486 14.1813C16.495 14.4017 16.7034 14.574 16.9474 14.6764L17.4688 14.8955V23.2173C16.9564 23.5131 16.556 23.9697 16.3296 24.5163C16.1032 25.0629 16.0635 25.6689 16.2166 26.2403C16.3697 26.8118 16.7071 27.3167 17.1765 27.6769C17.6458 28.037 18.2209 28.2323 18.8125 28.2323C19.4041 28.2323 19.9792 28.037 20.4485 27.6769C20.9179 27.3167 21.2553 26.8118 21.4084 26.2403C21.5615 25.6689 21.5218 25.0629 21.2954 24.5163C21.069 23.9697 20.6686 23.5131 20.1562 23.2173V16.0269L24.1875 17.7254V22.8438C24.1918 23.058 24.2485 23.2679 24.3528 23.4552C24.3998 23.736 24.4401 24.0182 24.5087 24.2937L25.0771 26.5659C24.1548 27.2287 23.4669 28.1673 23.1124 29.2462C22.758 30.3252 22.7552 31.4888 23.1047 32.5694C23.4541 33.65 24.1376 34.5917 25.0568 35.2588C25.9759 35.9259 27.0831 36.2839 28.2188 36.2812H29.8501C31.0277 38.5748 32.7807 40.5232 34.9375 41.9358V44.9686L32.8775 46.3419L29.0384 47.1105C25.022 47.922 21.4091 50.096 18.8112 53.2647C16.2132 56.4335 14.7896 60.4024 14.7812 64.5V84.6562H17.4688V64.5C17.4727 60.9694 18.7202 57.553 20.9921 54.8505C24.7157 65.4139 32.3889 74.1227 42.3993 79.1469C42.5859 79.2401 42.7915 79.2886 43 79.2886C43.2085 79.2886 43.4141 79.2401 43.6007 79.1469C53.6107 74.1229 61.2839 65.4147 65.0079 54.8519C67.2801 57.5537 68.5275 60.9698 68.5312 64.5V84.6562H71.2188V64.5ZM58.8979 50.4645L58.777 50.9469C57.033 57.9383 52.928 64.1128 47.1562 68.4264L45.7627 60.7671L46.7625 59.2594L47.3242 59.9622C47.45 60.1201 47.6098 60.2477 47.7918 60.3354C47.9737 60.4231 48.173 60.4687 48.375 60.4688C48.4199 60.4685 48.4648 60.4658 48.5094 60.4607C48.7338 60.4372 48.9487 60.3575 49.1342 60.229C49.3198 60.1006 49.4699 59.9275 49.5709 59.7257L54.7309 49.4057L56.4375 49.7456C57.2768 49.914 58.1 50.1546 58.8979 50.4645ZM43 54.5562L45.0022 57.0583L43.6248 59.125H42.3752L40.9978 57.0597L43 54.5562ZM42.7783 61.8125H43.2217L44.7227 70.0658C44.1597 70.4098 43.5886 70.7377 43 71.0521C42.4114 70.7417 41.8403 70.4098 41.2773 70.0658L42.7783 61.8125ZM48.113 56.6458L44.939 52.675C46.8846 51.2132 48.6101 49.4795 50.0628 47.5271L52.0179 48.8319L48.113 56.6458ZM26.875 21.5V15.8294L30.0852 15.0231C38.5648 12.9128 47.4325 12.9128 55.9121 15.0231L59.125 15.8294V21.5C53.6481 21.5432 48.2101 22.4246 43 24.1136C37.7899 22.4246 32.3519 21.5432 26.875 21.5ZM57.7812 33.5938H57.2088C57.5853 32.283 57.7779 30.9263 57.7812 29.5625C57.7812 29.1137 57.7598 28.6662 57.7369 28.2188H57.7812C58.494 28.2188 59.1776 28.5019 59.6816 29.0059C60.1856 29.5099 60.4688 30.1935 60.4688 30.9063C60.4688 31.619 60.1856 32.3026 59.6816 32.8066C59.1776 33.3106 58.494 33.5938 57.7812 33.5938ZM57.7812 25.5313H57.4561C57.3889 25.1013 57.3217 24.6712 57.2317 24.2453C57.7087 24.2238 58.1857 24.2144 58.6627 24.205C58.5808 24.6699 58.4813 25.1308 58.3765 25.5917C58.1795 25.5599 57.9807 25.5398 57.7812 25.5313ZM20.9316 13.4375L43 4.14547L65.0684 13.4375L61.8125 14.8081V14.7812C61.8125 14.4817 61.7124 14.1907 61.5281 13.9546C61.3438 13.7184 61.0859 13.5506 60.7953 13.4778L56.5719 12.4203C47.6633 10.2038 38.3474 10.2038 29.4389 12.4203L25.2114 13.4778C24.9196 13.5493 24.6602 13.7166 24.4746 13.9528C24.2889 14.1891 24.1879 14.4808 24.1875 14.7812V14.8081L20.9316 13.4375ZM27.2566 24.2036C27.7605 24.2117 28.2644 24.2224 28.7683 24.2453C28.6797 24.6712 28.6111 25.1013 28.5439 25.5313H28.2188C28.0126 25.5402 27.8071 25.5608 27.6033 25.5931L27.2566 24.2036ZM28.2188 33.5938C27.506 33.5938 26.8224 33.3106 26.3184 32.8066C25.8144 32.3026 25.5312 31.619 25.5312 30.9063C25.5312 30.1935 25.8144 29.5099 26.3184 29.0059C26.8224 28.5019 27.506 28.2188 28.2188 28.2188H28.2631C28.2403 28.6662 28.2188 29.1137 28.2188 29.5625C28.2221 30.9263 28.4148 32.283 28.7912 33.5938H28.2188ZM30.9062 29.5625C30.91 27.8414 31.1028 26.1258 31.4814 24.4468C35.2555 24.8182 38.9765 25.6091 42.5754 26.8051C42.851 26.8969 43.149 26.8969 43.4246 26.8051C47.0235 25.6091 50.7445 24.8182 54.5186 24.4468C54.8972 26.1258 55.09 27.8414 55.0938 29.5625C55.0938 32.77 53.8196 35.8461 51.5516 38.1141C49.2836 40.3821 46.2075 41.6562 43 41.6562C39.7925 41.6562 36.7164 40.3821 34.4484 38.1141C32.1804 35.8461 30.9062 32.77 30.9062 29.5625ZM43 44.3438C44.8402 44.3414 46.6635 43.9931 48.375 43.3171V45.2467C46.9076 47.3685 45.09 49.2251 43 50.7373C40.91 49.2251 39.0924 47.3685 37.625 45.2467V43.3171C39.3365 43.9931 41.1598 44.3414 43 44.3438ZM35.9373 47.5311C37.3902 49.4821 39.1157 51.2144 41.061 52.675L37.8938 56.6458L33.9888 48.8359L35.9373 47.5311ZM29.5625 49.7456L31.2597 49.4057L36.4197 59.7257C36.5207 59.9275 36.6708 60.1006 36.8564 60.229C37.0419 60.3575 37.2568 60.4372 37.4812 60.4607C37.5289 60.4662 37.577 60.4688 37.625 60.4688C37.8265 60.4688 38.0255 60.4236 38.2071 60.3363C38.3888 60.2491 38.5485 60.1222 38.6745 59.9648L39.2375 59.2594L40.2386 60.7603L38.8451 68.4197C33.0734 64.1061 28.9677 57.9324 27.2217 50.9416L27.1021 50.4645C27.9 50.1546 28.7232 49.9141 29.5625 49.7456ZM43 76.4285C33.5173 71.4666 26.3786 62.9597 23.138 52.7597C23.6168 52.3709 24.119 52.0119 24.6417 51.6847C25.8368 56.4277 28.0421 60.8567 31.1069 64.6687C34.1717 68.4808 38.0237 71.5859 42.3993 73.7719C42.5859 73.8651 42.7915 73.9136 43 73.9136C43.2085 73.9136 43.4141 73.8651 43.6007 73.7719C47.9763 71.5868 51.8284 68.4824 54.8935 64.671C57.9585 60.8597 60.1642 56.4313 61.3597 51.6887C61.882 52.0158 62.3838 52.3748 62.862 52.7637C59.6205 62.9622 52.4819 71.4676 43 76.4285Z" fill="#14918F"/>
<path d="M61.8125 71.2188H59.125V84.6562H61.8125V71.2188Z" fill="#14918F"/>
<path d="M26.875 71.2188H24.1875V84.6562H26.875V71.2188Z" fill="#14918F"/>
</svg>
