<svg width="88" height="88" viewBox="0 0 88 88" fill="none" xmlns="http://www.w3.org/2000/svg">
<path d="M53.9753 9.32703C42.1241 9.32703 32.1357 17.2984 29.4396 28.5763C17.5302 30.7577 8.80078 41.068 8.80078 53.4158C8.80078 67.3434 20.1445 78.6729 34.0865 78.6729C43.107 78.6729 51.4945 73.8117 55.9747 65.9885C56.7826 64.582 56.2956 62.7916 54.8891 61.9867C53.4883 61.1817 51.6922 61.663 50.8872 63.0723C47.4469 69.0765 41.0073 72.8062 34.0865 72.8062C23.3786 72.8062 14.6674 64.1065 14.6674 53.4158C14.6674 43.3611 22.2013 35.0567 32.2818 34.0914C32.8661 34.0169 33.4763 33.9968 34.0865 33.9968C44.7599 33.9968 53.4453 42.708 53.4453 53.4158C53.4453 53.5949 53.4099 53.7524 53.4052 53.9289C45.0507 53.688 37.8453 48.2872 35.3841 40.2789C34.9057 38.732 33.2729 37.8554 31.7174 38.3367C30.1677 38.815 29.2997 40.4536 29.7753 42.0033C33.0581 52.6739 42.7833 59.8411 53.9753 59.8411C54.8289 59.8411 55.6482 59.801 56.3872 59.7122C69.3924 58.4976 79.2008 47.7067 79.2008 34.6127C79.2008 20.6708 67.8857 9.32703 53.9753 9.32703ZM59.302 53.2175C59.1979 39.8943 48.7633 29.0196 35.6464 28.2096C38.2702 20.496 45.5024 15.1937 53.9753 15.1937C64.6487 15.1937 73.3341 23.9049 73.3341 34.6127C73.3341 43.4381 67.5289 50.8957 59.302 53.2175Z" fill="#14918F"/>
</svg>
