<svg width="88" height="69" viewBox="0 0 88 69" fill="none" xmlns="http://www.w3.org/2000/svg">
<path d="M83.215 49.7177L55 52.1661V48.6664C55.01 46.5129 54.3463 44.4143 53.1088 42.6867C51.8714 40.959 50.1271 39.6957 48.1387 39.0871L27.3405 32.6076C27.1059 31.7001 26.5907 30.8978 25.8742 30.3242C25.1577 29.7507 24.2795 29.4378 23.375 29.4336H1.375C1.01033 29.4336 0.660591 29.5841 0.402728 29.852C0.144866 30.1199 0 30.4832 0 30.862L0 62.2882C0 62.667 0.144866 63.0304 0.402728 63.2982C0.660591 63.5661 1.01033 63.7166 1.375 63.7166H23.375C24.1605 63.714 24.929 63.4785 25.5901 63.0377C26.2512 62.5969 26.7774 61.9691 27.1068 61.2283L49.06 68.0706C52.0433 69.0055 55.2324 68.9556 58.1873 67.9277L84.975 58.6513C86.0026 58.2982 86.8697 57.5657 87.4119 56.5926C87.9541 55.6195 88.1338 54.4735 87.9168 53.3719C87.6997 52.2704 87.1012 51.2898 86.2345 50.6163C85.3679 49.9427 84.2935 49.623 83.215 49.7177ZM16.5 60.8597H2.75V32.2905H16.5V60.8597ZM24.75 59.4313C24.75 59.8101 24.6051 60.1734 24.3473 60.4413C24.0894 60.7092 23.7397 60.8597 23.375 60.8597H19.25V32.2905H23.375C23.7397 32.2905 24.0894 32.441 24.3473 32.7089C24.6051 32.9768 24.75 33.3401 24.75 33.719V59.4313ZM84.1087 55.9372L57.3183 65.2137C54.9006 66.0563 52.2908 66.0982 49.8493 65.3336L27.5 58.3685V35.6388L47.3495 41.8241C48.7691 42.26 50.0142 43.1626 50.8978 44.3964C51.7815 45.6302 52.256 47.1285 52.25 48.6664V51.6061L40.3865 46.6751C40.2176 46.5979 40.0355 46.5568 39.8509 46.5542C39.6664 46.5516 39.4833 46.5877 39.3125 46.6602C39.1417 46.7327 38.9866 46.8402 38.8566 46.9763C38.7267 47.1124 38.6244 47.2743 38.5559 47.4523C38.4874 47.6303 38.454 47.8208 38.4579 48.0125C38.4618 48.2041 38.5027 48.393 38.5784 48.5679C38.654 48.7428 38.7627 48.9001 38.8981 49.0303C39.0334 49.1606 39.1927 49.2613 39.3662 49.3263L53.1163 55.0402H53.152C53.2188 55.0588 53.2868 55.0722 53.3555 55.0802C53.4452 55.1078 53.5373 55.1259 53.6305 55.1344C53.647 55.1344 53.6607 55.1344 53.6772 55.1202C53.6937 55.1059 53.7213 55.1202 53.746 55.1202L83.446 52.5489C83.8543 52.51 84.2622 52.6289 84.5914 52.8828C84.9207 53.1367 85.1483 53.5079 85.2307 53.9252C85.313 54.3425 85.2444 54.7767 85.0379 55.1448C84.8315 55.5128 84.5016 55.7889 84.1115 55.9201L84.1087 55.9372ZM68.75 40.8613C72.5573 40.8613 76.2791 39.6884 79.4447 37.4909C82.6104 35.2935 85.0777 32.1701 86.5347 28.5159C87.9917 24.8617 88.3729 20.8406 87.6301 16.9613C86.8874 13.082 85.054 9.51863 82.3618 6.7218C79.6696 3.92497 76.2396 2.0203 72.5055 1.24865C68.7714 0.477009 64.9008 0.873045 61.3833 2.38668C57.8659 3.90031 54.8594 6.46357 52.7442 9.75229C50.629 13.041 49.5 16.9075 49.5 20.8628C49.5058 26.1649 51.5358 31.2481 55.1446 34.9972C58.7534 38.7463 63.6464 40.8552 68.75 40.8613ZM68.75 3.72131C72.0134 3.72131 75.2035 4.72664 77.9169 6.61018C80.6303 8.49371 82.7452 11.1709 83.994 14.3031C85.2429 17.4353 85.5696 20.8818 84.933 24.207C84.2963 27.5321 82.7248 30.5864 80.4173 32.9837C78.1097 35.381 75.1697 37.0136 71.969 37.675C68.7683 38.3364 65.4507 37.9969 62.4357 36.6995C59.4207 35.4021 56.8438 33.2051 55.0308 30.3861C53.2177 27.5672 52.25 24.2531 52.25 20.8628C52.2551 16.3182 53.9951 11.9613 57.0884 8.74779C60.1816 5.53428 64.3755 3.7266 68.75 3.72131Z" fill="#14918F"/>
<path d="M65.3436 29.6559V12.5199H69.8556C71.9516 12.5199 73.5036 12.9439 74.5116 13.7919C75.5356 14.6399 76.0476 15.8719 76.0476 17.4879C76.0476 18.5759 75.7996 19.5119 75.3036 20.2959C74.8076 21.0639 74.0716 21.6559 73.0956 22.0719C72.1356 22.4879 70.9436 22.6959 69.5196 22.6959H67.5036V29.6559H65.3436ZM63.2556 26.3919V24.8319H71.4636V26.3919H63.2556ZM63.2556 22.6959V20.8719H68.7516V22.6959H63.2556ZM69.2076 20.8719C70.1836 20.8719 71.0076 20.7679 71.6796 20.5599C72.3676 20.3519 72.8956 20.0079 73.2636 19.5279C73.6316 19.0479 73.8156 18.3919 73.8156 17.5599C73.8156 16.4719 73.4796 15.6639 72.8076 15.1359C72.1356 14.6079 71.0876 14.3439 69.6636 14.3439H67.5036V20.8719H69.2076Z" fill="#14918F"/>
</svg>
