<svg width="76" height="76" viewBox="0 0 76 76" fill="none" xmlns="http://www.w3.org/2000/svg">
<path d="M44.3083 44.3079C52.7443 35.8719 52.7443 22.0399 44.3083 13.6039C35.8723 5.16794 22.0403 5.09195 13.6043 13.6039C5.16834 22.1159 5.16834 35.8719 13.6043 44.3079C17.8603 48.5639 23.4083 50.6919 28.9563 50.6919C34.5043 50.6919 40.0523 48.5639 44.3083 44.3079ZM14.6683 43.2439C6.84034 35.3399 6.84034 22.5719 14.6683 14.6679C18.6203 10.7159 23.7883 8.73995 28.9563 8.73995C34.1243 8.73995 39.2923 10.7159 43.2443 14.6679C51.1483 22.5719 51.1483 35.3399 43.2443 43.2439C35.3403 51.0719 22.5723 51.0719 14.6683 43.2439Z" fill="#14918F" stroke="#14918F"/>
<path d="M71.4395 59.3559L59.5075 49.2479C59.8875 48.7159 60.1155 48.1079 60.1155 47.4999C60.1155 46.7399 59.8115 46.0559 59.2795 45.5239C58.7475 44.9919 58.0635 44.6879 57.3035 44.6879C56.5435 44.6879 55.8595 44.9919 55.3275 45.5239L54.3395 46.5119L51.9075 44.0799C59.0515 33.2119 57.6075 18.8479 48.4115 9.57594C37.6955 -1.14006 20.2915 -1.14006 9.57553 9.57594C4.40753 14.7439 1.51953 21.6599 1.51953 28.9559C1.51953 36.2519 4.40753 43.1679 9.57553 48.3359C14.8955 53.6559 21.8875 56.3919 29.0315 56.3919C34.1995 56.3919 39.4435 54.8719 44.0035 51.9079L46.4355 54.3399L45.4475 55.3279C44.9155 55.8599 44.6115 56.5439 44.6115 57.3039C44.6115 58.0639 44.9155 58.7479 45.4475 59.2799C45.9795 59.8119 46.6635 60.1159 47.4235 60.1159C48.1075 60.1159 48.7915 59.8879 49.2475 59.4319L59.3555 71.4399C60.8755 73.2639 63.1555 74.4039 65.5875 74.4799H65.9675C68.2475 74.4799 70.4515 73.5679 72.0475 71.9719C73.7195 70.2999 74.6315 67.9439 74.5555 65.5119C74.4035 63.1559 73.2635 60.8759 71.4395 59.3559ZM10.6395 47.2719C5.77553 42.4079 3.03953 35.8719 3.03953 28.9559C3.03953 22.0399 5.77553 15.5039 10.6395 10.6399C15.6555 5.54794 22.3435 3.03994 28.9555 3.03994C35.5675 3.03994 42.2555 5.54794 47.2715 10.6399C56.1635 19.5319 57.3795 33.4399 50.2355 43.6999C49.3235 44.9919 48.3355 46.2079 47.2715 47.2719C46.1315 48.4119 44.9155 49.3999 43.6235 50.3119C33.3635 57.3799 19.4555 56.0879 10.6395 47.2719ZM45.2195 51.0719L45.2955 50.9959L46.6635 49.8559C46.7395 49.7799 46.8155 49.7039 46.9675 49.6279C47.4235 49.2479 47.8795 48.7919 48.3355 48.3359C48.7915 47.8799 49.1715 47.4999 49.5515 47.0439C49.6275 46.9679 49.7035 46.8919 49.7795 46.7399C50.1595 46.2839 50.5395 45.8279 50.8435 45.3719L50.9195 45.2959L53.1235 47.4999L47.3475 53.2759L45.2195 51.0719ZM47.4235 58.6719C47.0435 58.6719 46.7395 58.5199 46.5115 58.2919C46.2835 58.0639 46.1315 57.6839 46.1315 57.3799C46.1315 56.9999 46.2835 56.6959 46.5115 56.4679L48.0315 54.9479L54.8715 48.1079L56.3915 46.5879C56.6195 46.3599 56.9995 46.2079 57.3035 46.2079C57.6835 46.2079 57.9875 46.3599 58.2155 46.5879C58.4435 46.8159 58.5955 47.1959 58.5955 47.4999C58.5955 47.8799 58.4435 48.1839 58.2155 48.4119L48.3355 58.2919C48.1075 58.5199 47.8035 58.6719 47.4235 58.6719ZM70.9075 70.9079C69.4635 72.3519 67.6395 73.0359 65.6635 72.9599C63.6875 72.8839 61.8635 71.9719 60.5715 70.4519L50.3875 58.4439L58.4435 50.3879L70.4515 60.4959C71.9715 61.7879 72.8835 63.6119 72.9595 65.5879C73.0355 67.5639 72.2755 69.4639 70.9075 70.9079Z" fill="#14918F" stroke="#14918F"/>
<path d="M63.7645 63.7641C62.3205 65.2081 62.3205 67.4881 63.7645 68.8561C64.4485 69.5401 65.3605 69.9201 66.3485 69.9201C67.2605 69.9201 68.1725 69.5401 68.9325 68.8561C70.3005 67.4881 70.3005 65.1321 68.9325 63.7641C67.4885 62.3201 65.2085 62.3201 63.7645 63.7641ZM67.7925 67.7921C66.9565 68.6281 65.6645 68.6281 64.8285 67.7921C63.9925 66.9561 63.9925 65.6641 64.8285 64.8281C65.2085 64.4481 65.7405 64.2201 66.2725 64.2201C66.8045 64.2201 67.3365 64.4481 67.7165 64.8281C68.6285 65.6641 68.6285 66.9561 67.7925 67.7921ZM43.7005 30.9321V26.4481C43.7765 26.2961 43.8525 26.1441 43.8525 25.9161C43.8525 25.4601 43.5485 25.0801 43.1685 25.0041L29.2605 20.2161C29.0325 20.1401 28.8045 20.1401 28.6525 20.2161L14.7445 25.0041C14.3645 25.1561 14.0605 25.5361 14.0605 25.9161C14.0605 26.3721 14.3645 26.7521 14.7445 26.8281L17.2525 27.6641V34.6561C17.2525 36.1761 19.5325 36.7081 21.2805 37.0881C23.3325 37.4681 26.0685 37.6201 28.9565 37.6201C33.3645 37.6201 40.6605 37.2401 40.6605 34.6561V27.6641L42.1805 27.1321V30.8561C42.1805 31.3121 42.4845 31.6161 42.9405 31.6161C43.3965 31.6161 43.7005 31.3881 43.7005 30.9321ZM39.1405 28.2721V34.6561C38.7605 35.2641 35.0365 36.1761 28.9565 36.1761C22.8765 36.1761 19.0765 35.3401 18.7725 34.7321V28.2721L28.6525 31.6161C28.7285 31.6161 28.8805 31.6921 28.9565 31.6921C29.0325 31.6921 29.1845 31.6921 29.2605 31.6161L39.1405 28.2721ZM28.9565 30.1721L16.6445 25.9921L28.9565 21.8121L41.2685 25.9921L28.9565 30.1721Z" fill="#14918F" stroke="#14918F"/>
</svg>
