<svg width="100" height="100" viewBox="0 0 100 100" fill="none" xmlns="http://www.w3.org/2000/svg">
<path d="M84.8901 87.875H23.8651C20.6301 87.875 17.5851 86.61 15.2901 84.31C13.0001 82.01 11.7401 78.965 11.7501 75.725C11.7701 69.065 17.2501 63.645 23.9701 63.645H84.8901C86.7451 63.645 88.2501 65.155 88.2501 67.005C88.2501 68.855 86.7401 70.365 84.8901 70.365H23.8651C20.8901 70.365 18.4701 72.785 18.4701 75.76C18.4701 78.735 20.8901 81.155 23.8651 81.155H84.8901C86.7451 81.155 88.2501 82.665 88.2501 84.515C88.2501 86.365 86.7401 87.875 84.8901 87.875ZM23.9701 65.745C18.4051 65.745 13.8651 70.225 13.8501 75.73C13.8451 78.405 14.8801 80.925 16.7751 82.825C18.6701 84.725 21.1851 85.77 23.8601 85.77H84.8851C85.5801 85.77 86.1451 85.205 86.1451 84.51C86.1451 83.815 85.5801 83.25 84.8851 83.25H23.8651C19.7351 83.25 16.3701 79.89 16.3701 75.755C16.3701 71.62 19.7301 68.26 23.8651 68.26H84.8901C85.5851 68.26 86.1501 67.695 86.1501 67C86.1501 66.305 85.5851 65.74 84.8901 65.74H23.9701V65.745Z" fill="#14918F"/>
<path d="M82.68 83.25C82.37 83.25 82.065 83.115 81.86 82.855C80.255 80.85 79.37 78.33 79.37 75.755C79.37 73.18 80.255 70.66 81.86 68.655C82.225 68.205 82.885 68.13 83.335 68.49C83.79 68.855 83.86 69.515 83.5 69.965C80.815 73.32 80.815 78.185 83.5 81.535C83.865 81.985 83.79 82.65 83.335 83.01C83.145 83.175 82.91 83.25 82.68 83.25ZM73.205 76.81H17.42C16.84 76.81 16.37 76.34 16.37 75.76C16.37 75.18 16.84 74.71 17.42 74.71H73.205C73.785 74.71 74.255 75.18 74.255 75.76C74.255 76.34 73.785 76.81 73.205 76.81ZM76.135 65.745H15.11C13.255 65.745 11.75 64.235 11.75 62.385C11.75 60.535 13.26 59.025 15.11 59.025H76.135C79.11 59.025 81.53 56.605 81.53 53.63C81.53 50.655 79.11 48.235 76.135 48.235H15.11C13.255 48.235 11.75 46.725 11.75 44.875C11.75 43.025 13.26 41.515 15.11 41.515H76.03C82.75 41.515 88.23 46.935 88.25 53.595C88.26 56.835 87 59.88 84.71 62.18C82.42 64.48 79.375 65.745 76.135 65.745ZM15.11 61.125C14.415 61.125 13.85 61.69 13.85 62.385C13.85 63.08 14.415 63.645 15.11 63.645H76.135C78.81 63.645 81.325 62.6 83.22 60.7C85.115 58.8 86.155 56.28 86.145 53.605C86.13 48.1 81.59 43.62 76.025 43.62H15.11C14.415 43.62 13.85 44.185 13.85 44.88C13.85 45.575 14.415 46.14 15.11 46.14H76.135C80.265 46.14 83.63 49.5 83.63 53.635C83.63 57.77 80.27 61.13 76.135 61.13H15.11V61.125Z" fill="#14918F"/>
<path d="M17.3191 61.125C17.0891 61.125 16.8591 61.05 16.6641 60.895C16.2141 60.53 16.1391 59.87 16.4991 59.42C19.1841 56.07 19.1841 51.2 16.4991 47.85C16.1341 47.395 16.2091 46.735 16.6641 46.375C17.1141 46.01 17.7791 46.085 18.1391 46.54C19.7441 48.545 20.6291 51.065 20.6291 53.64C20.6291 56.215 19.7441 58.735 18.1391 60.74C17.9291 60.99 17.6241 61.125 17.3191 61.125ZM82.5791 54.68H26.7941C26.2141 54.68 25.7441 54.21 25.7441 53.63C25.7441 53.05 26.2141 52.58 26.7941 52.58H82.5791C83.1591 52.58 83.6291 53.05 83.6291 53.63C83.6291 54.21 83.1591 54.68 82.5791 54.68Z" fill="#14918F"/>
<path d="M55.5055 43.6199C53.5205 43.6199 51.6355 42.9049 50.0005 41.5399C48.3655 42.9049 46.4805 43.6199 44.4955 43.6199C43.0855 43.6199 41.7255 43.2599 40.4455 42.5449C39.2355 41.8699 38.1555 40.9099 37.2305 39.6899C35.3755 37.2399 34.3555 34.0049 34.3555 30.5699C34.3555 27.1349 35.3755 23.8999 37.2305 21.4499C38.1555 20.2299 39.2355 19.2699 40.4455 18.5949C41.7255 17.8799 43.0855 17.5199 44.4955 17.5199C46.4805 17.5199 48.3655 18.2349 50.0005 19.5999C51.6355 18.2349 53.5205 17.5199 55.5055 17.5199C56.9155 17.5199 58.2755 17.8799 59.5555 18.5949C60.7655 19.2699 61.8455 20.2299 62.7705 21.4499C64.6255 23.8999 65.6455 27.1349 65.6455 30.5699C65.6455 34.0049 64.6255 37.2399 62.7705 39.6899C61.8455 40.9099 60.7655 41.8699 59.5555 42.5449C58.2805 43.2549 56.9155 43.6199 55.5055 43.6199ZM50.0005 39.0649C50.2805 39.0649 50.5505 39.1749 50.7455 39.3749C52.1355 40.7749 53.7855 41.5149 55.5055 41.5149C57.5955 41.5149 59.5805 40.4149 61.0955 38.4149C62.6755 36.3299 63.5455 33.5399 63.5455 30.5649C63.5455 27.5849 62.6755 24.7999 61.0955 22.7149C59.5805 20.7149 57.5955 19.6149 55.5055 19.6149C53.7805 19.6149 52.1355 20.3549 50.7455 21.7599C50.5505 21.9599 50.2805 22.0699 50.0005 22.0699C49.7205 22.0699 49.4505 21.9599 49.2555 21.7599C47.8655 20.3599 46.2155 19.6149 44.4955 19.6149C42.4055 19.6149 40.4205 20.7149 38.9055 22.7149C37.3255 24.7999 36.4555 27.5899 36.4555 30.5649C36.4555 33.5399 37.3255 36.3299 38.9055 38.4149C40.4205 40.4149 42.4055 41.5149 44.4955 41.5149C46.2205 41.5149 47.8655 40.7749 49.2555 39.3749C49.4505 39.1749 49.7205 39.0649 50.0005 39.0649Z" fill="#14918F"/>
<path d="M50.0014 22.0699C49.4964 22.0699 49.0464 21.6999 48.9664 21.1849C48.9314 20.9549 48.0964 15.4749 51.1414 12.4349C51.5514 12.0249 52.2164 12.0249 52.6264 12.4349C53.0364 12.8449 53.0364 13.5099 52.6264 13.9199C51.4564 15.0899 51.0864 16.8899 50.9764 18.1949C50.8564 19.6749 51.0364 20.8399 51.0414 20.8549C51.1314 21.4299 50.7414 21.9649 50.1714 22.0549C50.1114 22.0649 50.0564 22.0699 50.0014 22.0699Z" fill="#14918F"/>
</svg>
