<svg width="52" height="15" viewBox="0 0 52 15" fill="none" xmlns="http://www.w3.org/2000/svg">
<path d="M1 6.5C0.447715 6.5 0 6.94772 0 7.5C0 8.05228 0.447715 8.5 1 8.5V6.5ZM51.7071 8.20711C52.0976 7.81658 52.0976 7.18342 51.7071 6.79289L45.3431 0.428932C44.9526 0.0384079 44.3195 0.0384079 43.9289 0.428932C43.5384 0.819456 43.5384 1.45262 43.9289 1.84315L49.5858 7.5L43.9289 13.1569C43.5384 13.5474 43.5384 14.1805 43.9289 14.5711C44.3195 14.9616 44.9526 14.9616 45.3431 14.5711L51.7071 8.20711ZM1 8.5H51V6.5H1V8.5Z" fill="#14918F"/>
</svg>
