<svg width="23" height="59" viewBox="0 0 23 59" fill="none" xmlns="http://www.w3.org/2000/svg">
<path fill-rule="evenodd" clip-rule="evenodd" d="M11.5 3C12.3284 3 13 3.67157 13 4.5L13 8.58333C13 9.41176 12.3284 10.0833 11.5 10.0833C10.6716 10.0833 10 9.41176 10 8.58333L10 4.5C10 3.67157 10.6716 3 11.5 3Z" fill="#FF6F4F"/>
<path fill-rule="evenodd" clip-rule="evenodd" d="M11.5 15C12.3284 15 13 15.6716 13 16.5L13 20.5833C13 21.4118 12.3284 22.0833 11.5 22.0833C10.6716 22.0833 10 21.4118 10 20.5833L10 16.5C10 15.6716 10.6716 15 11.5 15Z" fill="#FF6F4F"/>
<path fill-rule="evenodd" clip-rule="evenodd" d="M11.5 37C12.3284 37 13 37.6716 13 38.5L13 42.5833C13 43.4118 12.3284 44.0833 11.5 44.0833C10.6716 44.0833 10 43.4118 10 42.5833L10 38.5C10 37.6716 10.6716 37 11.5 37Z" fill="#FF6F4F"/>
<path fill-rule="evenodd" clip-rule="evenodd" d="M11.5 49C12.3284 49 13 49.6716 13 50.5L13 54.5833C13 55.4118 12.3284 56.0833 11.5 56.0833C10.6716 56.0833 10 55.4118 10 54.5833L10 50.5C10 49.6716 10.6716 49 11.5 49Z" fill="#FF6F4F"/>
<path fill-rule="evenodd" clip-rule="evenodd" d="M11.4844 33.0918L1.93843 23.5459C1.35265 22.9601 1.35265 22.0103 1.93843 21.4245C2.52422 20.8387 3.47397 20.8387 4.05975 21.4245L11.4844 28.8492L18.909 21.4245C19.4948 20.8387 20.4445 20.8387 21.0303 21.4245C21.6161 22.0103 21.6161 22.9601 21.0303 23.5459L11.4844 33.0918Z" fill="#FF6F4F"/>
</svg>
