<svg width="24" height="24" viewBox="0 0 24 24" fill="none" xmlns="http://www.w3.org/2000/svg">
<path d="M14.1182 15.3998L18.7082 10.8098C18.8945 10.6224 18.999 10.369 18.999 10.1048C18.999 9.84062 18.8945 9.58716 18.7082 9.3998C18.6153 9.30607 18.5047 9.23168 18.3828 9.18091C18.2609 9.13014 18.1302 9.104 17.9982 9.104C17.8662 9.104 17.7355 9.13014 17.6137 9.18091C17.4918 9.23168 17.3812 9.30607 17.2882 9.3998L12.7082 13.9998C12.6153 14.0935 12.5047 14.1679 12.3828 14.2187C12.2609 14.2695 12.1302 14.2956 11.9982 14.2956C11.8662 14.2956 11.7355 14.2695 11.6137 14.2187C11.4918 14.1679 11.3812 14.0935 11.2882 13.9998L6.70823 9.3998C6.52125 9.2115 6.26713 9.10518 6.00177 9.10425C5.7364 9.10331 5.48153 9.20783 5.29323 9.3948C5.10493 9.58178 4.99861 9.8359 4.99767 10.1013C4.99673 10.3666 5.10125 10.6215 5.28823 10.8098L9.87823 15.3998C10.4407 15.9616 11.2032 16.2772 11.9982 16.2772C12.7932 16.2772 13.5557 15.9616 14.1182 15.3998Z" fill="#14918F"/>
</svg>
