<?xml version="1.0" encoding="utf-8"?>
<!-- Generator: Adobe Illustrator 21.0.0, SVG Export Plug-In . SVG Version: 6.00 Build 0)  -->
<svg version="1.1" id="Слой_1" xmlns="http://www.w3.org/2000/svg" xmlns:xlink="http://www.w3.org/1999/xlink" x="0px" y="0px"
	 viewBox="0 0 21.1 21.6" style="enable-background:new 0 0 21.1 21.6;" xml:space="preserve">
<style type="text/css">
	.st0{opacity:0.8;}
	.st1{fill:#14918F;}
</style>
<g class="st0">
	<path class="st1" d="M10.5,5.2c-3,0-5.5,2.5-5.5,5.6c0,3.1,2.5,5.6,5.5,5.6c3,0,5.5-2.5,5.5-5.6C16,7.7,13.6,5.2,10.5,5.2z
		 M10.5,14.3c-1.9,0-3.5-1.6-3.5-3.5c0-1.9,1.6-3.5,3.5-3.5c1.9,0,3.5,1.6,3.5,3.5C14,12.7,12.5,14.3,10.5,14.3z"/>
	<path class="st1" d="M15,0H6.1C2.7,0,0,2.8,0,6.2v9.2c0,3.4,2.7,6.2,6.1,6.2H15c3.3,0,6.1-2.8,6.1-6.2V6.2C21.1,2.8,18.3,0,15,0z
		 M19,15.4c0,2.3-1.8,4.1-4.1,4.1H6.1c-2.2,0-4.1-1.9-4.1-4.1V6.2C2,3.9,3.8,2,6.1,2H15C17.2,2,19,3.9,19,6.2V15.4z"/>
	<path class="st1" d="M16.1,6.3c0.7,0,1.3-0.6,1.3-1.3c0-0.7-0.6-1.3-1.3-1.3c-0.7,0-1.3,0.6-1.3,1.3C14.8,5.7,15.4,6.3,16.1,6.3z"
		/>
</g>
</svg>
