<svg width="80" height="80" viewBox="0 0 80 80" fill="none" xmlns="http://www.w3.org/2000/svg">
<g filter="url(#filter0_d_800_1674)">
<circle cx="40" cy="38" r="32" transform="rotate(90 40 38)" fill="white"/>
</g>
<path d="M50.7071 38.7071C51.0976 38.3166 51.0976 37.6834 50.7071 37.2929L44.3431 30.9289C43.9526 30.5384 43.3195 30.5384 42.9289 30.9289C42.5384 31.3195 42.5384 31.9526 42.9289 32.3431L48.5858 38L42.9289 43.6569C42.5384 44.0474 42.5384 44.6805 42.9289 45.0711C43.3195 45.4616 43.9526 45.4616 44.3431 45.0711L50.7071 38.7071ZM29 39L50 39L50 37L29 37L29 39Z" fill="#76767A"/>
<defs>
<filter id="filter0_d_800_1674" x="0" y="0" width="80" height="80" filterUnits="userSpaceOnUse" color-interpolation-filters="sRGB">
<feFlood flood-opacity="0" result="BackgroundImageFix"/>
<feColorMatrix in="SourceAlpha" type="matrix" values="0 0 0 0 0 0 0 0 0 0 0 0 0 0 0 0 0 0 127 0" result="hardAlpha"/>
<feOffset dy="2"/>
<feGaussianBlur stdDeviation="4"/>
<feComposite in2="hardAlpha" operator="out"/>
<feColorMatrix type="matrix" values="0 0 0 0 0 0 0 0 0 0 0 0 0 0 0 0 0 0 0.25 0"/>
<feBlend mode="normal" in2="BackgroundImageFix" result="effect1_dropShadow_800_1674"/>
<feBlend mode="normal" in="SourceGraphic" in2="effect1_dropShadow_800_1674" result="shape"/>
</filter>
</defs>
</svg>
