<svg width="24" height="24" viewBox="0 0 24 24" fill="none" xmlns="http://www.w3.org/2000/svg">
<path d="M13.5201 5C13.7825 5.0011 14.0339 5.10526 14.2201 5.29L18.8101 9.88C19.3719 10.4425 19.6875 11.205 19.6875 12C19.6875 12.795 19.3719 13.5575 18.8101 14.12L14.2201 18.71C14.0328 18.8963 13.7793 19.0008 13.5151 19.0008C13.251 19.0008 12.9975 18.8963 12.8101 18.71C12.7164 18.617 12.642 18.5064 12.5912 18.3846C12.5405 18.2627 12.5143 18.132 12.5143 18C12.5143 17.868 12.5405 17.7373 12.5912 17.6154C12.642 17.4936 12.7164 17.383 12.8101 17.29L17.4001 12.71C17.4939 12.617 17.5683 12.5064 17.619 12.3846C17.6698 12.2627 17.6959 12.132 17.6959 12C17.6959 11.868 17.6698 11.7373 17.619 11.6154C17.5683 11.4936 17.4939 11.383 17.4001 11.29L12.8101 6.71C12.7164 6.61704 12.642 6.50644 12.5912 6.38458C12.5405 6.26272 12.5143 6.13201 12.5143 6C12.5143 5.86799 12.5405 5.73728 12.5912 5.61542C12.642 5.49356 12.7164 5.38296 12.8101 5.29C12.9036 5.19732 13.0144 5.12399 13.1362 5.07423C13.2581 5.02446 13.3885 4.99924 13.5201 5Z" fill="#14918F"/>
<path d="M6.51984 5C6.78218 5.0011 7.03358 5.10526 7.21984 5.29L13.2198 11.29C13.3136 11.383 13.3879 11.4936 13.4387 11.6154C13.4895 11.7373 13.5156 11.868 13.5156 12C13.5156 12.132 13.4895 12.2627 13.4387 12.3846C13.3879 12.5064 13.3136 12.617 13.2198 12.71L7.21984 18.71C7.03247 18.8963 6.77902 19.0008 6.51484 19.0008C6.25065 19.0008 5.9972 18.8963 5.80984 18.71C5.71611 18.617 5.64172 18.5064 5.59095 18.3846C5.54018 18.2627 5.51404 18.132 5.51404 18C5.51404 17.868 5.54018 17.7373 5.59095 17.6154C5.64172 17.4936 5.71611 17.383 5.80984 17.29L11.0998 12L5.80984 6.71C5.71611 6.61704 5.64172 6.50644 5.59095 6.38458C5.54018 6.26272 5.51404 6.13201 5.51404 6C5.51404 5.86799 5.54018 5.73728 5.59095 5.61542C5.64172 5.49356 5.71611 5.38296 5.80984 5.29C5.90328 5.19732 6.01409 5.12399 6.13593 5.07423C6.25777 5.02446 6.38823 4.99924 6.51984 5Z" fill="#14918F"/>
</svg>
