<svg width="24" height="24" viewBox="0 0 24 24" fill="none" xmlns="http://www.w3.org/2000/svg">
<path d="M8.6002 14.1201L13.1902 18.7101C13.3776 18.8963 13.631 19.0009 13.8952 19.0009C14.1594 19.0009 14.4128 18.8963 14.6002 18.7101C14.6939 18.6171 14.7683 18.5065 14.8191 18.3846C14.8699 18.2628 14.896 18.1321 14.896 18.0001C14.896 17.8681 14.8699 17.7373 14.8191 17.6155C14.7683 17.4936 14.6939 17.383 14.6002 17.2901L10.0002 12.7101C9.90647 12.6171 9.83207 12.5065 9.78131 12.3846C9.73054 12.2628 9.7044 12.1321 9.7044 12.0001C9.7044 11.868 9.73054 11.7373 9.78131 11.6155C9.83207 11.4936 9.90647 11.383 10.0002 11.2901L14.6002 6.71006C14.7885 6.52308 14.8948 6.26896 14.8958 6.0036C14.8967 5.73823 14.7922 5.48336 14.6052 5.29506C14.4182 5.10676 14.1641 5.00044 13.8987 4.9995C13.6334 4.99857 13.3785 5.10308 13.1902 5.29006L8.6002 9.88006C8.0384 10.4426 7.72284 11.2051 7.72284 12.0001C7.72284 12.7951 8.0384 13.5576 8.6002 14.1201Z" fill="#14918F"/>
</svg>
