<svg width="24" height="24" viewBox="0 0 24 24" fill="none" xmlns="http://www.w3.org/2000/svg">
<path d="M10.4799 19.0001C10.2175 18.999 9.96612 18.8948 9.77986 18.7101L5.18986 14.1201C4.62806 13.5576 4.3125 12.7951 4.3125 12.0001C4.3125 11.2051 4.62806 10.4426 5.18986 9.88006L9.77986 5.29006C9.96722 5.10381 10.2207 4.99927 10.4849 4.99927C10.749 4.99927 11.0025 5.10381 11.1899 5.29006C11.2836 5.38302 11.358 5.49362 11.4088 5.61548C11.4595 5.73734 11.4857 5.86805 11.4857 6.00006C11.4857 6.13207 11.4595 6.26278 11.4088 6.38464C11.358 6.5065 11.2836 6.6171 11.1899 6.71006L6.59986 11.2901C6.50613 11.383 6.43174 11.4936 6.38097 11.6155C6.3302 11.7373 6.30406 11.868 6.30406 12.0001C6.30406 12.1321 6.3302 12.2628 6.38097 12.3846C6.43174 12.5065 6.50613 12.6171 6.59986 12.7101L11.1899 17.2901C11.2836 17.383 11.358 17.4936 11.4088 17.6155C11.4595 17.7373 11.4857 17.868 11.4857 18.0001C11.4857 18.1321 11.4595 18.2628 11.4088 18.3846C11.358 18.5065 11.2836 18.6171 11.1899 18.7101C11.0964 18.8027 10.9856 18.8761 10.8638 18.9258C10.7419 18.9756 10.6115 19.0008 10.4799 19.0001Z" fill="#14918F"/>
<path d="M17.4797 19.0001C17.2173 18.999 16.9659 18.8948 16.7797 18.7101L10.7797 12.7101C10.686 12.6171 10.6116 12.5065 10.5608 12.3846C10.51 12.2628 10.4839 12.1321 10.4839 12.0001C10.4839 11.868 10.51 11.7373 10.5608 11.6155C10.6116 11.4936 10.686 11.383 10.7797 11.2901L16.7797 5.29006C16.967 5.10381 17.2205 4.99927 17.4847 4.99927C17.7489 4.99927 18.0023 5.10381 18.1897 5.29006C18.2834 5.38302 18.3578 5.49362 18.4086 5.61548C18.4593 5.73734 18.4855 5.86805 18.4855 6.00006C18.4855 6.13207 18.4593 6.26278 18.4086 6.38464C18.3578 6.5065 18.2834 6.6171 18.1897 6.71006L12.8997 12.0001L18.1897 17.2901C18.2834 17.383 18.3578 17.4936 18.4086 17.6155C18.4593 17.7373 18.4855 17.868 18.4855 18.0001C18.4855 18.1321 18.4593 18.2628 18.4086 18.3846C18.3578 18.5065 18.2834 18.6171 18.1897 18.7101C18.0962 18.8027 17.9854 18.8761 17.8636 18.9258C17.7417 18.9756 17.6113 19.0008 17.4797 19.0001Z" fill="#14918F"/>
</svg>
