<svg width="80" height="80" viewBox="0 0 80 80" fill="none" xmlns="http://www.w3.org/2000/svg">
<g filter="url(#filter0_d_800_1677)">
<circle cx="40" cy="38" r="32" transform="rotate(-90 40 38)" fill="white"/>
</g>
<path d="M29.2929 37.2929C28.9024 37.6834 28.9024 38.3166 29.2929 38.7071L35.6569 45.0711C36.0474 45.4616 36.6805 45.4616 37.0711 45.0711C37.4616 44.6805 37.4616 44.0474 37.0711 43.6569L31.4142 38L37.0711 32.3431C37.4616 31.9526 37.4616 31.3195 37.0711 30.9289C36.6805 30.5384 36.0474 30.5384 35.6569 30.9289L29.2929 37.2929ZM51 37L30 37L30 39L51 39L51 37Z" fill="#76767A"/>
<defs>
<filter id="filter0_d_800_1677" x="0" y="0" width="80" height="80" filterUnits="userSpaceOnUse" color-interpolation-filters="sRGB">
<feFlood flood-opacity="0" result="BackgroundImageFix"/>
<feColorMatrix in="SourceAlpha" type="matrix" values="0 0 0 0 0 0 0 0 0 0 0 0 0 0 0 0 0 0 127 0" result="hardAlpha"/>
<feOffset dy="2"/>
<feGaussianBlur stdDeviation="4"/>
<feComposite in2="hardAlpha" operator="out"/>
<feColorMatrix type="matrix" values="0 0 0 0 0 0 0 0 0 0 0 0 0 0 0 0 0 0 0.25 0"/>
<feBlend mode="normal" in2="BackgroundImageFix" result="effect1_dropShadow_800_1677"/>
<feBlend mode="normal" in="SourceGraphic" in2="effect1_dropShadow_800_1677" result="shape"/>
</filter>
</defs>
</svg>
