<svg width="21" height="22" viewBox="0 0 21 22" fill="none" xmlns="http://www.w3.org/2000/svg">
<circle cx="10.5" cy="11.5" r="10.5" fill="#878787"/>
<path d="M9.16335 14.5227V14.4503C9.1714 13.6816 9.25189 13.0698 9.40483 12.6151C9.55777 12.1603 9.77509 11.792 10.0568 11.5103C10.3385 11.2286 10.6766 10.969 11.071 10.7315C11.3085 10.5866 11.5218 10.4156 11.7109 10.2184C11.9001 10.0172 12.049 9.78575 12.1577 9.52415C12.2704 9.26255 12.3267 8.97277 12.3267 8.65483C12.3267 8.26042 12.2341 7.91832 12.049 7.62855C11.8639 7.33878 11.6164 7.11541 11.3065 6.95845C10.9966 6.80149 10.6525 6.72301 10.2741 6.72301C9.94413 6.72301 9.62618 6.79143 9.32031 6.92827C9.01444 7.0651 8.75888 7.28042 8.55362 7.57422C8.34837 7.86802 8.22964 8.25237 8.19744 8.72727H6.67614C6.70833 8.04309 6.88542 7.4575 7.20739 6.97053C7.53338 6.48355 7.962 6.11127 8.49325 5.85369C9.02853 5.59612 9.62216 5.46733 10.2741 5.46733C10.9825 5.46733 11.5982 5.60819 12.1214 5.88991C12.6487 6.17164 13.0552 6.558 13.3409 7.049C13.6307 7.54001 13.7756 8.09943 13.7756 8.72727C13.7756 9.16998 13.7071 9.57043 13.5703 9.92862C13.4375 10.2868 13.2443 10.6068 12.9908 10.8885C12.7412 11.1702 12.4394 11.4197 12.0852 11.6371C11.7311 11.8584 11.4473 12.0919 11.234 12.3374C11.0207 12.5788 10.8658 12.8666 10.7692 13.2006C10.6726 13.5347 10.6203 13.9512 10.6122 14.4503V14.5227H9.16335ZM9.93608 18.0966C9.63826 18.0966 9.38269 17.9899 9.16939 17.7766C8.95608 17.5633 8.84943 17.3078 8.84943 17.0099C8.84943 16.7121 8.95608 16.4566 9.16939 16.2433C9.38269 16.0299 9.63826 15.9233 9.93608 15.9233C10.2339 15.9233 10.4895 16.0299 10.7028 16.2433C10.9161 16.4566 11.0227 16.7121 11.0227 17.0099C11.0227 17.2071 10.9724 17.3883 10.8718 17.5533C10.7752 17.7183 10.6444 17.8511 10.4794 17.9517C10.3184 18.0483 10.1373 18.0966 9.93608 18.0966Z" fill="white"/>
</svg>
