<svg width="41" height="41" viewBox="0 0 41 41" fill="none" xmlns="http://www.w3.org/2000/svg">
<g clip-path="url(#clip0_1107_12462)">
<path d="M41 20.5C41 9.17816 31.8218 0 20.5 0C9.17816 0 0 9.17816 0 20.5C0 31.8218 9.17816 41 20.5 41C31.8218 41 41 31.8218 41 20.5Z" fill="#419FD9"/>
<path d="M41 20.5C41 9.17816 31.8218 0 20.5 0C9.17816 0 0 9.17816 0 20.5C0 31.8218 9.17816 41 20.5 41C31.8218 41 41 31.8218 41 20.5Z" fill="url(#paint0_linear_1107_12462)"/>
<path d="M9.21424 20.0479C15.1757 17.3961 19.1509 15.6478 21.14 14.803C26.819 12.3913 27.9992 11.9723 28.7683 11.9584C28.9375 11.9555 29.3157 11.9983 29.5607 12.2012C29.7676 12.3727 29.8245 12.6042 29.8518 12.7667C29.879 12.9292 29.9129 13.2994 29.8859 13.5886C29.5782 16.8902 28.2466 24.9022 27.5691 28.5999C27.2824 30.1646 26.718 30.6892 26.1716 30.7406C24.984 30.8521 24.0822 29.9393 22.9321 29.1694C21.1322 27.9649 20.1155 27.2149 18.3683 26.0395C16.3493 24.681 17.6582 23.9344 18.8088 22.7141C19.1099 22.3949 24.3423 17.5355 24.4436 17.0947C24.4562 17.0396 24.468 16.8341 24.3484 16.7256C24.2289 16.6171 24.0524 16.6542 23.925 16.6836C23.7446 16.7255 20.8693 18.6659 15.2992 22.5049C14.4831 23.0771 13.7439 23.3558 13.0816 23.3412C12.3514 23.3251 10.9469 22.9197 9.90278 22.5732C8.62213 22.1481 7.60425 21.9234 7.69288 21.2016C7.73905 20.8256 8.24615 20.441 9.21424 20.0479Z" fill="white"/>
</g>
<defs>
<linearGradient id="paint0_linear_1107_12462" x1="20.5" y1="0" x2="20.5" y2="40.6959" gradientUnits="userSpaceOnUse">
<stop stop-color="#2AABEE"/>
<stop offset="1" stop-color="#229ED9"/>
</linearGradient>
<clipPath id="clip0_1107_12462">
<rect width="41" height="41" fill="white"/>
</clipPath>
</defs>
</svg>
