<svg width="59" height="59" viewBox="0 0 59 59" fill="none" xmlns="http://www.w3.org/2000/svg">
<g clip-path="url(#clip0_257_467)">
<path d="M59 29.5C59 13.2076 45.7924 0 29.5 0C13.2076 0 0 13.2076 0 29.5C0 45.7924 13.2076 59 29.5 59C45.7924 59 59 45.7924 59 29.5Z" fill="#419FD9"/>
<path d="M59 29.5C59 13.2076 45.7924 0 29.5 0C13.2076 0 0 13.2076 0 29.5C0 45.7924 13.2076 59 29.5 59C45.7924 59 59 45.7924 59 29.5Z" fill="url(#paint0_linear_257_467)"/>
<path d="M13.2595 28.8496C21.8382 25.0336 27.5587 22.5177 30.421 21.3021C38.5933 17.8315 40.2915 17.2286 41.3983 17.2086C41.6417 17.2044 42.186 17.266 42.5386 17.558C42.8363 17.8047 42.9182 18.1379 42.9574 18.3717C42.9966 18.6056 43.0454 19.1384 43.0066 19.5546C42.5637 24.3055 40.6476 35.835 39.6726 41.1562C39.2601 43.4078 38.4478 44.1627 37.6615 44.2366C35.9526 44.3971 34.6549 43.0835 32.9998 41.9757C30.4097 40.2423 28.9466 39.1631 26.4325 37.4716C23.5271 35.5168 25.4106 34.4423 27.0664 32.6864C27.4997 32.2269 35.0292 25.2342 35.1749 24.5999C35.1931 24.5205 35.2101 24.2248 35.038 24.0687C34.8659 23.9126 34.612 23.9659 34.4287 24.0083C34.169 24.0685 30.0314 26.8608 22.016 32.3852C20.8415 33.2086 19.7778 33.6097 18.8247 33.5887C17.774 33.5656 15.7529 32.9822 14.2503 32.4835C12.4075 31.8718 10.9427 31.5485 11.0702 30.5098C11.1367 29.9687 11.8664 29.4153 13.2595 28.8496Z" fill="white"/>
<circle cx="54" cy="54" r="5" fill="#1EA918"/>
</g>
<defs>
<linearGradient id="paint0_linear_257_467" x1="29.5" y1="0" x2="29.5" y2="58.5624" gradientUnits="userSpaceOnUse">
<stop stop-color="#2AABEE"/>
<stop offset="1" stop-color="#229ED9"/>
</linearGradient>
<clipPath id="clip0_257_467">
<rect width="59" height="59" fill="white"/>
</clipPath>
</defs>
</svg>
