<svg width="69" height="69" viewBox="0 0 69 69" fill="none" xmlns="http://www.w3.org/2000/svg">
<path d="M34.5 5.75C26.875 5.75 19.5624 8.77901 14.1707 14.1707C8.77901 19.5624 5.75 26.875 5.75 34.5C5.75 42.125 8.77901 49.4376 14.1707 54.8293C19.5624 60.221 26.875 63.25 34.5 63.25C42.125 63.25 49.4376 60.221 54.8293 54.8293C60.221 49.4376 63.25 42.125 63.25 34.5C63.25 26.875 60.221 19.5624 54.8293 14.1707C49.4376 8.77901 42.125 5.75 34.5 5.75Z" fill="#1976D2"/>
<path d="M51.6594 25.9339C51.7256 25.7169 51.7572 25.5156 51.7486 25.3359C51.727 24.8156 51.3691 24.4375 50.5267 24.4375H46.7633C45.8131 24.4375 45.3747 25.0125 45.1188 25.5889C45.1188 25.5889 42.7728 30.4175 40.0689 33.6016C39.192 34.523 38.7464 34.5 38.272 34.5C38.0176 34.5 37.375 34.1924 37.375 33.3486V25.8951C37.375 24.8975 37.1263 24.4375 36.3228 24.4375H29.6398C29.0547 24.4375 28.75 24.8975 28.75 25.3589C28.75 26.3178 30.0409 26.5477 30.1875 29.2344V34.4425C30.1875 35.7075 29.9676 35.9375 29.4932 35.9375C28.2138 35.9375 25.6953 31.625 24.0091 25.9728C23.644 24.8601 23.2789 24.4375 22.3287 24.4375H18.5294C17.4326 24.4375 17.25 24.9751 17.25 25.5501C17.25 26.5866 18.1125 32.1899 22.8203 38.6328C26.2344 43.3047 30.7323 46 34.7142 46C37.1263 46 37.3736 45.3862 37.3736 44.4274V40.1551C37.375 39.0037 37.6381 38.8125 38.4057 38.8125C38.9534 38.8125 40.0703 39.1719 42.2266 41.6875C44.7134 44.5884 45.1648 46 46.5908 46H50.3542C51.2282 46 51.7299 45.6334 51.75 44.9219C51.7543 44.7407 51.7284 44.5381 51.6695 44.3124C51.3906 43.4844 50.1113 41.4604 48.5156 39.5312C47.6316 38.4632 46.759 37.4052 46.3579 36.8302C46.0891 36.455 45.9871 36.1905 46 35.9375C46.0129 35.6716 46.1509 35.4186 46.3579 35.0649C46.3206 35.0649 51.1851 28.2354 51.6594 25.9339Z" fill="white"/>
<circle cx="59" cy="58" r="5" fill="#1EA918"/>
</svg>
