<svg width="41" height="43" viewBox="0 0 41 43" fill="none" xmlns="http://www.w3.org/2000/svg">
<g clip-path="url(#clip0_1107_12457)">
<path d="M35.026 6.24878C31.1717 2.22154 26.0467 0.00245711 20.5864 0C9.33457 0 0.177837 9.55809 0.173332 21.3063C0.172021 25.0617 1.11175 28.7275 2.89791 31.9588L0.00195312 43L10.8232 40.0372C13.8046 41.735 17.1615 42.6296 20.5776 42.6311H20.5863H20.5864C31.8364 42.6311 40.9945 33.0713 40.9993 21.3236C41.0012 15.6299 38.8797 10.2763 35.026 6.24878ZM20.5864 39.0324H20.5798C17.5348 39.0307 14.5488 38.1771 11.9443 36.5634L11.3245 36.1797L4.90299 37.9377L6.61745 31.4026L6.21361 30.7326C4.51512 27.9127 3.61846 24.6539 3.61973 21.3077C3.62346 11.5429 11.2342 3.59886 20.5928 3.59886C25.1248 3.60083 29.3843 5.44534 32.5878 8.79267C35.7911 12.14 37.5539 16.5897 37.5526 21.3221C37.5486 31.0872 29.9376 39.0324 20.5864 39.0324Z" fill="#E0E0E0"/>
<path d="M0.938477 41.7749L3.70215 31.2381C1.99714 28.1543 1.10051 24.6557 1.10159 21.0726C1.10606 9.86121 9.84459 0.73999 20.5815 0.73999C25.7927 0.742447 30.6836 2.86006 34.361 6.70343C38.0392 10.5468 40.0635 15.6554 40.0614 21.0885C40.0569 32.3001 31.3179 41.4222 20.5823 41.4222C20.5815 41.4222 20.5828 41.4222 20.5823 41.4222H20.5736C17.3136 41.4211 14.1102 40.5666 11.2652 38.9475L0.938477 41.7749Z" fill="url(#paint0_linear_1107_12457)"/>
<path fill-rule="evenodd" clip-rule="evenodd" d="M15.5416 12.2609C15.164 11.3841 14.7663 11.3666 14.4071 11.3512C14.1132 11.3381 13.7767 11.3389 13.4408 11.3389C13.1047 11.3389 12.5584 11.4708 12.0964 11.9976C11.6342 12.5244 10.3315 13.7979 10.3315 16.388C10.3315 18.9784 12.1384 21.4813 12.3903 21.8329C12.6424 22.1839 15.8783 27.6691 21.003 29.7793C25.2621 31.533 26.1288 31.1842 27.0533 31.0964C27.9778 31.0086 30.0363 29.8232 30.4565 28.5938C30.8767 27.3646 30.8767 26.3111 30.7506 26.0908C30.6246 25.8715 30.2884 25.7398 29.7841 25.4766C29.2799 25.2133 26.8012 23.9395 26.339 23.764C25.8767 23.5885 25.5406 23.5007 25.2044 24.0278C24.8682 24.5543 23.9025 25.7398 23.6084 26.0908C23.3142 26.4427 23.0201 26.4865 22.5158 26.2233C22.0116 25.9592 20.3877 25.4039 18.4613 23.6104C16.9625 22.2151 15.9505 20.4918 15.6564 19.9648C15.3622 19.4383 15.6249 19.1531 15.8778 18.8906C16.1042 18.6547 16.382 18.276 16.6342 17.9686C16.8858 17.6612 16.9698 17.4418 17.1379 17.0908C17.306 16.7392 17.2219 16.4318 17.0959 16.1686C16.9698 15.9053 15.9899 13.3018 15.5416 12.2609Z" fill="white"/>
<path d="M34.8585 6.18098C31.0485 2.19997 25.9823 0.00639846 20.5848 0.00390625C9.46205 0.00390625 0.410439 9.45227 0.405968 21.0657C0.404657 24.778 1.33359 28.4016 3.09925 31.5959L0.236572 42.5103L10.9336 39.5815C13.8808 41.2597 17.1992 42.1442 20.5761 42.1455H20.5847H20.5848C31.7056 42.1455 40.7585 32.6955 40.7633 21.0826C40.7651 15.4544 38.668 10.1623 34.8585 6.18098ZM20.5848 38.5882H20.5782C17.5682 38.5866 14.6165 37.7428 12.0419 36.1476L11.4291 35.7683L5.08133 37.5061L6.77609 31.0461L6.37689 30.3838C4.6979 27.5962 3.81152 24.3748 3.81284 21.0671C3.8165 11.4144 11.3399 3.56152 20.5911 3.56152C25.0711 3.56345 29.2816 5.3868 32.4484 8.69569C35.6149 12.0046 37.3575 16.4032 37.3562 21.0814C37.3522 30.7343 29.8286 38.5882 20.5848 38.5882Z" fill="white"/>
</g>
<defs>
<linearGradient id="paint0_linear_1107_12457" x1="20.5" y1="41.7749" x2="20.5" y2="0.740059" gradientUnits="userSpaceOnUse">
<stop stop-color="#20B038"/>
<stop offset="1" stop-color="#60D66A"/>
</linearGradient>
<clipPath id="clip0_1107_12457">
<rect width="41" height="43" fill="white"/>
</clipPath>
</defs>
</svg>
