<svg width="44" height="45" viewBox="0 0 44 45" fill="none" xmlns="http://www.w3.org/2000/svg">
<ellipse cx="22" cy="22.4292" rx="22" ry="22.4292" fill="#1EA918"/>
<path d="M29.0757 15.0587C27.1883 13.1683 24.6774 12.125 22.0032 12.1218C16.4895 12.1218 12.0017 16.6111 12.0017 22.1265C11.9986 23.8852 12.463 25.6086 13.336 27.1241L11.917 32.3068L17.2182 30.9145C18.6764 31.713 20.3238 32.1311 21.9985 32.1311H22.0032C27.5154 32.1311 31.9985 27.6465 32 22.1328C32.004 19.4618 30.9622 16.9477 29.0757 15.0587ZM22.004 30.4454H21.9993C20.5073 30.4438 19.042 30.0406 17.7665 29.2844L17.4645 29.1024L14.3189 29.93L15.1567 26.8644L14.959 26.5507C14.1267 25.2281 13.689 23.6961 13.6922 22.1273C13.6922 17.5415 17.4198 13.8186 22.0056 13.8186C24.2287 13.8186 26.3121 14.6846 27.8778 16.2519C29.4514 17.8239 30.3151 19.9136 30.3135 22.1335C30.3135 26.7162 26.5851 30.4454 22.004 30.4454Z" fill="white"/>
<path d="M26.5593 24.2179C26.3067 24.0924 25.0807 23.4931 24.8508 23.4044C24.6226 23.3221 24.457 23.2805 24.2915 23.5331C24.1229 23.781 23.6436 24.3434 23.4961 24.5105C23.3534 24.6776 23.2035 24.6972 22.9556 24.5733C22.7078 24.4477 21.9037 24.1857 20.9475 23.3307C20.2046 22.6655 19.705 21.8489 19.5583 21.6026C19.4124 21.3532 19.5418 21.2167 19.6689 21.0912C19.781 20.979 19.9168 20.7986 20.043 20.6558C20.1686 20.5075 20.2101 20.4048 20.2956 20.2361C20.3772 20.0722 20.3356 19.9255 20.2745 19.8008C20.2101 19.6768 19.712 18.4445 19.501 17.9456C19.3018 17.46 19.0962 17.5228 18.9417 17.5149C18.7942 17.5071 18.6264 17.5071 18.464 17.5071C18.2953 17.5071 18.0239 17.5683 17.7956 17.8209C17.5642 18.0703 16.9194 18.6743 16.9194 19.9059C16.9194 21.1359 17.8176 22.3219 17.9431 22.489C18.0671 22.6545 19.705 25.178 22.2096 26.2598C22.8074 26.5234 23.2702 26.6732 23.6357 26.7885C24.2335 26.9799 24.7755 26.9493 25.2077 26.8865C25.6886 26.8128 26.6848 26.2841 26.8943 25.6973C27.1014 25.1137 27.1014 24.614 27.0386 24.5097C26.9766 24.4046 26.8111 24.3434 26.5593 24.2179Z" fill="white"/>
</svg>
