<svg width="57" height="59" viewBox="0 0 57 59" fill="none" xmlns="http://www.w3.org/2000/svg">
<g clip-path="url(#clip0_257_462)">
<path d="M48.6943 8.57391C43.336 3.04817 36.211 0.00337138 28.6198 0C12.977 0 0.246962 13.1146 0.2407 29.2343C0.238877 34.387 1.54533 39.4168 4.02853 43.8505L0.00244141 59L15.0466 54.9348C19.1915 57.2643 23.8584 58.4918 28.6076 58.4938H28.6197H28.6198C44.2601 58.4938 56.9921 45.3769 56.9988 29.258C57.0014 21.4456 54.052 14.1 48.6943 8.57391ZM28.6198 53.556H28.6106C24.3774 53.5537 20.2262 52.3825 16.6053 50.1683L15.7436 49.6419L6.81608 52.054L9.19959 43.0873L8.63816 42.168C6.27684 38.2988 5.03026 33.8275 5.03204 29.2362C5.03723 15.838 15.618 4.93797 28.6288 4.93797C34.9293 4.94067 40.851 7.47152 45.3047 12.0644C49.7581 16.6571 52.2089 22.7626 52.207 29.2559C52.2015 42.6545 41.6203 53.556 28.6198 53.556Z" fill="#E0E0E0"/>
<path d="M1.30469 57.319L5.14687 42.8616C2.77649 38.6304 1.52995 33.83 1.53145 28.9136C1.53766 13.5305 13.6864 1.01538 28.6133 1.01538C35.8581 1.01875 42.6577 3.92431 47.7701 9.19778C52.8837 14.4712 55.698 21.4807 55.6951 28.9354C55.6889 44.3188 43.5394 56.8351 28.6144 56.8351C28.6133 56.8351 28.6151 56.8351 28.6144 56.8351H28.6023C24.07 56.8336 19.6166 55.6611 15.6613 53.4396L1.30469 57.319Z" fill="url(#paint0_linear_257_462)"/>
<path fill-rule="evenodd" clip-rule="evenodd" d="M21.6066 16.8229C21.0815 15.62 20.5287 15.5959 20.0292 15.5748C19.6207 15.5568 19.1529 15.5579 18.686 15.5579C18.2186 15.5579 17.4591 15.7389 16.8169 16.4617C16.1743 17.1845 14.3633 18.9319 14.3633 22.4858C14.3633 26.04 16.8753 29.4743 17.2255 29.9566C17.576 30.4383 22.0747 37.9644 29.1993 40.8598C35.1205 43.2661 36.3254 42.7874 37.6106 42.667C38.8958 42.5466 41.7577 40.92 42.3419 39.2332C42.9261 37.5467 42.9261 36.1011 42.7508 35.7989C42.5755 35.4979 42.1082 35.3173 41.4071 34.9561C40.7061 34.5949 37.2601 32.8471 36.6175 32.6063C35.9749 32.3655 35.5075 32.2451 35.0402 32.9683C34.5728 33.6907 33.2302 35.3173 32.8213 35.7989C32.4124 36.2817 32.0034 36.3419 31.3024 35.9807C30.6013 35.6183 28.3438 34.8564 25.6656 32.3955C23.5819 30.4811 22.1751 28.1166 21.7661 27.3934C21.3572 26.671 21.7223 26.2796 22.0739 25.9195C22.3886 25.5959 22.775 25.0763 23.1255 24.6545C23.4752 24.2327 23.5921 23.9317 23.8258 23.45C24.0594 22.9676 23.9426 22.5459 23.7673 22.1847C23.5921 21.8234 22.2298 18.2512 21.6066 16.8229Z" fill="white"/>
<path d="M48.462 8.48101C43.1652 3.01869 36.122 0.00891271 28.618 0.00549316C13.1548 0.00549316 0.570818 12.9695 0.564602 28.9042C0.56278 33.9978 1.85423 38.9698 4.30892 43.3526L0.329102 58.3282L15.2005 54.3096C19.2979 56.6123 23.9113 57.8258 28.606 57.8277H28.6179H28.618C44.0788 57.8277 56.6645 44.8614 56.6711 28.9275C56.6737 21.2049 53.7582 13.9437 48.462 8.48101ZM28.618 52.9468H28.6089C24.4243 52.9445 20.3206 51.7867 16.7414 49.598L15.8895 49.0776L7.0645 51.462L9.42063 42.5982L8.86565 41.6895C6.53144 37.8647 5.29916 33.4447 5.30098 28.9061C5.30607 15.6618 15.7654 4.88687 28.6268 4.88687C34.8551 4.88952 40.7087 7.39133 45.1114 11.9314C49.5136 16.4715 51.9362 22.5069 51.9344 28.9257C51.9289 42.1704 41.4692 52.9468 28.618 52.9468Z" fill="white"/>
<circle cx="52" cy="54" r="5" fill="#1EA918"/>
</g>
<defs>
<linearGradient id="paint0_linear_257_462" x1="28.4999" y1="57.319" x2="28.4999" y2="1.01547" gradientUnits="userSpaceOnUse">
<stop stop-color="#20B038"/>
<stop offset="1" stop-color="#60D66A"/>
</linearGradient>
<clipPath id="clip0_257_462">
<rect width="57" height="59" fill="white"/>
</clipPath>
</defs>
</svg>
