<svg width="44" height="46" viewBox="0 0 44 46" fill="none" xmlns="http://www.w3.org/2000/svg">
<ellipse cx="22" cy="22.5339" rx="22" ry="22.4792" fill="white" fill-opacity="0.15"/>
<path d="M29.0757 15.136C27.1883 13.2455 24.6774 12.2022 22.0032 12.1991C16.4895 12.1991 12.0017 16.6884 12.0017 22.2037C11.9986 23.9624 12.463 25.6858 13.336 27.2014L11.917 32.3841L17.2182 30.9917C18.6764 31.7903 20.3238 32.2084 21.9985 32.2084H22.0032C27.5154 32.2084 31.9985 27.7238 32 22.21C32.004 19.539 30.9622 17.0249 29.0757 15.136ZM22.004 30.5227H21.9993C20.5073 30.5211 19.042 30.1179 17.7665 29.3617L17.4645 29.1797L14.3189 30.0073L15.1567 26.9417L14.959 26.628C14.1267 25.3054 13.689 23.7734 13.6922 22.2045C13.6922 17.6187 17.4198 13.8958 22.0056 13.8958C24.2287 13.8958 26.3121 14.7618 27.8778 16.3291C29.4514 17.9011 30.3151 19.9909 30.3135 22.2108C30.3135 26.7935 26.5851 30.5227 22.004 30.5227Z" fill="white"/>
<path d="M26.5593 24.2952C26.3067 24.1697 25.0807 23.5704 24.8508 23.4817C24.6226 23.3994 24.457 23.3578 24.2915 23.6104C24.1229 23.8582 23.6436 24.4207 23.4961 24.5878C23.3534 24.7548 23.2035 24.7745 22.9556 24.6505C22.7078 24.525 21.9037 24.263 20.9475 23.408C20.2046 22.7428 19.705 21.9262 19.5583 21.6799C19.4124 21.4304 19.5418 21.2939 19.6689 21.1684C19.781 21.0562 19.9168 20.8758 20.043 20.7331C20.1686 20.5848 20.2101 20.482 20.2956 20.3134C20.3772 20.1494 20.3356 20.0028 20.2745 19.878C20.2101 19.7541 19.712 18.5218 19.501 18.0229C19.3018 17.5373 19.0962 17.6 18.9417 17.5922C18.7942 17.5844 18.6264 17.5844 18.464 17.5844C18.2953 17.5844 18.0239 17.6455 17.7956 17.8981C17.5642 18.1476 16.9194 18.7516 16.9194 19.9832C16.9194 21.2131 17.8176 22.3992 17.9431 22.5663C18.0671 22.7318 19.705 25.2553 22.2096 26.3371C22.8074 26.6006 23.2702 26.7504 23.6357 26.8658C24.2335 27.0572 24.7755 27.0266 25.2077 26.9638C25.6886 26.8901 26.6848 26.3614 26.8943 25.7746C27.1014 25.191 27.1014 24.6913 27.0386 24.587C26.9766 24.4819 26.8111 24.4207 26.5593 24.2952Z" fill="white"/>
</svg>
