<?xml version="1.0" encoding="utf-8"?>
<!-- Generator: Adobe Illustrator 21.0.0, SVG Export Plug-In . SVG Version: 6.00 Build 0)  -->
<svg version="1.1" id="Слой_1" xmlns="http://www.w3.org/2000/svg" xmlns:xlink="http://www.w3.org/1999/xlink" x="0px" y="0px"
	 viewBox="0 0 24.1 17.9" style="enable-background:new 0 0 24.1 17.9;" xml:space="preserve">
<style type="text/css">
	.st0{fill:#FFFFFF;}
</style>
<path class="st0" d="M12,0C8.3,0,4.8,0.3,3,0.7C1.7,1,0.7,1.8,0.4,3.1C0.2,4.4,0,6.4,0,9s0.2,4.5,0.5,5.9C0.7,16.1,1.8,17,3,17.2
	c2,0.4,5.3,0.7,9,0.7s7.1-0.3,9-0.7c1.2-0.3,2.3-1.1,2.5-2.4c0.2-1.4,0.5-3.4,0.6-5.9c0-2.5-0.3-4.5-0.6-5.9
	c-0.2-1.2-1.3-2.1-2.5-2.4C19.1,0.3,15.7,0,12,0z M12,1.1c4,0,7.3,0.3,8.8,0.6c0.8,0.2,1.5,0.8,1.6,1.5C22.8,5,23,6.9,23,8.9
	c-0.1,2.4-0.3,4.4-0.6,5.8c-0.2,1.1-1.3,1.4-1.6,1.5c-2,0.4-5.4,0.7-8.7,0.7s-6.8-0.2-8.7-0.7c-0.8-0.2-1.5-0.8-1.6-1.5
	C1.3,13.1,1.1,11,1.1,9c0-2.6,0.2-4.5,0.4-5.7c0.2-1.1,1.3-1.4,1.6-1.5C5,1.4,8.5,1.1,12,1.1z M9,4.5v9L16.8,9L9,4.5z M10.1,6.4
	L14.6,9l-4.5,2.6V6.4z"/>
</svg>
